{"glyphs":{"0":{"ha":888,"x_min":104,"x_max":785,"o":"m 444 -17 q 282 27 351 -17 q 176 145 213 71 q 122 304 139 219 q 104 486 104 389 q 119 656 104 575 q 171 816 135 738 q 277 942 207 894 q 444 989 347 989 q 607 945 538 989 q 713 826 676 901 q 767 667 750 751 q 785 486 785 582 q 769 316 785 397 q 717 156 753 235 q 610 31 681 78 q 444 -17 540 -17 m 444 97 q 551 132 507 97 q 617 228 596 167 q 648 351 639 289 q 657 486 657 413 q 647 629 657 564 q 615 752 638 694 q 549 843 592 810 q 444 876 506 876 q 336 841 381 876 q 269 745 292 806 q 238 622 247 685 q 229 486 229 558 q 239 344 229 408 q 272 221 249 279 q 340 130 296 163 q 444 97 383 97 z "},"1":{"ha":518,"x_min":56,"x_max":339,"o":"m 218 0 l 218 775 l 56 775 l 56 857 q 251 972 213 857 l 339 972 l 339 0 l 218 0 z "},"2":{"ha":850,"x_min":97,"x_max":751,"o":"m 97 0 q 124 167 97 92 q 200 300 150 243 q 300 396 250 357 q 419 475 350 435 q 519 541 483 514 q 587 614 556 568 q 618 711 618 660 q 566 829 618 782 q 428 876 514 876 q 221 733 267 876 l 113 782 q 228 931 142 874 q 432 989 314 989 q 660 912 576 989 q 743 708 743 835 q 728 615 743 658 q 691 542 713 572 q 629 478 669 511 q 558 424 589 444 q 474 372 526 404 q 312 254 371 313 q 238 118 253 196 l 751 118 l 751 0 l 97 0 z "},"3":{"ha":836,"x_min":72,"x_max":739,"o":"m 404 -17 q 72 210 158 -17 l 185 256 q 404 99 250 99 q 554 143 496 99 q 613 272 613 188 q 561 401 613 353 q 411 449 510 449 l 342 449 l 342 563 l 404 563 q 528 605 481 563 q 575 717 575 647 q 528 832 575 789 q 408 875 482 875 q 215 744 276 875 l 103 788 q 216 933 138 876 q 408 989 294 989 q 618 915 535 989 q 701 731 701 842 q 669 607 701 664 q 576 519 636 550 q 696 426 653 489 q 739 276 739 364 q 643 64 739 144 q 404 -17 547 -17 z "},"4":{"ha":863,"x_min":35,"x_max":790,"o":"m 532 0 l 532 242 l 35 242 l 35 314 l 539 972 l 653 972 l 653 350 l 790 350 l 790 242 l 653 242 l 653 0 l 532 0 m 532 350 l 532 801 l 193 350 l 532 350 z "},"5":{"ha":863,"x_min":93,"x_max":767,"o":"m 404 -17 q 215 15 296 -17 q 93 90 135 47 l 165 183 q 403 94 267 94 q 573 157 506 94 q 640 313 640 219 q 585 461 640 404 q 442 518 531 518 q 246 439 317 518 l 126 481 l 183 972 l 703 972 l 703 860 l 289 860 l 251 567 q 456 633 335 633 q 681 543 594 633 q 767 321 767 453 q 666 81 767 179 q 404 -17 565 -17 z "},"6":{"ha":829,"x_min":90,"x_max":743,"o":"m 419 -17 q 176 88 261 -17 q 90 360 90 193 q 228 765 90 590 q 604 989 367 940 l 604 882 q 369 755 472 851 q 236 528 265 658 q 449 607 306 607 q 658 518 574 607 q 743 301 743 429 q 651 74 743 164 q 419 -17 558 -17 m 418 97 q 565 151 508 97 q 622 294 622 206 q 566 440 622 385 q 418 494 510 494 q 270 440 328 494 q 213 294 213 385 q 271 152 213 207 q 418 97 329 97 z "},"7":{"ha":725,"x_min":49,"x_max":667,"o":"m 243 0 q 313 451 246 246 q 532 860 379 656 l 49 860 l 49 972 l 667 972 l 667 863 q 517 644 579 763 q 425 408 456 525 q 381 194 394 292 q 367 0 367 96 l 243 0 z "},"8":{"ha":849,"x_min":97,"x_max":751,"o":"m 424 -17 q 189 67 281 -17 q 97 279 97 151 q 143 435 97 368 q 264 535 189 503 q 172 618 204 565 q 140 736 140 671 q 220 916 140 843 q 424 989 300 989 q 628 916 547 989 q 708 736 708 843 q 583 535 708 596 q 706 435 660 501 q 751 279 751 368 q 660 67 751 151 q 424 -17 568 -17 m 307 624 q 329 604 307 624 q 424 583 351 583 q 541 624 496 583 q 586 726 586 665 q 541 835 586 794 q 424 876 496 876 q 308 835 353 876 q 263 726 263 794 q 307 624 263 665 m 278 149 q 307 123 278 149 q 424 97 335 97 q 569 149 513 97 q 626 289 626 201 q 569 425 626 368 q 424 482 511 482 q 279 426 336 482 q 222 289 222 369 q 278 149 222 201 z "},"9":{"ha":829,"x_min":79,"x_max":733,"o":"m 242 -17 l 242 96 q 470 213 374 119 q 590 450 567 306 q 378 367 522 367 q 165 454 250 367 q 79 672 79 542 q 173 899 79 810 q 410 989 267 989 q 651 885 569 989 q 733 613 733 781 q 602 191 733 367 q 242 -17 471 15 m 406 479 q 552 534 496 479 q 608 678 608 589 q 551 817 608 763 q 406 872 493 872 q 259 817 315 872 q 203 678 203 763 q 258 533 203 588 q 406 479 313 479 z "}," ":{"ha":326,"x_min":0,"x_max":0,"o":""},"!":{"ha":379,"x_min":94,"x_max":286,"o":"m 171 268 l 131 685 l 131 989 l 253 989 l 253 685 l 211 268 l 171 268 m 258 10 q 244 -4 258 10 q 190 -18 231 -18 q 122 10 150 -18 q 94 76 94 38 q 122 144 94 115 q 190 172 150 172 q 258 144 231 172 q 286 76 286 115 q 258 10 286 39 z "},"\"":{"ha":560,"x_min":74,"x_max":486,"o":"m 74 972 l 224 972 l 197 593 l 99 593 l 74 972 m 335 972 l 486 972 l 460 593 l 361 593 l 335 972 z "},"#":{"ha":949,"x_min":69,"x_max":879,"o":"m 192 0 l 233 274 l 69 274 l 86 376 l 249 376 l 285 615 l 126 615 l 142 717 l 300 717 l 340 972 l 449 972 l 410 717 l 606 717 l 644 972 l 754 972 l 714 717 l 879 717 l 864 615 l 699 615 l 663 376 l 822 376 l 807 274 l 647 274 l 606 0 l 496 0 l 538 274 l 343 274 l 301 0 l 192 0 m 358 376 l 553 376 l 590 615 l 394 615 l 358 376 z "},"$":{"ha":817,"x_min":81,"x_max":725,"o":"m 346 -136 l 346 -11 q 178 61 249 4 q 81 200 108 118 l 194 242 q 281 137 224 175 q 415 99 339 99 q 550 140 501 99 q 599 261 599 182 q 542 383 599 336 q 386 467 486 429 q 285 509 324 490 q 201 561 247 528 q 132 641 154 594 q 110 749 110 688 q 173 905 110 839 q 346 985 236 971 l 346 1096 l 468 1096 l 468 983 q 605 925 550 969 q 679 815 660 881 l 568 778 q 394 875 525 875 q 278 842 319 875 q 236 749 236 808 q 251 691 236 717 q 299 644 267 665 q 360 610 332 624 q 439 578 389 597 q 541 533 500 554 q 629 476 582 513 q 701 385 676 439 q 725 264 725 332 q 654 75 725 147 q 468 -12 583 3 l 468 -136 l 346 -136 z "},"%":{"ha":1208,"x_min":72,"x_max":1136,"o":"m 296 494 q 127 568 182 494 q 72 742 72 642 q 128 913 72 838 q 296 989 183 989 q 463 916 408 989 q 518 742 518 843 q 499 629 518 682 q 426 535 479 576 q 296 494 374 494 m 331 -17 l 214 -17 l 878 989 l 994 989 l 331 -17 m 296 590 q 384 634 353 590 q 415 742 415 678 q 385 852 415 811 q 296 893 354 893 q 206 851 236 893 q 176 742 176 808 q 206 632 176 674 q 296 590 236 590 m 913 -17 q 745 57 800 -17 q 690 231 690 131 q 745 401 690 325 q 913 478 800 478 q 1081 405 1026 478 q 1136 231 1136 332 q 1117 118 1136 171 q 1044 24 1097 65 q 913 -17 992 -17 m 824 121 q 839 100 824 121 q 913 79 854 79 q 1001 122 971 79 q 1032 231 1032 165 q 1001 341 1032 300 q 913 382 971 382 q 824 340 854 382 q 793 231 793 297 q 824 121 793 163 z "},"&":{"ha":940,"x_min":75,"x_max":911,"o":"m 354 -17 q 152 57 229 -17 q 75 251 75 131 q 133 421 75 353 q 300 550 192 489 q 214 674 239 626 q 189 778 189 722 q 256 932 189 875 q 422 989 322 989 q 585 928 521 989 q 650 775 650 868 q 603 640 650 697 q 469 528 557 583 l 651 310 q 690 457 685 382 l 806 457 q 732 214 800 331 l 911 0 l 754 0 l 658 115 q 354 -17 533 -17 m 418 882 q 335 853 367 882 q 304 778 304 825 q 319 725 304 754 q 351 673 333 696 q 403 608 368 650 q 535 767 535 685 q 501 851 535 819 q 418 882 468 882 m 374 96 q 585 204 490 96 l 367 468 q 240 367 282 415 q 199 258 199 319 q 247 141 199 186 q 374 96 296 96 z "},"'":{"ha":297,"x_min":74,"x_max":224,"o":"m 74 972 l 224 972 l 197 593 l 99 593 l 74 972 z "},"(":{"ha":476,"x_min":108,"x_max":410,"o":"m 278 -181 q 108 394 108 42 q 293 989 108 768 l 410 989 q 289 756 350 917 q 228 394 228 596 q 263 122 228 254 q 330 -72 299 -11 q 394 -181 361 -132 l 278 -181 z "},")":{"ha":476,"x_min":67,"x_max":368,"o":"m 82 -181 q 147 -72 115 -132 q 213 122 178 -11 q 249 394 249 254 q 188 756 249 596 q 67 989 126 917 l 183 989 q 368 394 368 768 q 199 -181 368 42 l 82 -181 z "},"*":{"ha":740,"x_min":75,"x_max":665,"o":"m 407 542 l 369 644 l 332 542 l 238 413 l 147 481 l 239 607 l 318 675 l 218 678 l 75 725 l 111 833 l 250 788 l 338 726 l 314 829 l 314 986 l 426 986 l 426 829 l 400 726 l 489 788 l 629 833 l 665 725 l 521 678 l 419 675 l 501 607 l 593 481 l 503 413 l 407 542 z "},"+":{"ha":896,"x_min":122,"x_max":775,"o":"m 508 418 l 508 150 l 386 150 l 386 418 l 122 418 l 122 535 l 386 535 l 386 803 l 508 803 l 508 535 l 775 535 l 775 418 l 508 418 z "},",":{"ha":313,"x_min":60,"x_max":258,"o":"m 79 -175 q 129 -111 104 -153 q 157 -22 154 -69 q 88 6 115 -19 q 60 71 60 32 q 87 142 60 114 q 153 169 114 169 q 228 138 197 169 q 258 47 258 107 q 219 -94 258 -29 q 119 -196 181 -158 l 79 -175 z "},"-":{"ha":554,"x_min":115,"x_max":440,"o":"m 115 356 l 115 472 l 440 472 l 440 356 l 115 356 z "},".":{"ha":313,"x_min":60,"x_max":253,"o":"m 224 10 q 210 -4 224 10 q 156 -18 196 -18 q 88 10 115 -18 q 60 76 60 39 q 88 144 60 115 q 156 172 115 172 q 224 143 196 172 q 253 76 253 114 q 224 10 253 39 z "},"/":{"ha":681,"x_min":-11,"x_max":656,"o":"m -11 -181 l 536 989 l 656 989 l 110 -181 l -11 -181 z "},":":{"ha":313,"x_min":60,"x_max":253,"o":"m 224 510 q 210 496 224 510 q 156 482 196 482 q 88 510 115 482 q 60 576 60 539 q 88 644 60 615 q 156 672 115 672 q 224 643 196 672 q 253 576 253 614 q 224 510 253 539 m 224 10 q 210 -4 224 10 q 156 -18 196 -18 q 88 10 115 -18 q 60 76 60 39 q 88 144 60 115 q 156 172 115 172 q 224 143 196 172 q 253 76 253 114 q 224 10 253 39 z "},";":{"ha":313,"x_min":60,"x_max":258,"o":"m 224 510 q 210 496 224 510 q 156 482 196 482 q 88 510 115 482 q 60 576 60 538 q 88 644 60 615 q 156 672 115 672 q 224 644 196 672 q 251 576 251 615 q 224 510 251 539 m 79 -175 q 127 -111 104 -153 q 153 -21 150 -69 q 87 6 114 -19 q 60 71 60 32 q 87 142 60 114 q 153 169 114 169 q 228 138 197 169 q 258 47 258 107 q 219 -94 258 -29 q 119 -196 181 -158 l 79 -175 z "},"<":{"ha":896,"x_min":122,"x_max":775,"o":"m 775 158 l 122 422 l 122 529 l 775 794 l 775 675 l 274 476 l 775 279 l 775 158 z "},"=":{"ha":896,"x_min":122,"x_max":775,"o":"m 122 540 l 122 657 l 775 657 l 775 540 l 122 540 m 122 296 l 122 411 l 775 411 l 775 296 l 122 296 z "},">":{"ha":896,"x_min":122,"x_max":775,"o":"m 775 422 l 122 158 l 122 278 l 622 476 l 122 675 l 122 794 l 775 529 l 775 422 z "},"?":{"ha":714,"x_min":44,"x_max":654,"o":"m 282 250 l 282 281 q 308 410 282 354 q 370 499 333 465 q 444 564 407 533 q 506 635 481 594 q 532 725 532 675 q 486 833 532 790 q 360 876 440 876 q 215 825 267 876 q 163 688 163 774 l 44 688 q 131 906 44 822 q 360 989 218 989 q 576 914 499 989 q 654 724 654 839 q 628 608 654 658 q 566 526 603 558 q 492 462 529 493 q 430 385 456 431 q 404 279 404 339 l 404 250 l 282 250 m 409 10 q 395 -4 409 10 q 340 -18 381 -18 q 272 10 300 -18 q 244 76 244 39 q 272 144 244 115 q 340 172 300 172 q 409 143 381 172 q 438 76 438 114 q 409 10 438 39 z "},"@":{"ha":1124,"x_min":76,"x_max":1047,"o":"m 567 -17 q 214 113 351 -17 q 76 467 76 242 q 226 841 76 693 q 586 989 375 989 q 919 871 792 989 q 1047 572 1047 753 q 976 323 1047 422 q 803 224 904 224 q 724 249 756 224 q 685 318 693 274 q 515 215 626 215 q 371 282 428 215 q 314 453 314 349 q 386 651 314 563 q 569 740 458 740 q 715 633 682 740 l 731 722 l 836 722 l 786 443 q 776 367 776 385 q 819 314 776 314 q 909 390 871 314 q 947 575 947 467 q 849 803 947 718 q 592 889 750 889 q 298 769 410 889 q 186 465 186 649 q 290 189 186 294 q 572 83 393 83 q 757 107 678 83 l 732 -1 q 567 -17 667 -17 m 539 317 q 647 373 606 317 q 689 504 689 429 q 658 601 689 564 q 579 638 628 638 q 469 583 511 638 q 426 451 426 529 q 457 353 426 390 q 539 317 488 317 z "},"A":{"ha":943,"x_min":71,"x_max":872,"o":"m 749 0 l 665 238 l 279 238 l 197 0 l 71 0 l 415 972 l 528 972 l 872 0 l 749 0 m 628 344 l 503 704 q 472 803 479 772 q 442 704 457 749 l 315 344 l 628 344 z "},"B":{"ha":911,"x_min":136,"x_max":818,"o":"m 136 972 l 481 972 q 712 899 640 972 q 783 715 783 825 q 746 595 783 649 q 640 513 708 542 q 772 424 725 486 q 818 279 818 363 q 801 179 818 226 q 750 90 785 132 q 651 24 715 49 q 503 0 588 0 l 136 0 l 136 972 m 457 560 q 611 601 558 560 q 664 714 664 642 q 488 863 664 863 l 257 863 l 257 560 l 457 560 m 517 111 q 657 157 615 111 q 699 271 699 203 q 472 450 699 450 l 257 450 l 257 111 l 517 111 z "},"C":{"ha":899,"x_min":94,"x_max":819,"o":"m 497 -17 q 311 26 392 -17 q 185 143 231 69 q 117 303 139 217 q 94 486 94 389 q 117 669 94 582 q 187 828 140 756 q 313 945 233 901 q 497 989 393 989 q 811 814 725 989 l 703 758 q 617 847 664 817 q 497 876 571 876 q 333 814 399 876 q 244 667 268 751 q 219 486 219 583 q 290 212 219 326 q 497 97 361 97 q 708 221 633 97 l 819 179 q 699 37 779 90 q 497 -17 618 -17 z "},"D":{"ha":947,"x_min":136,"x_max":853,"o":"m 136 972 l 401 972 q 611 931 521 972 q 753 818 701 889 q 828 664 804 747 q 853 486 853 581 q 830 315 853 396 q 758 160 807 233 q 615 44 708 88 q 396 0 522 0 l 136 0 l 136 972 m 411 113 q 562 145 497 113 q 661 234 626 178 q 712 353 696 290 q 728 486 728 415 q 699 668 728 586 q 599 806 669 750 q 426 861 528 861 l 257 861 l 257 113 l 411 113 z "},"E":{"ha":832,"x_min":136,"x_max":744,"o":"m 136 0 l 136 972 l 714 972 l 714 858 l 257 858 l 257 560 l 558 560 l 558 446 l 257 446 l 257 115 l 744 115 l 744 0 l 136 0 z "},"F":{"ha":781,"x_min":136,"x_max":721,"o":"m 136 0 l 136 972 l 721 972 l 721 858 l 257 858 l 257 560 l 564 560 l 564 446 l 257 446 l 257 0 l 136 0 z "},"G":{"ha":956,"x_min":94,"x_max":851,"o":"m 507 -17 q 319 26 400 -17 q 190 140 238 68 q 118 300 142 213 q 94 486 94 388 q 119 672 94 583 q 193 831 144 760 q 323 946 242 903 q 507 989 404 989 q 702 943 631 989 q 822 818 774 897 l 714 756 q 628 844 675 813 q 507 875 581 875 q 394 851 444 875 q 313 790 344 828 q 259 700 281 751 q 228 595 238 649 q 219 486 219 542 q 292 210 219 322 q 507 99 364 99 q 665 160 606 99 q 725 322 725 222 l 725 361 l 549 361 l 549 472 l 851 472 l 851 356 q 755 81 851 179 q 507 -17 658 -17 z "},"H":{"ha":972,"x_min":136,"x_max":836,"o":"m 715 0 l 715 447 l 257 447 l 257 0 l 136 0 l 136 972 l 257 972 l 257 561 l 715 561 l 715 972 l 836 972 l 836 0 l 715 0 z "},"I":{"ha":399,"x_min":139,"x_max":260,"o":"m 139 0 l 139 972 l 260 972 l 260 0 l 139 0 z "},"J":{"ha":758,"x_min":39,"x_max":626,"o":"m 319 -17 q 39 158 114 -17 l 139 210 q 208 124 168 150 q 321 97 249 97 q 506 315 506 97 l 506 972 l 626 972 l 626 319 q 599 155 626 224 q 524 51 571 86 q 426 -1 476 15 q 319 -17 375 -17 z "},"K":{"ha":917,"x_min":136,"x_max":851,"o":"m 711 0 l 422 535 l 257 332 l 257 0 l 136 0 l 136 972 l 257 972 l 257 496 l 636 972 l 772 972 l 504 636 l 851 0 l 711 0 z "},"L":{"ha":776,"x_min":136,"x_max":735,"o":"m 136 0 l 136 972 l 257 972 l 257 117 l 735 117 l 735 0 l 136 0 z "},"M":{"ha":1115,"x_min":136,"x_max":981,"o":"m 981 0 l 860 0 l 860 597 q 863 704 860 654 q 819 594 849 665 l 553 -17 l 294 597 q 253 703 261 678 q 257 597 257 665 l 257 0 l 136 0 l 136 972 l 250 972 l 532 318 l 557 253 q 582 318 563 269 l 865 972 l 981 972 l 981 0 z "},"N":{"ha":983,"x_min":136,"x_max":847,"o":"m 847 0 l 731 0 l 293 694 q 254 763 268 735 q 257 694 257 721 l 257 0 l 136 0 l 136 972 l 258 972 l 689 281 q 729 208 711 244 q 726 279 726 258 l 726 972 l 847 972 l 847 0 z "},"O":{"ha":1014,"x_min":94,"x_max":921,"o":"m 507 -17 q 315 27 397 -17 q 185 145 232 71 q 117 305 139 219 q 94 486 94 390 q 117 667 94 582 q 185 827 139 753 q 315 945 232 901 q 507 989 397 989 q 667 960 596 989 q 785 882 739 931 q 863 767 832 833 q 908 631 894 700 q 921 486 921 561 q 908 342 921 411 q 863 206 894 272 q 785 90 832 139 q 667 13 739 42 q 507 -17 596 -17 m 373 131 q 402 114 373 131 q 507 97 431 97 q 642 133 583 97 q 732 226 700 168 q 779 351 764 285 q 794 486 794 417 q 769 673 794 589 q 676 817 743 757 q 507 876 608 876 q 373 841 431 876 q 283 747 315 806 q 235 622 251 688 q 219 486 219 557 q 235 344 219 411 q 283 221 250 278 q 373 131 315 164 z "},"P":{"ha":875,"x_min":136,"x_max":822,"o":"m 136 0 l 136 972 l 508 972 q 656 947 593 972 q 754 880 719 922 q 806 788 789 838 q 822 681 822 738 q 744 478 822 565 q 508 390 665 390 l 257 390 l 257 0 l 136 0 m 517 503 q 656 556 611 503 q 701 681 701 608 q 658 806 701 751 q 517 860 615 860 l 257 860 l 257 503 l 517 503 z "},"Q":{"ha":1014,"x_min":94,"x_max":921,"o":"m 507 -17 q 315 27 397 -17 q 185 145 232 71 q 117 305 139 219 q 94 486 94 390 q 117 667 94 582 q 185 827 139 753 q 315 945 232 901 q 507 989 397 989 q 667 960 596 989 q 785 882 739 931 q 863 767 832 833 q 908 631 894 700 q 921 486 921 561 q 772 79 921 217 l 846 -29 l 757 -92 l 682 19 q 507 -17 606 -17 m 507 97 q 614 119 569 97 l 544 224 l 636 286 l 703 186 q 794 486 794 296 q 769 673 794 589 q 676 817 743 757 q 507 876 608 876 q 373 841 431 876 q 283 747 315 806 q 235 622 251 688 q 219 486 219 557 q 235 344 219 411 q 283 221 250 278 q 373 131 315 164 q 507 97 431 97 z "},"R":{"ha":924,"x_min":136,"x_max":826,"o":"m 136 0 l 136 972 l 519 972 q 753 893 681 972 q 826 696 826 814 q 770 524 826 600 q 600 425 714 449 l 808 0 l 672 0 l 472 417 l 257 417 l 257 0 l 136 0 m 257 529 l 522 529 q 660 576 617 529 q 704 693 704 624 q 662 810 704 760 q 522 860 619 860 l 257 860 l 257 529 z "},"S":{"ha":832,"x_min":81,"x_max":739,"o":"m 419 -17 q 205 44 296 -17 q 81 200 114 104 l 194 242 q 285 136 225 175 q 422 97 344 97 q 563 140 511 97 q 614 261 614 182 q 556 383 614 338 q 394 467 499 429 q 312 499 344 485 q 237 538 279 513 q 169 591 194 564 q 127 659 144 618 q 110 749 110 700 q 190 919 110 850 q 408 989 271 989 q 596 941 521 989 q 693 815 671 893 l 582 778 q 515 849 563 821 q 400 876 468 876 q 279 842 324 876 q 235 749 235 808 q 251 690 235 717 q 301 643 267 664 q 364 610 335 622 q 444 578 393 597 q 550 533 508 554 q 640 475 592 511 q 714 385 689 439 q 739 264 739 332 q 650 58 739 133 q 419 -17 561 -17 z "},"T":{"ha":810,"x_min":74,"x_max":736,"o":"m 465 857 l 465 0 l 344 0 l 344 857 l 74 857 l 74 972 l 736 972 l 736 857 l 465 857 z "},"U":{"ha":957,"x_min":129,"x_max":828,"o":"m 478 -17 q 129 365 129 -17 l 129 972 l 250 972 l 250 365 q 311 157 250 217 q 478 97 372 97 q 645 157 583 97 q 707 365 707 217 l 707 972 l 828 972 l 828 365 q 478 -17 828 -17 z "},"V":{"ha":906,"x_min":67,"x_max":839,"o":"m 400 0 l 67 972 l 196 972 l 428 269 q 457 171 453 185 q 485 269 463 197 l 710 972 l 839 972 l 507 0 l 400 0 z "},"W":{"ha":1167,"x_min":69,"x_max":1097,"o":"m 268 0 l 69 972 l 196 972 l 315 339 q 333 235 328 276 q 360 338 333 236 l 532 972 l 628 972 l 801 339 q 824 244 818 276 q 842 340 829 281 l 974 972 l 1097 972 l 886 0 l 790 0 l 603 664 q 578 760 582 740 q 554 664 571 722 l 367 0 l 268 0 z "},"X":{"ha":842,"x_min":65,"x_max":778,"o":"m 642 0 l 418 393 l 200 0 l 65 0 l 354 503 l 86 972 l 222 972 l 422 621 l 619 972 l 753 972 l 486 510 l 778 0 l 642 0 z "},"Y":{"ha":890,"x_min":56,"x_max":835,"o":"m 386 0 l 386 382 l 56 972 l 192 972 l 446 500 l 703 972 l 835 972 l 507 385 l 507 0 l 386 0 z "},"Z":{"ha":903,"x_min":88,"x_max":808,"o":"m 88 0 l 88 93 l 651 857 l 119 857 l 119 972 l 808 972 l 808 879 l 247 115 l 808 115 l 808 0 l 88 0 z "},"[":{"ha":522,"x_min":150,"x_max":456,"o":"m 150 -181 l 150 989 l 456 989 l 456 878 l 271 878 l 271 -69 l 456 -69 l 456 -181 l 150 -181 z "},"\\":{"ha":681,"x_min":-11,"x_max":656,"o":"m 536 -181 l -11 989 l 110 989 l 656 -181 l 536 -181 z "},"]":{"ha":522,"x_min":67,"x_max":372,"o":"m 372 -181 l 67 -181 l 67 -69 l 251 -69 l 251 878 l 67 878 l 67 989 l 372 989 l 372 -181 z "},"^":{"ha":896,"x_min":118,"x_max":778,"o":"m 654 494 l 449 838 l 243 494 l 118 494 l 390 989 l 504 989 l 778 494 l 654 494 z "},"_":{"ha":715,"x_min":4,"x_max":713,"o":"m 4 -246 l 4 -131 l 713 -131 l 713 -246 l 4 -246 z "},"`":{"ha":511,"x_min":44,"x_max":414,"o":"m 292 800 l 44 1017 l 217 1017 l 414 800 l 292 800 z "},"a":{"ha":731,"x_min":74,"x_max":636,"o":"m 522 0 l 522 65 q 321 -17 435 -17 q 141 45 208 -17 q 74 222 74 107 q 150 397 74 338 q 339 457 226 457 q 522 411 442 457 l 522 461 q 483 585 522 550 q 368 621 443 621 q 161 550 261 621 l 126 651 q 383 726 240 726 q 636 471 636 726 l 636 0 l 522 0 m 339 90 q 522 183 443 90 l 522 306 q 356 353 446 353 q 235 319 282 353 q 188 222 188 286 q 227 126 188 163 q 339 90 267 90 z "},"b":{"ha":781,"x_min":115,"x_max":708,"o":"m 418 -17 q 236 61 317 -17 l 236 0 l 115 0 l 115 946 l 236 1003 l 236 649 q 414 726 307 726 q 628 628 547 726 q 708 356 708 529 q 631 80 708 176 q 418 -17 554 -17 m 401 96 q 538 165 492 96 q 585 356 585 233 q 538 549 585 482 q 401 615 492 615 q 301 586 346 615 q 236 521 257 557 l 236 192 q 307 122 263 147 q 401 96 351 96 z "},"c":{"ha":694,"x_min":74,"x_max":628,"o":"m 368 -17 q 153 81 232 -17 q 74 354 74 179 q 153 628 74 529 q 374 726 233 726 q 622 561 563 726 l 508 519 q 375 614 472 614 q 242 546 286 614 q 197 354 197 478 q 242 165 197 232 q 371 97 286 97 q 515 203 482 97 l 628 165 q 534 31 601 78 q 368 -17 467 -17 z "},"d":{"ha":781,"x_min":74,"x_max":667,"o":"m 367 -17 q 153 83 232 -17 q 74 356 74 183 q 153 628 74 529 q 367 726 233 726 q 546 660 471 726 l 546 946 l 667 1003 l 667 0 l 546 0 l 546 56 q 367 -17 476 -17 m 383 96 q 546 192 489 96 l 546 525 q 383 615 489 615 q 244 548 293 615 q 196 356 196 481 q 247 169 196 243 q 383 96 297 96 z "},"e":{"ha":747,"x_min":74,"x_max":682,"o":"m 389 -17 q 159 87 244 -17 q 74 356 74 190 q 160 628 74 529 q 389 726 246 726 q 599 641 517 726 q 682 389 682 556 q 678 308 682 350 l 197 308 q 258 152 204 211 q 392 93 311 93 q 544 157 481 93 l 618 75 q 389 -17 526 -17 m 196 411 l 560 411 q 508 570 558 521 q 389 619 457 619 q 254 567 307 619 q 196 411 201 515 z "},"f":{"ha":463,"x_min":46,"x_max":442,"o":"m 276 604 l 276 0 l 156 0 l 156 604 l 46 604 l 46 710 l 156 710 l 156 828 q 200 951 156 914 q 310 989 244 989 q 442 956 379 989 l 442 854 q 340 881 385 881 q 289 861 301 881 q 276 807 276 842 l 276 710 l 442 710 l 442 604 l 276 604 z "},"g":{"ha":782,"x_min":74,"x_max":668,"o":"m 333 -287 l 275 -193 q 488 -140 429 -185 q 547 -17 547 -94 l 547 69 q 364 -17 485 -17 q 156 81 239 -17 q 74 356 74 178 q 155 627 74 528 q 368 726 236 726 q 547 651 479 726 l 547 710 l 668 710 l 668 29 q 581 -206 668 -133 q 333 -287 494 -278 m 389 96 q 477 123 433 96 q 547 196 521 150 l 547 521 q 476 589 522 563 q 389 615 431 615 q 245 548 294 615 q 196 356 196 481 q 249 165 196 235 q 389 96 303 96 z "},"h":{"ha":782,"x_min":115,"x_max":674,"o":"m 115 0 l 115 947 l 236 1003 l 236 636 q 419 726 301 726 q 609 651 544 726 q 674 408 674 575 l 674 0 l 553 0 l 553 429 q 512 570 553 525 q 400 615 471 615 q 236 432 236 615 l 236 0 l 115 0 z "},"i":{"ha":353,"x_min":101,"x_max":253,"o":"m 231 860 q 219 850 231 860 q 176 839 208 839 q 123 861 144 839 q 101 914 101 883 q 124 969 101 946 q 176 992 146 992 q 231 969 208 992 q 253 914 253 946 q 231 860 253 882 m 117 0 l 117 710 l 238 710 l 238 0 l 117 0 z "},"j":{"ha":353,"x_min":-65,"x_max":253,"o":"m 231 860 q 220 850 231 860 q 178 839 210 839 q 124 860 146 839 q 101 914 101 882 q 124 969 101 946 q 178 992 146 992 q 231 969 210 992 q 253 914 253 946 q 231 860 253 882 m -8 -297 l -65 -206 q 77 -153 38 -189 q 117 -50 117 -117 l 117 710 l 238 710 l 238 -6 q 185 -197 238 -135 q -8 -297 118 -279 z "},"k":{"ha":738,"x_min":115,"x_max":692,"o":"m 692 0 l 560 0 l 340 429 l 236 321 l 236 0 l 115 0 l 115 946 l 236 1003 l 236 465 l 467 710 l 611 710 l 425 517 l 692 0 z "},"l":{"ha":364,"x_min":122,"x_max":243,"o":"m 122 0 l 122 946 l 243 1003 l 243 0 l 122 0 z "},"m":{"ha":1175,"x_min":115,"x_max":1068,"o":"m 947 0 l 947 431 q 804 615 947 615 q 694 563 736 615 q 651 426 651 511 l 651 0 l 531 0 l 531 431 q 389 615 531 615 q 277 566 318 615 q 236 432 236 517 l 236 0 l 115 0 l 115 710 l 236 710 l 236 643 q 422 726 299 726 q 533 699 482 726 q 613 622 583 672 q 818 726 681 726 q 999 658 929 726 q 1068 465 1068 590 l 1068 0 l 947 0 z "},"n":{"ha":782,"x_min":115,"x_max":674,"o":"m 553 0 l 553 429 q 512 570 553 525 q 400 615 471 615 q 236 432 236 615 l 236 0 l 115 0 l 115 710 l 236 710 l 236 638 q 419 726 301 726 q 609 651 544 726 q 674 408 674 575 l 674 0 l 553 0 z "},"o":{"ha":775,"x_min":74,"x_max":701,"o":"m 617 83 q 574 33 617 83 q 388 -17 532 -17 q 158 82 243 -17 q 74 354 74 181 q 158 627 74 528 q 388 726 243 726 q 617 628 532 726 q 701 356 701 529 q 617 83 701 182 m 247 165 q 272 130 247 165 q 388 96 297 96 q 528 165 478 96 q 579 356 579 233 q 528 546 579 476 q 388 615 478 615 q 247 547 297 615 q 196 354 196 478 q 247 165 196 233 z "},"p":{"ha":783,"x_min":115,"x_max":711,"o":"m 418 -17 q 236 67 307 -17 l 236 -224 l 115 -281 l 115 710 l 236 710 l 236 650 q 418 726 313 726 q 632 626 553 726 q 711 356 711 526 q 631 83 711 182 q 418 -17 550 -17 m 403 96 q 540 163 492 96 q 588 356 588 231 q 538 544 588 474 q 403 615 489 615 q 236 519 290 615 l 236 192 q 403 96 310 96 z "},"q":{"ha":782,"x_min":74,"x_max":668,"o":"m 368 -17 q 153 82 233 -17 q 74 354 74 181 q 151 626 74 526 q 364 726 229 726 q 547 650 463 726 l 547 710 l 668 710 l 668 -224 l 547 -278 l 547 67 q 368 -17 474 -17 m 379 96 q 547 193 472 96 l 547 519 q 379 615 490 615 q 245 542 294 615 q 196 354 196 468 q 243 163 196 229 q 379 96 290 96 z "},"r":{"ha":540,"x_min":115,"x_max":514,"o":"m 115 0 l 115 710 l 236 710 l 236 617 q 404 726 286 726 q 514 690 471 726 l 496 576 q 394 607 451 607 q 284 558 332 607 q 236 400 236 510 l 236 0 l 115 0 z "},"s":{"ha":651,"x_min":68,"x_max":578,"o":"m 325 -17 q 180 16 249 -17 q 68 103 111 49 l 154 176 q 328 92 233 92 q 424 115 388 92 q 460 182 460 138 q 433 242 460 215 q 379 283 407 269 q 297 317 351 296 q 133 407 189 357 q 78 539 78 457 q 145 676 78 625 q 317 726 213 726 q 556 619 465 726 l 472 550 q 315 618 407 618 q 229 597 261 618 q 197 539 197 576 q 208 501 197 518 q 245 468 218 483 q 288 445 272 453 q 347 421 304 438 q 519 329 460 381 q 578 185 578 278 q 510 37 578 90 q 325 -17 442 -17 z "},"t":{"ha":519,"x_min":42,"x_max":457,"o":"m 307 -17 q 157 153 157 -17 l 157 604 l 42 604 l 42 710 l 157 710 l 157 944 l 278 1003 l 278 710 l 453 710 l 453 604 l 278 604 l 278 193 q 293 121 278 146 q 351 96 308 96 q 457 133 399 96 l 443 15 q 307 -17 382 -17 z "},"u":{"ha":782,"x_min":108,"x_max":667,"o":"m 546 0 l 546 68 q 367 -17 481 -17 q 173 58 238 -17 q 108 300 108 133 l 108 710 l 229 710 l 229 282 q 270 141 229 186 q 382 96 311 96 q 546 279 546 96 l 546 710 l 667 710 l 667 0 l 546 0 z "},"v":{"ha":711,"x_min":46,"x_max":667,"o":"m 306 0 l 46 710 l 168 710 l 336 236 q 358 167 354 183 q 381 236 363 183 l 546 710 l 667 710 l 407 0 l 306 0 z "},"w":{"ha":993,"x_min":53,"x_max":942,"o":"m 235 0 l 53 710 l 172 710 l 281 233 q 288 199 282 225 q 296 158 293 172 q 314 233 299 178 l 447 710 l 547 710 l 681 233 l 700 156 q 708 194 703 168 q 715 233 713 221 l 822 710 l 942 710 l 760 0 l 651 0 l 522 421 q 496 514 503 483 q 471 421 482 456 l 343 0 l 235 0 z "},"x":{"ha":717,"x_min":53,"x_max":665,"o":"m 53 0 l 290 369 l 71 710 l 206 710 l 318 538 q 358 469 350 486 q 400 538 392 525 l 511 710 l 647 710 l 426 369 l 665 0 l 529 0 l 399 201 q 358 269 383 225 q 318 201 346 244 l 188 0 l 53 0 z "},"y":{"ha":736,"x_min":46,"x_max":690,"o":"m 200 -269 l 308 18 l 46 710 l 167 710 l 343 226 q 365 158 353 203 q 388 226 378 203 l 567 710 l 690 710 l 322 -269 l 200 -269 z "},"z":{"ha":701,"x_min":88,"x_max":608,"o":"m 88 0 l 88 89 l 457 603 l 115 603 l 115 710 l 608 710 l 608 624 l 238 108 l 607 108 l 607 0 l 88 0 z "},"{":{"ha":517,"x_min":74,"x_max":458,"o":"m 458 -181 q 255 -96 329 -178 q 181 142 181 -14 l 181 218 q 156 317 181 279 q 86 354 131 354 l 74 354 l 74 457 l 86 457 q 156 494 131 457 q 181 592 181 531 l 181 667 q 255 904 181 822 q 458 989 329 986 l 458 885 q 342 833 381 882 q 303 693 303 783 l 303 608 q 269 458 303 501 q 161 404 235 414 q 269 353 235 396 q 303 200 303 310 l 303 117 q 458 -76 303 -71 l 458 -181 z "},"|":{"ha":378,"x_min":129,"x_max":250,"o":"m 129 -525 l 129 1475 l 250 1475 l 250 -525 l 129 -525 z "},"}":{"ha":517,"x_min":60,"x_max":444,"o":"m 60 -181 l 60 -76 q 214 117 214 -69 l 214 200 q 248 353 214 310 q 356 404 282 396 q 248 458 282 414 q 214 608 214 501 l 214 693 q 60 885 214 878 l 60 989 q 262 904 188 986 q 336 667 336 822 l 336 592 q 362 494 336 531 q 431 457 388 457 l 444 457 l 444 354 l 431 354 q 362 317 388 354 q 336 218 336 279 l 336 142 q 262 -96 336 -14 q 60 -181 188 -178 z "},"~":{"ha":896,"x_min":124,"x_max":774,"o":"m 594 376 q 435 418 532 376 q 299 460 339 460 q 231 437 257 460 q 203 376 206 414 l 124 376 q 167 519 124 463 q 303 576 211 576 q 463 534 367 576 q 597 492 560 492 q 665 515 639 492 q 693 576 690 539 l 774 576 q 730 433 774 490 q 594 376 686 376 z "}," ":{"ha":326,"x_min":0,"x_max":0,"o":""},"¡":{"ha":376,"x_min":94,"x_max":286,"o":"m 258 566 q 244 552 258 566 q 190 538 231 538 q 122 565 150 538 q 94 632 94 593 q 122 699 94 671 q 190 726 150 726 q 258 698 231 726 q 286 632 286 669 q 258 566 286 594 m 250 -278 l 128 -278 l 128 25 l 169 440 l 208 440 l 250 25 l 250 -278 z "},"¢":{"ha":715,"x_min":81,"x_max":635,"o":"m 307 -17 l 307 122 q 140 241 200 146 q 81 486 81 336 q 140 730 81 636 q 307 849 200 824 l 307 989 l 425 989 l 425 854 q 632 690 581 836 l 515 649 q 388 740 481 740 q 251 674 299 740 q 204 486 204 607 q 250 299 204 365 q 381 232 296 232 q 469 260 432 232 q 519 338 506 288 l 635 300 q 425 118 586 135 l 425 -17 l 307 -17 z "},"£":{"ha":829,"x_min":115,"x_max":776,"o":"m 122 0 l 122 128 q 212 228 183 156 q 244 378 240 300 l 244 406 l 115 406 l 115 508 l 217 508 q 206 531 214 514 q 194 556 197 549 q 183 579 190 563 q 173 608 176 596 q 165 638 169 621 q 160 675 161 656 q 158 715 158 694 q 240 909 158 829 q 475 989 322 989 q 761 896 638 989 l 714 782 q 660 824 682 808 q 588 856 639 839 q 475 874 536 874 q 334 826 382 874 q 286 715 286 779 q 319 590 286 664 q 353 508 351 515 l 582 508 l 582 406 l 372 406 l 372 381 q 247 115 365 226 l 776 115 l 776 0 l 122 0 z "},"¤":{"ha":879,"x_min":61,"x_max":818,"o":"m 439 119 q 243 176 324 119 l 151 83 l 61 175 l 157 272 q 111 463 111 350 q 157 656 111 572 l 61 751 l 147 840 l 240 747 q 439 807 325 807 q 636 749 554 807 l 728 840 l 818 747 l 725 654 q 769 463 769 569 q 721 268 769 349 l 818 171 l 732 83 l 638 178 q 439 119 556 119 m 439 236 q 590 299 532 236 q 647 463 647 363 q 590 626 647 561 q 439 692 532 692 q 291 626 349 692 q 233 463 233 561 q 290 299 233 363 q 439 236 347 236 z "},"¥":{"ha":786,"x_min":32,"x_max":754,"o":"m 454 443 l 658 443 l 658 339 l 453 339 l 453 247 l 658 247 l 658 143 l 453 143 l 453 0 l 332 0 l 332 143 l 117 143 l 117 247 l 332 247 l 332 339 l 117 339 l 117 443 l 329 443 l 32 972 l 168 972 l 392 557 l 622 972 l 754 972 l 454 443 z "},"¦":{"ha":378,"x_min":129,"x_max":250,"o":"m 129 508 l 129 1146 l 250 1146 l 250 508 l 129 508 m 129 -312 l 129 325 l 250 325 l 250 -312 l 129 -312 z "},"§":{"ha":740,"x_min":81,"x_max":661,"o":"m 375 -167 q 199 -131 276 -167 q 81 -43 121 -96 l 169 36 q 372 -50 249 -50 q 535 60 535 -50 q 522 108 535 86 q 478 150 508 131 q 426 181 447 169 q 358 210 404 192 q 296 235 311 228 q 219 270 244 257 q 160 308 194 283 q 112 366 126 333 q 97 443 97 399 q 124 534 97 494 q 196 593 151 574 q 97 779 97 653 q 174 933 97 876 q 365 989 250 989 q 633 876 542 989 l 540 803 q 365 871 475 871 q 224 775 224 871 q 231 743 224 758 q 255 714 238 728 q 287 690 272 700 q 333 667 301 681 q 383 646 365 653 q 440 624 400 639 q 508 597 483 607 q 565 565 532 586 q 617 523 599 544 q 648 468 635 501 q 661 393 661 435 q 576 244 661 286 q 661 64 661 179 q 585 -106 661 -46 q 375 -167 510 -167 m 472 299 q 535 385 535 325 q 522 426 535 407 q 494 458 510 446 q 444 487 479 471 q 389 510 410 503 q 321 535 368 518 q 249 505 275 528 q 224 447 224 482 q 231 418 224 432 q 252 392 238 404 q 282 372 267 381 q 323 352 297 363 q 368 335 349 342 q 420 317 388 328 q 472 299 453 306 z "},"¨":{"ha":511,"x_min":60,"x_max":453,"o":"m 190 854 q 179 843 190 854 q 136 832 168 832 q 82 854 104 832 q 60 908 60 876 q 82 963 60 940 q 136 985 104 985 q 190 963 168 985 q 213 908 213 940 q 190 854 213 876 m 431 854 q 419 843 431 854 q 376 832 408 832 q 322 854 344 832 q 300 908 300 876 q 322 963 300 940 q 376 985 344 985 q 431 963 408 985 q 453 908 453 940 q 431 854 453 876 z "},"©":{"ha":1193,"x_min":94,"x_max":1100,"o":"m 956 128 q 883 56 956 128 q 597 -17 811 -17 q 239 128 383 -17 q 94 486 94 272 q 239 844 94 700 q 597 989 383 989 q 956 844 811 989 q 1100 486 1100 700 q 956 128 1100 272 m 304 190 q 363 130 304 190 q 597 71 421 71 q 890 190 774 71 q 1006 486 1006 308 q 890 783 1006 664 q 597 901 774 901 q 304 783 421 901 q 188 486 188 664 q 304 190 188 308 m 604 188 q 419 272 482 188 q 356 490 356 356 q 421 706 356 619 q 610 793 486 793 q 738 755 685 793 q 814 654 790 717 l 725 614 q 603 697 686 697 q 456 490 456 697 q 606 282 456 282 q 731 374 699 282 l 817 342 q 738 228 793 269 q 604 188 682 188 z "},"ª":{"ha":625,"x_min":60,"x_max":538,"o":"m 429 393 l 429 435 q 269 379 363 379 q 117 431 175 379 q 60 576 60 482 q 128 720 60 669 q 286 771 196 771 q 429 740 364 771 l 429 763 q 399 863 429 833 q 301 892 369 892 q 139 839 206 892 l 108 932 q 315 989 185 989 q 393 982 360 989 q 463 954 426 975 q 518 888 499 933 q 538 772 538 842 l 538 393 l 429 393 m 286 475 q 364 493 324 475 q 429 535 404 511 l 429 644 q 301 675 371 675 q 210 651 247 675 q 172 576 172 626 q 203 502 172 529 q 286 475 233 475 z "},"«":{"ha":715,"x_min":53,"x_max":685,"o":"m 264 0 l 53 356 l 264 710 l 396 710 l 185 356 l 396 0 l 264 0 m 550 0 l 339 356 l 550 710 l 685 710 l 474 356 l 685 0 l 550 0 z "},"¬":{"ha":896,"x_min":122,"x_max":775,"o":"m 653 239 l 653 535 l 122 535 l 122 650 l 775 650 l 775 239 l 653 239 z "},"­":{"ha":554,"x_min":115,"x_max":440,"o":"m 115 356 l 115 472 l 440 472 l 440 356 l 115 356 z "},"®":{"ha":1193,"x_min":94,"x_max":1100,"o":"m 956 128 q 883 56 956 128 q 597 -17 811 -17 q 239 128 383 -17 q 94 486 94 272 q 239 844 94 700 q 597 989 383 989 q 956 844 811 989 q 1100 486 1100 700 q 956 128 1100 272 m 304 190 q 363 130 304 190 q 597 71 421 71 q 890 190 774 71 q 1006 486 1006 308 q 890 783 1006 664 q 597 901 774 901 q 304 783 421 901 q 188 486 188 664 q 304 190 188 308 m 392 192 l 392 779 l 651 779 q 785 728 742 779 q 828 607 828 676 q 792 498 828 547 q 694 435 757 449 l 832 192 l 721 192 l 596 429 l 489 429 l 489 192 l 392 192 m 489 517 l 653 517 q 711 542 692 517 q 731 606 731 567 q 712 663 731 639 q 653 688 693 688 l 489 688 l 489 517 z "},"¯":{"ha":511,"x_min":26,"x_max":485,"o":"m 26 838 l 26 940 l 485 940 l 485 838 l 26 838 z "},"°":{"ha":568,"x_min":44,"x_max":524,"o":"m 454 696 q 419 662 454 696 q 285 628 385 628 q 115 696 185 628 q 44 864 44 764 q 114 1033 44 965 q 285 1100 183 1100 q 455 1033 386 1100 q 524 864 524 965 q 454 696 524 764 m 285 742 q 367 776 335 742 q 400 864 400 811 q 367 952 400 918 q 285 986 335 986 q 201 951 235 986 q 167 864 167 917 q 201 777 167 813 q 285 742 236 742 z "},"±":{"ha":896,"x_min":122,"x_max":775,"o":"m 508 504 l 508 281 l 386 281 l 386 504 l 122 504 l 122 621 l 386 621 l 386 844 l 508 844 l 508 621 l 775 621 l 775 504 l 508 504 m 122 0 l 122 117 l 775 117 l 775 0 l 122 0 z "},"²":{"ha":506,"x_min":46,"x_max":442,"o":"m 46 617 q 98 795 46 726 q 250 924 150 864 q 317 976 294 950 q 339 1042 339 1001 q 315 1099 339 1074 q 244 1124 290 1124 q 138 1029 157 1124 l 46 1057 q 115 1169 61 1126 q 250 1213 169 1213 q 389 1165 336 1213 q 442 1038 442 1117 q 403 924 442 967 q 282 833 365 881 q 158 708 188 779 l 440 708 l 440 617 l 46 617 z "},"³":{"ha":496,"x_min":32,"x_max":447,"o":"m 244 604 q 112 646 167 604 q 32 761 57 688 l 128 793 q 246 693 160 693 q 317 717 290 693 q 343 782 343 742 q 318 846 343 819 q 250 872 293 872 l 204 872 l 204 961 l 240 961 q 301 985 281 961 q 321 1043 321 1008 q 299 1101 321 1078 q 240 1124 278 1124 q 140 1046 172 1124 l 49 1078 q 125 1176 74 1139 q 244 1213 176 1213 q 375 1167 325 1213 q 425 1050 425 1121 q 405 978 425 1014 q 351 925 385 943 q 421 872 394 908 q 447 786 447 835 q 391 653 447 703 q 244 604 335 604 z "},"´":{"ha":511,"x_min":100,"x_max":469,"o":"m 100 800 l 297 1017 l 469 1017 l 222 800 l 100 800 z "},"µ":{"ha":785,"x_min":111,"x_max":671,"o":"m 550 0 l 550 69 q 368 -17 474 -17 q 232 54 279 -17 l 232 -221 l 111 -278 l 111 710 l 232 710 l 232 282 q 270 135 232 175 q 386 96 308 96 q 550 279 550 96 l 550 710 l 671 710 l 671 0 l 550 0 z "},"¶":{"ha":876,"x_min":39,"x_max":754,"o":"m 381 -278 l 381 385 q 123 474 207 385 q 39 681 39 563 q 56 788 39 738 q 108 880 72 838 q 208 947 144 922 q 357 972 271 972 l 754 972 l 754 -121 l 633 -176 l 633 854 l 503 854 l 503 -224 l 381 -278 z "},"·":{"ha":313,"x_min":60,"x_max":253,"o":"m 224 419 q 210 405 224 419 q 156 390 196 390 q 88 419 115 390 q 60 485 60 447 q 88 552 60 524 q 156 581 115 581 q 224 551 196 581 q 253 485 253 522 q 224 419 253 447 z "},"¸":{"ha":511,"x_min":125,"x_max":422,"o":"m 256 -329 q 125 -283 174 -329 l 193 -236 q 244 -254 207 -254 q 296 -235 275 -254 q 317 -187 317 -217 q 292 -143 317 -161 q 236 -125 268 -125 q 183 -135 203 -125 l 161 -107 l 257 14 l 325 14 l 272 -74 q 385 -107 349 -74 q 422 -189 422 -140 q 376 -290 422 -250 q 256 -329 329 -329 z "},"¹":{"ha":278,"x_min":25,"x_max":194,"o":"m 96 617 l 96 1074 l 25 1074 l 25 1146 q 119 1203 96 1146 l 194 1203 l 194 617 l 96 617 z "},"º":{"ha":649,"x_min":60,"x_max":589,"o":"m 324 379 q 131 460 201 379 q 60 683 60 540 q 131 908 60 826 q 324 989 201 989 q 517 908 446 989 q 589 683 589 826 q 518 460 589 540 q 324 379 447 379 m 324 483 q 438 535 399 483 q 478 683 478 588 q 438 833 478 781 q 324 885 399 885 q 212 832 253 885 q 171 683 171 779 q 212 536 171 589 q 324 483 253 483 z "},"»":{"ha":715,"x_min":32,"x_max":664,"o":"m 32 0 l 243 356 l 32 710 l 164 710 l 375 356 l 164 0 l 32 0 m 318 0 l 529 356 l 318 710 l 453 710 l 664 356 l 453 0 l 318 0 z "},"¼":{"ha":944,"x_min":17,"x_max":901,"o":"m 17 -17 l 681 989 l 794 989 l 131 -17 l 17 -17 m 106 393 l 106 850 l 35 850 l 35 922 q 131 979 107 922 l 206 979 l 206 393 l 106 393 m 731 0 l 731 135 l 438 135 l 438 193 l 742 588 l 828 588 l 828 226 l 901 226 l 901 135 l 828 135 l 828 0 l 731 0 m 731 226 l 731 444 l 565 226 l 731 226 z "},"½":{"ha":1010,"x_min":17,"x_max":946,"o":"m 17 -17 l 681 989 l 794 989 l 131 -17 l 17 -17 m 106 393 l 106 850 l 35 850 l 35 922 q 131 979 107 922 l 206 979 l 206 393 l 106 393 m 550 0 q 602 178 550 110 q 754 307 654 247 q 821 359 799 333 q 843 425 843 385 q 819 482 843 457 q 749 507 794 507 q 642 413 661 507 l 550 440 q 619 553 565 510 q 754 596 674 596 q 893 548 840 596 q 946 421 946 500 q 908 307 946 350 q 786 217 869 264 q 663 93 692 163 l 944 93 l 944 0 l 550 0 z "},"¾":{"ha":1128,"x_min":32,"x_max":1085,"o":"m 244 379 q 112 421 167 379 q 32 536 57 463 l 128 568 q 246 468 160 468 q 317 492 290 468 q 343 557 343 517 q 318 622 343 594 q 250 649 293 649 l 204 649 l 204 738 l 240 738 q 301 761 281 738 q 321 819 321 785 q 299 877 321 854 q 240 900 278 900 q 140 822 172 900 l 49 854 q 125 952 74 915 q 244 989 176 989 q 375 943 325 989 q 425 826 425 897 q 405 755 425 790 q 351 701 385 719 q 421 648 394 685 q 447 563 447 611 q 391 428 447 478 q 244 379 335 379 m 200 -17 l 864 989 l 978 989 l 314 -17 l 200 -17 m 913 0 l 913 135 l 619 135 l 619 193 l 925 588 l 1011 588 l 1011 226 l 1085 226 l 1085 135 l 1011 135 l 1011 0 l 913 0 m 913 226 l 913 444 l 747 226 l 913 226 z "},"¿":{"ha":714,"x_min":60,"x_max":675,"o":"m 443 565 q 428 551 443 565 q 374 538 414 538 q 306 565 333 538 q 278 631 278 592 q 306 698 278 669 q 374 726 333 726 q 442 697 413 726 q 472 631 472 668 q 443 565 472 593 m 353 -278 q 137 -203 214 -278 q 60 -8 60 -128 q 85 103 60 54 q 148 184 111 151 q 222 249 185 217 q 284 327 258 281 q 310 433 310 374 l 310 461 l 432 461 l 432 432 q 413 319 432 369 q 367 241 394 269 q 306 183 339 213 q 246 131 274 154 q 199 72 218 108 q 181 -8 181 36 q 226 -123 181 -79 q 353 -167 271 -167 q 500 -112 447 -167 q 553 39 553 -58 l 675 39 q 585 -192 675 -106 q 353 -278 496 -278 z "},"À":{"ha":943,"x_min":71,"x_max":872,"o":"m 507 1063 l 260 1279 l 432 1279 l 629 1063 l 507 1063 m 749 0 l 665 238 l 279 238 l 197 0 l 71 0 l 415 972 l 528 972 l 872 0 l 749 0 m 628 344 l 503 704 q 472 803 479 772 q 442 704 457 749 l 315 344 l 628 344 z "},"Á":{"ha":943,"x_min":71,"x_max":872,"o":"m 329 1063 l 526 1279 l 699 1279 l 451 1063 l 329 1063 m 749 0 l 665 238 l 279 238 l 197 0 l 71 0 l 415 972 l 528 972 l 872 0 l 749 0 m 628 344 l 503 704 q 472 803 479 772 q 442 704 457 749 l 315 344 l 628 344 z "},"Â":{"ha":943,"x_min":71,"x_max":872,"o":"m 618 1063 l 472 1188 l 326 1063 l 211 1063 l 415 1279 l 529 1279 l 732 1063 l 618 1063 m 749 0 l 665 238 l 279 238 l 197 0 l 71 0 l 415 972 l 528 972 l 872 0 l 749 0 m 628 344 l 503 704 q 472 803 479 772 q 442 704 457 749 l 315 344 l 628 344 z "},"Ã":{"ha":943,"x_min":71,"x_max":872,"o":"m 581 1089 q 455 1123 528 1089 q 351 1157 382 1157 q 306 1141 324 1157 q 286 1094 288 1125 l 224 1094 q 361 1261 224 1261 q 487 1226 414 1261 q 590 1192 560 1192 q 635 1208 617 1192 q 656 1256 654 1225 l 718 1256 q 581 1089 718 1089 m 749 0 l 665 238 l 279 238 l 197 0 l 71 0 l 415 972 l 528 972 l 872 0 l 749 0 m 628 344 l 503 704 q 472 803 479 772 q 442 704 457 749 l 315 344 l 628 344 z "},"Ä":{"ha":943,"x_min":71,"x_max":872,"o":"m 406 1117 q 394 1106 406 1117 q 351 1094 383 1094 q 297 1117 319 1094 q 275 1171 275 1139 q 297 1225 275 1203 q 351 1247 319 1247 q 406 1225 383 1247 q 428 1171 428 1203 q 406 1117 428 1139 m 646 1117 q 635 1106 646 1117 q 592 1094 624 1094 q 538 1117 560 1094 q 515 1171 515 1139 q 538 1225 515 1203 q 592 1247 560 1247 q 646 1225 624 1247 q 668 1171 668 1203 q 646 1117 668 1139 m 749 0 l 665 238 l 279 238 l 197 0 l 71 0 l 415 972 l 528 972 l 872 0 l 749 0 m 628 344 l 503 704 q 472 803 479 772 q 442 704 457 749 l 315 344 l 628 344 z "},"Å":{"ha":943,"x_min":71,"x_max":872,"o":"m 71 0 l 388 894 q 308 1035 308 944 q 357 1149 308 1101 q 474 1196 406 1196 q 590 1149 540 1196 q 639 1035 639 1101 q 616 953 639 990 q 556 894 593 915 l 872 0 l 749 0 l 665 238 l 279 238 l 197 0 l 71 0 m 424 981 q 434 970 424 981 q 474 960 444 960 q 523 981 503 960 q 543 1035 543 1003 q 523 1087 543 1065 q 474 1108 503 1108 q 424 1087 444 1108 q 404 1035 404 1065 q 424 981 404 1003 m 315 344 l 628 344 l 503 704 q 472 803 479 772 q 442 704 457 749 l 315 344 z "},"Æ":{"ha":1186,"x_min":-19,"x_max":1108,"o":"m -19 0 l 546 972 l 1078 972 l 1078 858 l 699 858 l 699 560 l 936 560 l 936 446 l 699 446 l 699 115 l 1108 115 l 1108 0 l 578 0 l 578 238 l 249 238 l 114 0 l -19 0 m 310 346 l 578 346 l 578 825 q 528 731 563 792 l 310 346 z "},"Ç":{"ha":899,"x_min":94,"x_max":819,"o":"m 479 -329 q 349 -283 397 -329 l 417 -236 q 468 -254 431 -254 q 519 -235 499 -254 q 540 -187 540 -217 q 516 -143 540 -161 q 460 -125 492 -125 q 407 -135 426 -125 l 385 -107 l 458 -15 q 247 73 332 -4 q 128 255 163 150 q 94 486 94 360 q 117 669 94 582 q 187 828 140 756 q 313 945 233 901 q 497 989 393 989 q 811 814 725 989 l 703 758 q 617 847 664 817 q 497 876 571 876 q 333 814 399 876 q 244 667 268 751 q 219 486 219 583 q 290 212 219 326 q 497 97 361 97 q 708 221 633 97 l 819 179 q 531 -15 736 0 l 496 -74 q 609 -107 572 -74 q 646 -189 646 -140 q 599 -290 646 -250 q 479 -329 553 -329 z "},"È":{"ha":832,"x_min":136,"x_max":744,"o":"m 419 1063 l 172 1279 l 344 1279 l 542 1063 l 419 1063 m 136 0 l 136 972 l 714 972 l 714 858 l 257 858 l 257 560 l 558 560 l 558 446 l 257 446 l 257 115 l 744 115 l 744 0 l 136 0 z "},"É":{"ha":832,"x_min":136,"x_max":744,"o":"m 274 1063 l 471 1279 l 643 1279 l 396 1063 l 274 1063 m 136 0 l 136 972 l 714 972 l 714 858 l 257 858 l 257 560 l 558 560 l 558 446 l 257 446 l 257 115 l 744 115 l 744 0 l 136 0 z "},"Ê":{"ha":832,"x_min":136,"x_max":744,"o":"m 574 1063 l 428 1188 l 282 1063 l 167 1063 l 371 1279 l 485 1279 l 688 1063 l 574 1063 m 136 0 l 136 972 l 714 972 l 714 858 l 257 858 l 257 560 l 558 560 l 558 446 l 257 446 l 257 115 l 744 115 l 744 0 l 136 0 z "},"Ë":{"ha":832,"x_min":136,"x_max":744,"o":"m 364 1117 q 353 1106 364 1117 q 310 1094 342 1094 q 256 1117 278 1094 q 233 1171 233 1139 q 256 1225 233 1203 q 310 1247 278 1247 q 364 1225 342 1247 q 386 1171 386 1203 q 364 1117 386 1139 m 604 1117 q 593 1106 604 1117 q 550 1094 582 1094 q 496 1117 518 1094 q 474 1171 474 1139 q 496 1225 474 1203 q 550 1247 518 1247 q 604 1225 582 1247 q 626 1171 626 1203 q 604 1117 626 1139 m 136 0 l 136 972 l 714 972 l 714 858 l 257 858 l 257 560 l 558 560 l 558 446 l 257 446 l 257 115 l 744 115 l 744 0 l 136 0 z "},"Ì":{"ha":399,"x_min":-24,"x_max":346,"o":"m 224 1063 l -24 1279 l 149 1279 l 346 1063 l 224 1063 m 139 0 l 139 972 l 260 972 l 260 0 l 139 0 z "},"Í":{"ha":399,"x_min":43,"x_max":413,"o":"m 43 1063 l 240 1279 l 413 1279 l 165 1063 l 43 1063 m 139 0 l 139 972 l 260 972 l 260 0 l 139 0 z "},"Î":{"ha":399,"x_min":-61,"x_max":460,"o":"m 346 1063 l 200 1188 l 54 1063 l -61 1063 l 143 1279 l 257 1279 l 460 1063 l 346 1063 m 139 0 l 139 972 l 260 972 l 260 0 l 139 0 z "},"Ï":{"ha":399,"x_min":3,"x_max":396,"o":"m 133 1117 q 122 1106 133 1117 q 79 1094 111 1094 q 25 1117 47 1094 q 3 1171 3 1139 q 25 1225 3 1203 q 79 1247 47 1247 q 133 1225 111 1247 q 156 1171 156 1203 q 133 1117 156 1139 m 374 1117 q 363 1106 374 1117 q 319 1094 351 1094 q 265 1117 288 1094 q 243 1171 243 1139 q 265 1225 243 1203 q 319 1247 288 1247 q 374 1225 351 1247 q 396 1171 396 1203 q 374 1117 396 1139 m 139 0 l 139 972 l 260 972 l 260 0 l 139 0 z "},"Ð":{"ha":947,"x_min":42,"x_max":853,"o":"m 136 431 l 42 431 l 42 540 l 136 540 l 136 972 l 401 972 q 611 931 521 972 q 753 818 701 889 q 828 664 804 747 q 853 486 853 581 q 830 315 853 396 q 758 160 807 233 q 615 44 708 88 q 396 0 522 0 l 136 0 l 136 431 m 411 113 q 562 145 497 113 q 661 234 626 178 q 712 353 696 290 q 728 486 728 415 q 699 668 728 586 q 599 806 669 750 q 426 861 528 861 l 257 861 l 257 540 l 469 540 l 469 431 l 257 431 l 257 113 l 411 113 z "},"Ñ":{"ha":983,"x_min":136,"x_max":847,"o":"m 607 1089 q 481 1123 554 1089 q 378 1157 408 1157 q 332 1141 350 1157 q 313 1094 314 1125 l 250 1094 q 388 1261 250 1261 q 513 1226 440 1261 q 617 1192 586 1192 q 662 1208 643 1192 q 682 1256 681 1225 l 744 1256 q 607 1089 744 1089 m 847 0 l 731 0 l 293 694 q 254 763 268 735 q 257 694 257 721 l 257 0 l 136 0 l 136 972 l 258 972 l 689 281 q 729 208 711 244 q 726 279 726 258 l 726 972 l 847 972 l 847 0 z "},"Ò":{"ha":1014,"x_min":94,"x_max":921,"o":"m 528 1064 l 281 1281 l 453 1281 l 650 1064 l 528 1064 m 507 -17 q 315 27 397 -17 q 185 145 232 71 q 117 305 139 219 q 94 486 94 390 q 117 667 94 582 q 185 827 139 753 q 315 945 232 901 q 507 989 397 989 q 667 960 596 989 q 785 882 739 931 q 863 767 832 833 q 908 631 894 700 q 921 486 921 561 q 908 342 921 411 q 863 206 894 272 q 785 90 832 139 q 667 13 739 42 q 507 -17 596 -17 m 373 131 q 402 114 373 131 q 507 97 431 97 q 642 133 583 97 q 732 226 700 168 q 779 351 764 285 q 794 486 794 417 q 769 673 794 589 q 676 817 743 757 q 507 876 608 876 q 373 841 431 876 q 283 747 315 806 q 235 622 251 688 q 219 486 219 557 q 235 344 219 411 q 283 221 250 278 q 373 131 315 164 z "},"Ó":{"ha":1014,"x_min":94,"x_max":921,"o":"m 350 1063 l 547 1279 l 719 1279 l 472 1063 l 350 1063 m 507 -17 q 315 27 397 -17 q 185 145 232 71 q 117 305 139 219 q 94 486 94 390 q 117 667 94 582 q 185 827 139 753 q 315 945 232 901 q 507 989 397 989 q 667 960 596 989 q 785 882 739 931 q 863 767 832 833 q 908 631 894 700 q 921 486 921 561 q 908 342 921 411 q 863 206 894 272 q 785 90 832 139 q 667 13 739 42 q 507 -17 596 -17 m 373 131 q 402 114 373 131 q 507 97 431 97 q 642 133 583 97 q 732 226 700 168 q 779 351 764 285 q 794 486 794 417 q 769 673 794 589 q 676 817 743 757 q 507 876 608 876 q 373 841 431 876 q 283 747 315 806 q 235 622 251 688 q 219 486 219 557 q 235 344 219 411 q 283 221 250 278 q 373 131 315 164 z "},"Ô":{"ha":1014,"x_min":94,"x_max":921,"o":"m 653 1063 l 507 1188 l 361 1063 l 246 1063 l 450 1279 l 564 1279 l 767 1063 l 653 1063 m 507 -17 q 315 27 397 -17 q 185 145 232 71 q 117 305 139 219 q 94 486 94 390 q 117 667 94 582 q 185 827 139 753 q 315 945 232 901 q 507 989 397 989 q 667 960 596 989 q 785 882 739 931 q 863 767 832 833 q 908 631 894 700 q 921 486 921 561 q 908 342 921 411 q 863 206 894 272 q 785 90 832 139 q 667 13 739 42 q 507 -17 596 -17 m 373 131 q 402 114 373 131 q 507 97 431 97 q 642 133 583 97 q 732 226 700 168 q 779 351 764 285 q 794 486 794 417 q 769 673 794 589 q 676 817 743 757 q 507 876 608 876 q 373 841 431 876 q 283 747 315 806 q 235 622 251 688 q 219 486 219 557 q 235 344 219 411 q 283 221 250 278 q 373 131 315 164 z "},"Õ":{"ha":1014,"x_min":94,"x_max":921,"o":"m 615 1089 q 490 1123 563 1089 q 386 1157 417 1157 q 340 1141 358 1157 q 321 1094 322 1125 l 258 1094 q 396 1261 258 1261 q 522 1226 449 1261 q 625 1192 594 1192 q 670 1208 651 1192 q 690 1256 689 1225 l 753 1256 q 615 1089 753 1089 m 507 -17 q 315 27 397 -17 q 185 145 232 71 q 117 305 139 219 q 94 486 94 390 q 117 667 94 582 q 185 827 139 753 q 315 945 232 901 q 507 989 397 989 q 667 960 596 989 q 785 882 739 931 q 863 767 832 833 q 908 631 894 700 q 921 486 921 561 q 908 342 921 411 q 863 206 894 272 q 785 90 832 139 q 667 13 739 42 q 507 -17 596 -17 m 373 131 q 402 114 373 131 q 507 97 431 97 q 642 133 583 97 q 732 226 700 168 q 779 351 764 285 q 794 486 794 417 q 769 673 794 589 q 676 817 743 757 q 507 876 608 876 q 373 841 431 876 q 283 747 315 806 q 235 622 251 688 q 219 486 219 557 q 235 344 219 411 q 283 221 250 278 q 373 131 315 164 z "},"Ö":{"ha":1014,"x_min":94,"x_max":921,"o":"m 440 1117 q 429 1106 440 1117 q 386 1094 418 1094 q 332 1117 354 1094 q 310 1171 310 1139 q 332 1225 310 1203 q 386 1247 354 1247 q 440 1225 418 1247 q 463 1171 463 1203 q 440 1117 463 1139 m 681 1117 q 669 1106 681 1117 q 626 1094 658 1094 q 572 1117 594 1094 q 550 1171 550 1139 q 572 1225 550 1203 q 626 1247 594 1247 q 681 1225 658 1247 q 703 1171 703 1203 q 681 1117 703 1139 m 507 -17 q 315 27 397 -17 q 185 145 232 71 q 117 305 139 219 q 94 486 94 390 q 117 667 94 582 q 185 827 139 753 q 315 945 232 901 q 507 989 397 989 q 667 960 596 989 q 785 882 739 931 q 863 767 832 833 q 908 631 894 700 q 921 486 921 561 q 908 342 921 411 q 863 206 894 272 q 785 90 832 139 q 667 13 739 42 q 507 -17 596 -17 m 373 131 q 402 114 373 131 q 507 97 431 97 q 642 133 583 97 q 732 226 700 168 q 779 351 764 285 q 794 486 794 417 q 769 673 794 589 q 676 817 743 757 q 507 876 608 876 q 373 841 431 876 q 283 747 315 806 q 235 622 251 688 q 219 486 219 557 q 235 344 219 411 q 283 221 250 278 q 373 131 315 164 z "},"×":{"ha":896,"x_min":133,"x_max":763,"o":"m 450 392 l 221 161 l 133 249 l 364 478 l 135 706 l 218 789 l 447 561 l 675 790 l 763 703 l 532 475 l 761 246 l 678 163 l 450 392 z "},"Ø":{"ha":1007,"x_min":90,"x_max":917,"o":"m 103 -17 l 197 124 q 90 486 90 260 q 103 631 90 561 q 148 767 117 700 q 226 882 179 833 q 344 960 272 931 q 504 989 415 989 q 735 921 638 989 l 781 989 l 906 989 l 810 849 q 917 486 917 713 q 894 305 917 390 q 826 145 872 219 q 697 27 779 71 q 504 -17 614 -17 q 272 53 368 -17 l 225 -17 l 103 -17 m 272 235 l 668 821 q 504 876 599 876 q 369 841 428 876 q 279 747 311 806 q 232 622 247 688 q 217 486 217 557 q 272 235 217 332 m 504 97 q 638 133 581 97 q 728 226 696 168 q 776 351 760 285 q 792 486 792 417 q 735 738 792 638 l 339 151 q 504 97 407 97 z "},"Ù":{"ha":957,"x_min":129,"x_max":828,"o":"m 504 1063 l 257 1279 l 429 1279 l 626 1063 l 504 1063 m 478 -17 q 129 365 129 -17 l 129 972 l 250 972 l 250 365 q 311 157 250 217 q 478 97 372 97 q 645 157 583 97 q 707 365 707 217 l 707 972 l 828 972 l 828 365 q 478 -17 828 -17 z "},"Ú":{"ha":957,"x_min":129,"x_max":828,"o":"m 342 1063 l 539 1279 l 711 1279 l 464 1063 l 342 1063 m 478 -17 q 129 365 129 -17 l 129 972 l 250 972 l 250 365 q 311 157 250 217 q 478 97 372 97 q 645 157 583 97 q 707 365 707 217 l 707 972 l 828 972 l 828 365 q 478 -17 828 -17 z "},"Û":{"ha":957,"x_min":129,"x_max":828,"o":"m 625 1063 l 479 1188 l 333 1063 l 218 1063 l 422 1279 l 536 1279 l 739 1063 l 625 1063 m 478 -17 q 129 365 129 -17 l 129 972 l 250 972 l 250 365 q 311 157 250 217 q 478 97 372 97 q 645 157 583 97 q 707 365 707 217 l 707 972 l 828 972 l 828 365 q 478 -17 828 -17 z "},"Ü":{"ha":957,"x_min":129,"x_max":828,"o":"m 413 1117 q 401 1106 413 1117 q 358 1094 390 1094 q 304 1117 326 1094 q 282 1171 282 1139 q 304 1225 282 1203 q 358 1247 326 1247 q 413 1225 390 1247 q 435 1171 435 1203 q 413 1117 435 1139 m 653 1117 q 642 1106 653 1117 q 599 1094 631 1094 q 544 1117 567 1094 q 522 1171 522 1139 q 544 1225 522 1203 q 599 1247 567 1247 q 653 1225 631 1247 q 675 1171 675 1203 q 653 1117 675 1139 m 478 -17 q 129 365 129 -17 l 129 972 l 250 972 l 250 365 q 311 157 250 217 q 478 97 372 97 q 645 157 583 97 q 707 365 707 217 l 707 972 l 828 972 l 828 365 q 478 -17 828 -17 z "},"Ý":{"ha":890,"x_min":56,"x_max":835,"o":"m 308 1063 l 506 1279 l 678 1279 l 431 1063 l 308 1063 m 386 0 l 386 382 l 56 972 l 192 972 l 446 500 l 703 972 l 835 972 l 507 385 l 507 0 l 386 0 z "},"Þ":{"ha":878,"x_min":136,"x_max":822,"o":"m 136 0 l 136 972 l 257 972 l 257 786 l 508 786 q 656 761 593 786 q 754 694 719 736 q 806 601 789 651 q 822 494 822 551 q 744 291 822 379 q 508 203 665 203 l 257 203 l 257 0 l 136 0 m 517 317 q 656 369 611 317 q 701 494 701 421 q 658 618 701 564 q 517 672 615 672 l 257 672 l 257 317 l 517 317 z "},"ß":{"ha":781,"x_min":101,"x_max":715,"o":"m 101 -281 l 101 661 q 144 851 101 775 q 249 958 188 928 q 385 989 310 989 q 588 919 510 989 q 665 735 665 849 q 632 612 665 665 q 533 535 599 558 q 668 442 621 507 q 715 292 715 378 q 633 67 715 151 q 422 -17 550 -17 q 301 6 350 -17 l 361 103 q 424 94 386 94 q 540 144 489 94 q 592 288 592 194 q 541 419 592 365 q 383 472 490 472 l 365 472 l 365 583 l 383 583 q 499 619 457 583 q 542 729 542 656 q 501 839 542 799 q 386 879 461 879 q 267 826 313 879 q 222 665 222 774 l 222 -222 l 101 -281 z "},"à":{"ha":731,"x_min":74,"x_max":636,"o":"m 383 800 l 136 1017 l 308 1017 l 506 800 l 383 800 m 522 0 l 522 65 q 321 -17 435 -17 q 141 45 208 -17 q 74 222 74 107 q 150 397 74 338 q 339 457 226 457 q 522 411 442 457 l 522 461 q 483 585 522 550 q 368 621 443 621 q 161 550 261 621 l 126 651 q 383 726 240 726 q 636 471 636 726 l 636 0 l 522 0 m 339 90 q 522 183 443 90 l 522 306 q 356 353 446 353 q 235 319 282 353 q 188 222 188 286 q 227 126 188 163 q 339 90 267 90 z "},"á":{"ha":731,"x_min":74,"x_max":636,"o":"m 226 800 l 424 1017 l 596 1017 l 349 800 l 226 800 m 522 0 l 522 65 q 321 -17 435 -17 q 141 45 208 -17 q 74 222 74 107 q 150 397 74 338 q 339 457 226 457 q 522 411 442 457 l 522 461 q 483 585 522 550 q 368 621 443 621 q 161 550 261 621 l 126 651 q 383 726 240 726 q 636 471 636 726 l 636 0 l 522 0 m 339 90 q 522 183 443 90 l 522 306 q 356 353 446 353 q 235 319 282 353 q 188 222 188 286 q 227 126 188 163 q 339 90 267 90 z "},"â":{"ha":731,"x_min":74,"x_max":643,"o":"m 529 800 l 383 925 l 238 800 l 122 800 l 326 1017 l 440 1017 l 643 800 l 529 800 m 522 0 l 522 65 q 321 -17 435 -17 q 141 45 208 -17 q 74 222 74 107 q 150 397 74 338 q 339 457 226 457 q 522 411 442 457 l 522 461 q 483 585 522 550 q 368 621 443 621 q 161 550 261 621 l 126 651 q 383 726 240 726 q 636 471 636 726 l 636 0 l 522 0 m 339 90 q 522 183 443 90 l 522 306 q 356 353 446 353 q 235 319 282 353 q 188 222 188 286 q 227 126 188 163 q 339 90 267 90 z "},"ã":{"ha":731,"x_min":74,"x_max":636,"o":"m 492 826 q 366 860 439 826 q 263 894 293 894 q 217 878 235 894 q 197 832 199 863 l 135 832 q 272 999 135 999 q 398 964 325 999 q 501 929 471 929 q 547 946 528 929 q 567 993 565 963 l 629 993 q 492 826 629 826 m 522 0 l 522 65 q 321 -17 435 -17 q 141 45 208 -17 q 74 222 74 107 q 150 397 74 338 q 339 457 226 457 q 522 411 442 457 l 522 461 q 483 585 522 550 q 368 621 443 621 q 161 550 261 621 l 126 651 q 383 726 240 726 q 636 471 636 726 l 636 0 l 522 0 m 339 90 q 522 183 443 90 l 522 306 q 356 353 446 353 q 235 319 282 353 q 188 222 188 286 q 227 126 188 163 q 339 90 267 90 z "},"ä":{"ha":731,"x_min":74,"x_max":636,"o":"m 317 854 q 306 843 317 854 q 263 832 294 832 q 208 854 231 832 q 186 908 186 876 q 208 963 186 940 q 263 985 231 985 q 317 963 294 985 q 339 908 339 940 q 317 854 339 876 m 557 854 q 546 843 557 854 q 503 832 535 832 q 449 854 471 832 q 426 908 426 876 q 449 963 426 940 q 503 985 471 985 q 557 963 535 985 q 579 908 579 940 q 557 854 579 876 m 522 0 l 522 65 q 321 -17 435 -17 q 141 45 208 -17 q 74 222 74 107 q 150 397 74 338 q 339 457 226 457 q 522 411 442 457 l 522 461 q 483 585 522 550 q 368 621 443 621 q 161 550 261 621 l 126 651 q 383 726 240 726 q 636 471 636 726 l 636 0 l 522 0 m 339 90 q 522 183 443 90 l 522 306 q 356 353 446 353 q 235 319 282 353 q 188 222 188 286 q 227 126 188 163 q 339 90 267 90 z "},"å":{"ha":731,"x_min":74,"x_max":636,"o":"m 385 793 q 268 842 317 793 q 219 957 219 890 q 268 1071 219 1024 q 385 1118 317 1118 q 501 1071 451 1118 q 550 957 550 1024 q 501 842 550 890 q 385 793 451 793 m 335 903 q 345 893 335 903 q 385 882 356 882 q 434 903 414 882 q 454 957 454 925 q 434 1010 454 990 q 385 1031 414 1031 q 335 1010 356 1031 q 314 957 314 989 q 335 903 314 925 m 522 0 l 522 65 q 321 -17 435 -17 q 141 45 208 -17 q 74 222 74 107 q 150 397 74 338 q 339 457 226 457 q 522 411 442 457 l 522 461 q 483 585 522 550 q 368 621 443 621 q 161 550 261 621 l 126 651 q 383 726 240 726 q 636 471 636 726 l 636 0 l 522 0 m 339 90 q 522 183 443 90 l 522 306 q 356 353 446 353 q 235 319 282 353 q 188 222 188 286 q 227 126 188 163 q 339 90 267 90 z "},"æ":{"ha":1190,"x_min":74,"x_max":1125,"o":"m 321 -17 q 141 45 208 -17 q 74 222 74 107 q 150 397 74 338 q 339 457 226 457 q 522 411 442 457 l 522 461 q 484 583 522 546 q 368 621 446 621 q 161 550 261 621 l 126 651 q 383 726 240 726 q 597 621 539 726 q 831 726 682 726 q 1044 639 963 726 q 1125 389 1125 551 q 1121 308 1125 350 l 640 308 q 702 151 649 208 q 833 93 756 93 q 988 157 924 93 l 1061 75 q 831 -17 969 -17 q 581 115 669 -17 q 457 15 528 47 q 321 -17 386 -17 m 639 414 l 1003 414 q 950 571 1001 522 q 832 619 899 619 q 697 568 750 619 q 639 414 644 517 m 339 90 q 448 122 397 90 q 532 199 499 153 q 522 306 525 246 q 356 353 442 353 q 235 319 282 353 q 188 222 188 286 q 227 126 188 163 q 339 90 267 90 z "},"ç":{"ha":694,"x_min":74,"x_max":628,"o":"m 356 -329 q 225 -283 274 -329 l 293 -236 q 344 -254 307 -254 q 396 -235 375 -254 q 417 -187 417 -217 q 392 -143 417 -161 q 336 -125 368 -125 q 283 -135 303 -125 l 261 -107 l 335 -14 q 143 94 213 -3 q 74 354 74 190 q 153 628 74 529 q 374 726 233 726 q 622 561 563 726 l 508 519 q 375 614 472 614 q 242 546 286 614 q 197 354 197 478 q 242 165 197 232 q 371 97 286 97 q 515 203 482 97 l 628 165 q 408 -15 578 4 l 372 -74 q 485 -107 449 -74 q 521 -189 521 -140 q 475 -290 521 -250 q 356 -329 429 -329 z "},"è":{"ha":747,"x_min":74,"x_max":682,"o":"m 424 800 l 176 1017 l 349 1017 l 546 800 l 424 800 m 389 -17 q 159 87 244 -17 q 74 356 74 190 q 160 628 74 529 q 389 726 246 726 q 599 641 517 726 q 682 389 682 556 q 678 308 682 350 l 197 308 q 258 152 204 211 q 392 93 311 93 q 544 157 481 93 l 618 75 q 389 -17 526 -17 m 196 411 l 560 411 q 508 570 558 521 q 389 619 457 619 q 254 567 307 619 q 196 411 201 515 z "},"é":{"ha":747,"x_min":74,"x_max":682,"o":"m 232 800 l 429 1017 l 601 1017 l 354 800 l 232 800 m 389 -17 q 159 87 244 -17 q 74 356 74 190 q 160 628 74 529 q 389 726 246 726 q 599 641 517 726 q 682 389 682 556 q 678 308 682 350 l 197 308 q 258 152 204 211 q 392 93 311 93 q 544 157 481 93 l 618 75 q 389 -17 526 -17 m 196 411 l 560 411 q 508 570 558 521 q 389 619 457 619 q 254 567 307 619 q 196 411 201 515 z "},"ê":{"ha":747,"x_min":74,"x_max":682,"o":"m 535 800 l 389 925 l 243 800 l 128 800 l 332 1017 l 446 1017 l 649 800 l 535 800 m 389 -17 q 159 87 244 -17 q 74 356 74 190 q 160 628 74 529 q 389 726 246 726 q 599 641 517 726 q 682 389 682 556 q 678 308 682 350 l 197 308 q 258 152 204 211 q 392 93 311 93 q 544 157 481 93 l 618 75 q 389 -17 526 -17 m 196 411 l 560 411 q 508 570 558 521 q 389 619 457 619 q 254 567 307 619 q 196 411 201 515 z "},"ë":{"ha":747,"x_min":74,"x_max":682,"o":"m 322 854 q 311 843 322 854 q 268 832 300 832 q 214 854 236 832 q 192 908 192 876 q 214 963 192 940 q 268 985 236 985 q 322 963 300 985 q 344 908 344 940 q 322 854 344 876 m 563 854 q 551 843 563 854 q 508 832 540 832 q 454 854 476 832 q 432 908 432 876 q 454 963 432 940 q 508 985 476 985 q 563 963 540 985 q 585 908 585 940 q 563 854 585 876 m 389 -17 q 159 87 244 -17 q 74 356 74 190 q 160 628 74 529 q 389 726 246 726 q 599 641 517 726 q 682 389 682 556 q 678 308 682 350 l 197 308 q 258 152 204 211 q 392 93 311 93 q 544 157 481 93 l 618 75 q 389 -17 526 -17 m 196 411 l 560 411 q 508 570 558 521 q 389 619 457 619 q 254 567 307 619 q 196 411 201 515 z "},"ì":{"ha":353,"x_min":-56,"x_max":314,"o":"m 192 800 l -56 1017 l 117 1017 l 314 800 l 192 800 m 117 0 l 117 710 l 238 710 l 238 0 l 117 0 z "},"í":{"ha":353,"x_min":39,"x_max":408,"o":"m 39 800 l 236 1017 l 408 1017 l 161 800 l 39 800 m 117 0 l 117 710 l 238 710 l 238 0 l 117 0 z "},"î":{"ha":353,"x_min":-85,"x_max":436,"o":"m 322 800 l 176 925 l 31 800 l -85 800 l 119 1017 l 233 1017 l 436 800 l 322 800 m 117 0 l 117 710 l 238 710 l 238 0 l 117 0 z "},"ï":{"ha":353,"x_min":-21,"x_max":372,"o":"m 110 854 q 99 843 110 854 q 56 832 88 832 q 1 854 24 832 q -21 908 -21 876 q 1 963 -21 940 q 56 985 24 985 q 110 963 88 985 q 132 908 132 940 q 110 854 132 876 m 350 854 q 339 843 350 854 q 296 832 328 832 q 242 854 264 832 q 219 908 219 876 q 242 963 219 940 q 296 985 264 985 q 350 963 328 985 q 372 908 372 940 q 350 854 372 876 m 117 0 l 117 710 l 238 710 l 238 0 l 117 0 z "},"ð":{"ha":775,"x_min":74,"x_max":701,"o":"m 388 -17 q 161 75 249 -17 q 74 307 74 167 q 162 542 74 450 q 381 633 250 633 q 502 603 451 633 q 578 525 553 572 q 424 806 549 707 l 335 711 l 274 771 l 349 851 q 186 892 276 886 l 186 989 q 421 929 318 982 l 501 1014 l 564 953 l 496 881 q 701 374 701 717 q 621 90 701 196 q 388 -17 540 -17 m 251 156 q 279 126 251 156 q 388 96 307 96 q 524 156 468 96 q 579 306 579 217 q 524 460 579 399 q 386 522 469 522 q 251 462 306 522 q 196 307 196 401 q 251 156 196 217 z "},"ñ":{"ha":782,"x_min":115,"x_max":674,"o":"m 508 826 q 383 860 456 826 q 279 894 310 894 q 233 878 251 894 q 214 832 215 863 l 151 832 q 289 999 151 999 q 415 964 342 999 q 518 929 488 929 q 563 946 544 929 q 583 993 582 963 l 646 993 q 508 826 646 826 m 553 0 l 553 429 q 512 570 553 525 q 400 615 471 615 q 236 432 236 615 l 236 0 l 115 0 l 115 710 l 236 710 l 236 638 q 419 726 301 726 q 609 651 544 726 q 674 408 674 575 l 674 0 l 553 0 z "},"ò":{"ha":775,"x_min":74,"x_max":701,"o":"m 422 800 l 175 1017 l 347 1017 l 544 800 l 422 800 m 617 83 q 574 33 617 83 q 388 -17 532 -17 q 158 82 243 -17 q 74 354 74 181 q 158 627 74 528 q 388 726 243 726 q 617 628 532 726 q 701 356 701 529 q 617 83 701 182 m 247 165 q 272 130 247 165 q 388 96 297 96 q 528 165 478 96 q 579 356 579 233 q 528 546 579 476 q 388 615 478 615 q 247 547 297 615 q 196 354 196 478 q 247 165 196 233 z "},"ó":{"ha":775,"x_min":74,"x_max":701,"o":"m 231 800 l 428 1017 l 600 1017 l 353 800 l 231 800 m 617 83 q 574 33 617 83 q 388 -17 532 -17 q 158 82 243 -17 q 74 354 74 181 q 158 627 74 528 q 388 726 243 726 q 617 628 532 726 q 701 356 701 529 q 617 83 701 182 m 247 165 q 272 130 247 165 q 388 96 297 96 q 528 165 478 96 q 579 356 579 233 q 528 546 579 476 q 388 615 478 615 q 247 547 297 615 q 196 354 196 478 q 247 165 196 233 z "},"ô":{"ha":775,"x_min":74,"x_max":701,"o":"m 533 800 l 388 925 l 242 800 l 126 800 l 331 1017 l 444 1017 l 647 800 l 533 800 m 617 83 q 574 33 617 83 q 388 -17 532 -17 q 158 82 243 -17 q 74 354 74 181 q 158 627 74 528 q 388 726 243 726 q 617 628 532 726 q 701 356 701 529 q 617 83 701 182 m 247 165 q 272 130 247 165 q 388 96 297 96 q 528 165 478 96 q 579 356 579 233 q 528 546 579 476 q 388 615 478 615 q 247 547 297 615 q 196 354 196 478 q 247 165 196 233 z "},"õ":{"ha":775,"x_min":74,"x_max":701,"o":"m 496 826 q 370 860 443 826 q 267 894 297 894 q 221 878 239 894 q 201 832 203 863 l 139 832 q 276 999 139 999 q 402 964 329 999 q 506 929 475 929 q 551 946 532 929 q 571 993 569 963 l 633 993 q 496 826 633 826 m 617 83 q 574 33 617 83 q 388 -17 532 -17 q 158 82 243 -17 q 74 354 74 181 q 158 627 74 528 q 388 726 243 726 q 617 628 532 726 q 701 356 701 529 q 617 83 701 182 m 247 165 q 272 130 247 165 q 388 96 297 96 q 528 165 478 96 q 579 356 579 233 q 528 546 579 476 q 388 615 478 615 q 247 547 297 615 q 196 354 196 478 q 247 165 196 233 z "},"ö":{"ha":775,"x_min":74,"x_max":701,"o":"m 321 854 q 310 843 321 854 q 267 832 299 832 q 213 854 235 832 q 190 908 190 876 q 213 963 190 940 q 267 985 235 985 q 321 963 299 985 q 343 908 343 940 q 321 854 343 876 m 561 854 q 550 843 561 854 q 507 832 539 832 q 453 854 475 832 q 431 908 431 876 q 453 963 431 940 q 507 985 475 985 q 561 963 539 985 q 583 908 583 940 q 561 854 583 876 m 617 83 q 574 33 617 83 q 388 -17 532 -17 q 158 82 243 -17 q 74 354 74 181 q 158 627 74 528 q 388 726 243 726 q 617 628 532 726 q 701 356 701 529 q 617 83 701 182 m 247 165 q 272 130 247 165 q 388 96 297 96 q 528 165 478 96 q 579 356 579 233 q 528 546 579 476 q 388 615 478 615 q 247 547 297 615 q 196 354 196 478 q 247 165 196 233 z "},"÷":{"ha":896,"x_min":122,"x_max":775,"o":"m 503 698 q 492 686 503 698 q 446 675 481 675 q 389 697 411 675 q 367 753 367 719 q 390 808 367 785 q 446 831 413 831 q 503 808 479 831 q 526 753 526 785 q 503 698 526 721 m 122 418 l 122 535 l 775 535 l 775 418 l 122 418 m 503 144 q 492 133 503 144 q 446 122 481 122 q 389 144 411 122 q 367 199 367 167 q 389 253 367 231 q 446 276 411 276 q 503 253 481 276 q 526 199 526 231 q 503 144 526 167 z "},"ø":{"ha":775,"x_min":74,"x_max":701,"o":"m 701 726 l 625 617 q 701 356 701 518 q 617 83 701 182 q 388 -17 532 -17 q 217 31 290 -17 l 183 -17 l 74 -17 l 150 93 q 74 354 74 192 q 158 627 74 528 q 388 726 243 726 q 557 681 486 726 l 589 726 l 701 726 m 196 354 q 225 201 196 261 l 490 585 q 388 615 447 615 q 247 547 297 615 q 196 354 196 478 m 579 356 q 550 510 579 447 l 283 128 q 388 96 328 96 q 528 165 478 96 q 579 356 579 233 z "},"ù":{"ha":782,"x_min":108,"x_max":667,"o":"m 418 800 l 171 1017 l 343 1017 l 540 800 l 418 800 m 546 0 l 546 68 q 367 -17 481 -17 q 173 58 238 -17 q 108 300 108 133 l 108 710 l 229 710 l 229 282 q 270 141 229 186 q 382 96 311 96 q 546 279 546 96 l 546 710 l 667 710 l 667 0 l 546 0 z "},"ú":{"ha":782,"x_min":108,"x_max":667,"o":"m 226 800 l 424 1017 l 596 1017 l 349 800 l 226 800 m 546 0 l 546 68 q 367 -17 481 -17 q 173 58 238 -17 q 108 300 108 133 l 108 710 l 229 710 l 229 282 q 270 141 229 186 q 382 96 311 96 q 546 279 546 96 l 546 710 l 667 710 l 667 0 l 546 0 z "},"û":{"ha":782,"x_min":108,"x_max":667,"o":"m 529 800 l 383 925 l 238 800 l 122 800 l 326 1017 l 440 1017 l 643 800 l 529 800 m 546 0 l 546 68 q 367 -17 481 -17 q 173 58 238 -17 q 108 300 108 133 l 108 710 l 229 710 l 229 282 q 270 141 229 186 q 382 96 311 96 q 546 279 546 96 l 546 710 l 667 710 l 667 0 l 546 0 z "},"ü":{"ha":782,"x_min":108,"x_max":667,"o":"m 317 854 q 306 843 317 854 q 263 832 294 832 q 208 854 231 832 q 186 908 186 876 q 208 963 186 940 q 263 985 231 985 q 317 963 294 985 q 339 908 339 940 q 317 854 339 876 m 557 854 q 546 843 557 854 q 503 832 535 832 q 449 854 471 832 q 426 908 426 876 q 449 963 426 940 q 503 985 471 985 q 557 963 535 985 q 579 908 579 940 q 557 854 579 876 m 546 0 l 546 68 q 367 -17 481 -17 q 173 58 238 -17 q 108 300 108 133 l 108 710 l 229 710 l 229 282 q 270 141 229 186 q 382 96 311 96 q 546 279 546 96 l 546 710 l 667 710 l 667 0 l 546 0 z "},"ý":{"ha":736,"x_min":46,"x_max":690,"o":"m 208 800 l 406 1017 l 578 1017 l 331 800 l 208 800 m 200 -269 l 308 18 l 46 710 l 167 710 l 343 226 q 365 158 353 203 q 388 226 378 203 l 567 710 l 690 710 l 322 -269 l 200 -269 z "},"þ":{"ha":783,"x_min":115,"x_max":711,"o":"m 418 -17 q 236 67 307 -17 l 236 -224 l 115 -281 l 115 932 l 236 989 l 236 650 q 418 726 313 726 q 632 626 553 726 q 711 356 711 526 q 631 83 711 182 q 418 -17 550 -17 m 403 96 q 540 163 492 96 q 588 356 588 231 q 538 544 588 472 q 403 615 489 615 q 236 519 290 615 l 236 192 q 403 96 310 96 z "},"ÿ":{"ha":736,"x_min":46,"x_max":690,"o":"m 299 854 q 288 843 299 854 q 244 832 276 832 q 190 854 213 832 q 168 908 168 876 q 190 963 168 940 q 244 985 213 985 q 299 963 276 985 q 321 908 321 940 q 299 854 321 876 m 539 854 q 528 843 539 854 q 485 832 517 832 q 431 854 453 832 q 408 908 408 876 q 431 963 408 940 q 485 985 453 985 q 539 963 517 985 q 561 908 561 940 q 539 854 561 876 m 200 -269 l 308 18 l 46 710 l 167 710 l 343 226 q 365 158 353 203 q 388 226 378 203 l 567 710 l 690 710 l 322 -269 l 200 -269 z "},"Ā":{"ha":943,"x_min":71,"x_max":872,"o":"m 242 1100 l 242 1203 l 700 1203 l 700 1100 l 242 1100 m 749 0 l 665 238 l 279 238 l 197 0 l 71 0 l 415 972 l 528 972 l 872 0 l 749 0 m 628 344 l 503 704 q 472 803 479 772 q 442 704 457 749 l 315 344 l 628 344 z "},"ā":{"ha":731,"x_min":74,"x_max":636,"o":"m 153 838 l 153 940 l 611 940 l 611 838 l 153 838 m 522 0 l 522 65 q 321 -17 435 -17 q 141 45 208 -17 q 74 222 74 107 q 150 397 74 338 q 339 457 226 457 q 522 411 442 457 l 522 461 q 483 585 522 550 q 368 621 443 621 q 161 550 261 621 l 126 651 q 383 726 240 726 q 636 471 636 726 l 636 0 l 522 0 m 339 90 q 522 183 443 90 l 522 306 q 356 353 446 353 q 235 319 282 353 q 188 222 188 286 q 227 126 188 163 q 339 90 267 90 z "},"Ă":{"ha":943,"x_min":71,"x_max":872,"o":"m 471 1067 q 282 1131 346 1067 q 218 1293 218 1194 l 326 1293 q 367 1202 326 1236 q 471 1168 407 1168 q 576 1202 536 1168 q 617 1293 617 1236 l 725 1293 q 661 1131 725 1194 q 471 1067 597 1067 m 749 0 l 665 238 l 279 238 l 197 0 l 71 0 l 415 972 l 528 972 l 872 0 l 749 0 m 628 344 l 503 704 q 472 803 479 772 q 442 704 457 749 l 315 344 l 628 344 z "},"ă":{"ha":731,"x_min":74,"x_max":636,"o":"m 382 804 q 193 868 257 804 q 129 1031 129 932 l 238 1031 q 278 940 238 974 q 382 906 318 906 q 488 940 447 906 q 528 1031 528 974 l 636 1031 q 572 868 636 932 q 382 804 508 804 m 522 0 l 522 65 q 321 -17 435 -17 q 141 45 208 -17 q 74 222 74 107 q 150 397 74 338 q 339 457 226 457 q 522 411 442 457 l 522 461 q 483 585 522 550 q 368 621 443 621 q 161 550 261 621 l 126 651 q 383 726 240 726 q 636 471 636 726 l 636 0 l 522 0 m 339 90 q 522 183 443 90 l 522 306 q 356 353 446 353 q 235 319 282 353 q 188 222 188 286 q 227 126 188 163 q 339 90 267 90 z "},"Ą":{"ha":943,"x_min":71,"x_max":885,"o":"m 742 -329 q 627 -292 672 -329 q 582 -189 582 -254 q 749 0 582 -61 l 665 238 l 279 238 l 197 0 l 71 0 l 415 972 l 528 972 l 872 0 q 735 -67 788 -17 q 683 -176 683 -118 q 704 -233 683 -214 q 756 -253 725 -253 q 822 -224 796 -253 l 885 -269 q 742 -329 831 -329 m 315 344 l 628 344 l 503 704 q 472 803 479 772 q 442 704 457 749 l 315 344 z "},"ą":{"ha":731,"x_min":74,"x_max":669,"o":"m 526 -329 q 412 -292 457 -329 q 367 -189 367 -254 q 522 0 367 -67 l 522 65 q 321 -17 435 -17 q 141 45 208 -17 q 74 222 74 107 q 150 397 74 338 q 339 457 226 457 q 522 411 442 457 l 522 461 q 483 585 522 550 q 368 621 443 621 q 161 550 261 621 l 126 651 q 383 726 240 726 q 636 471 636 726 l 636 0 q 510 -76 553 -26 q 468 -176 468 -126 q 489 -233 468 -214 q 540 -253 510 -253 q 607 -224 581 -253 l 669 -269 q 526 -329 615 -329 m 339 90 q 522 183 443 90 l 522 306 q 356 353 446 353 q 235 319 282 353 q 188 222 188 286 q 227 126 188 163 q 339 90 267 90 z "},"Ć":{"ha":899,"x_min":94,"x_max":819,"o":"m 364 1063 l 561 1279 l 733 1279 l 486 1063 l 364 1063 m 497 -17 q 311 26 392 -17 q 185 143 231 69 q 117 303 139 217 q 94 486 94 389 q 117 669 94 582 q 187 828 140 756 q 313 945 233 901 q 497 989 393 989 q 811 814 725 989 l 703 758 q 617 847 664 817 q 497 876 571 876 q 333 814 399 876 q 244 667 268 751 q 219 486 219 583 q 290 212 219 326 q 497 97 361 97 q 708 221 633 97 l 819 179 q 699 37 779 90 q 497 -17 618 -17 z "},"ć":{"ha":694,"x_min":74,"x_max":628,"o":"m 215 800 l 413 1017 l 585 1017 l 338 800 l 215 800 m 368 -17 q 153 81 232 -17 q 74 354 74 179 q 153 628 74 529 q 374 726 233 726 q 622 561 563 726 l 508 519 q 375 614 472 614 q 242 546 286 614 q 197 354 197 478 q 242 165 197 232 q 371 97 286 97 q 515 203 482 97 l 628 165 q 534 31 601 78 q 368 -17 467 -17 z "},"Ĉ":{"ha":899,"x_min":94,"x_max":819,"o":"m 642 1063 l 496 1188 l 350 1063 l 235 1063 l 439 1279 l 553 1279 l 756 1063 l 642 1063 m 497 -17 q 311 26 392 -17 q 185 143 231 69 q 117 303 139 217 q 94 486 94 389 q 117 669 94 582 q 187 828 140 756 q 313 945 233 901 q 497 989 393 989 q 811 814 725 989 l 703 758 q 617 847 664 817 q 497 876 571 876 q 333 814 399 876 q 244 667 268 751 q 219 486 219 583 q 290 212 219 326 q 497 97 361 97 q 708 221 633 97 l 819 179 q 699 37 779 90 q 497 -17 618 -17 z "},"ĉ":{"ha":694,"x_min":74,"x_max":632,"o":"m 518 800 l 372 925 l 226 800 l 111 800 l 315 1017 l 429 1017 l 632 800 l 518 800 m 368 -17 q 153 81 232 -17 q 74 354 74 179 q 153 628 74 529 q 374 726 233 726 q 622 561 563 726 l 508 519 q 375 614 472 614 q 242 546 286 614 q 197 354 197 478 q 242 165 197 232 q 371 97 286 97 q 515 203 482 97 l 628 165 q 534 31 601 78 q 368 -17 467 -17 z "},"Ċ":{"ha":899,"x_min":94,"x_max":819,"o":"m 550 1117 q 539 1106 550 1117 q 496 1094 528 1094 q 442 1117 464 1094 q 419 1171 419 1139 q 442 1225 419 1203 q 496 1247 464 1247 q 550 1225 528 1247 q 572 1171 572 1203 q 550 1117 572 1139 m 497 -17 q 311 26 392 -17 q 185 143 231 69 q 117 303 139 217 q 94 486 94 389 q 117 669 94 582 q 187 828 140 756 q 313 945 233 901 q 497 989 393 989 q 811 814 725 989 l 703 758 q 617 847 664 817 q 497 876 571 876 q 333 814 399 876 q 244 667 268 751 q 219 486 219 583 q 290 212 219 326 q 497 97 361 97 q 708 221 633 97 l 819 179 q 699 37 779 90 q 497 -17 618 -17 z "},"ċ":{"ha":694,"x_min":74,"x_max":628,"o":"m 426 854 q 415 843 426 854 q 372 832 404 832 q 318 854 340 832 q 296 908 296 876 q 318 963 296 940 q 372 985 340 985 q 426 963 404 985 q 449 908 449 940 q 426 854 449 876 m 368 -17 q 153 81 232 -17 q 74 354 74 179 q 153 628 74 529 q 374 726 233 726 q 622 561 563 726 l 508 519 q 375 614 472 614 q 242 546 286 614 q 197 354 197 478 q 242 165 197 232 q 371 97 286 97 q 515 203 482 97 l 628 165 q 534 31 601 78 q 368 -17 467 -17 z "},"Č":{"ha":899,"x_min":94,"x_max":819,"o":"m 553 1063 l 438 1063 l 235 1279 l 350 1279 l 496 1154 l 642 1279 l 756 1279 l 553 1063 m 497 -17 q 311 26 392 -17 q 185 143 231 69 q 117 303 139 217 q 94 486 94 389 q 117 669 94 582 q 187 828 140 756 q 313 945 233 901 q 497 989 393 989 q 811 814 725 989 l 703 758 q 617 847 664 817 q 497 876 571 876 q 333 814 399 876 q 244 667 268 751 q 219 486 219 583 q 290 212 219 326 q 497 97 361 97 q 708 221 633 97 l 819 179 q 699 37 779 90 q 497 -17 618 -17 z "},"č":{"ha":694,"x_min":74,"x_max":632,"o":"m 429 800 l 314 800 l 111 1017 l 226 1017 l 372 892 l 518 1017 l 632 1017 l 429 800 m 368 -17 q 153 81 232 -17 q 74 354 74 179 q 153 628 74 529 q 374 726 233 726 q 622 561 563 726 l 508 519 q 375 614 472 614 q 242 546 286 614 q 197 354 197 478 q 242 165 197 232 q 371 97 286 97 q 515 203 482 97 l 628 165 q 534 31 601 78 q 368 -17 467 -17 z "},"Ď":{"ha":947,"x_min":136,"x_max":853,"o":"m 479 1063 l 364 1063 l 161 1279 l 276 1279 l 422 1154 l 568 1279 l 682 1279 l 479 1063 m 136 972 l 401 972 q 611 931 521 972 q 753 818 701 889 q 828 664 804 747 q 853 486 853 581 q 830 315 853 396 q 758 160 807 233 q 615 44 708 88 q 396 0 522 0 l 136 0 l 136 972 m 411 113 q 562 145 497 113 q 661 234 626 178 q 712 353 696 290 q 728 486 728 415 q 699 668 728 586 q 599 806 669 750 q 426 861 528 861 l 257 861 l 257 113 l 411 113 z "},"ď":{"ha":992,"x_min":74,"x_max":942,"o":"m 367 -17 q 153 83 232 -17 q 74 356 74 183 q 153 628 74 529 q 367 726 233 726 q 546 660 471 726 l 546 946 l 667 1003 l 667 0 l 546 0 l 546 56 q 367 -17 476 -17 m 942 989 l 942 978 q 818 661 942 783 l 782 688 q 812 815 800 726 q 824 989 824 903 l 942 989 m 383 96 q 546 192 489 96 l 546 525 q 383 615 489 615 q 244 548 293 615 q 196 356 196 481 q 247 169 196 243 q 383 96 297 96 z "},"Đ":{"ha":947,"x_min":42,"x_max":853,"o":"m 136 431 l 42 431 l 42 540 l 136 540 l 136 972 l 401 972 q 611 931 521 972 q 753 818 701 889 q 828 664 804 747 q 853 486 853 581 q 830 315 853 396 q 758 160 807 233 q 615 44 708 88 q 396 0 522 0 l 136 0 l 136 431 m 411 113 q 562 145 497 113 q 661 234 626 178 q 712 353 696 290 q 728 486 728 415 q 699 668 728 586 q 599 806 669 750 q 426 861 528 861 l 257 861 l 257 540 l 469 540 l 469 431 l 257 431 l 257 113 l 411 113 z "},"đ":{"ha":781,"x_min":74,"x_max":753,"o":"m 667 761 l 667 0 l 546 0 l 546 56 q 367 -17 474 -17 q 153 80 232 -17 q 74 335 74 176 q 153 588 74 494 q 367 681 233 681 q 546 614 471 681 l 546 761 l 358 761 l 358 865 l 546 865 l 546 946 l 667 1003 l 667 865 l 753 865 l 753 761 l 667 761 m 383 96 q 546 192 489 96 l 546 479 q 383 569 489 569 q 245 508 294 569 q 196 335 196 446 q 247 165 196 235 q 383 96 299 96 z "},"Ē":{"ha":832,"x_min":136,"x_max":744,"o":"m 196 1100 l 196 1203 l 654 1203 l 654 1100 l 196 1100 m 136 0 l 136 972 l 714 972 l 714 858 l 257 858 l 257 560 l 558 560 l 558 446 l 257 446 l 257 115 l 744 115 l 744 0 l 136 0 z "},"ē":{"ha":747,"x_min":74,"x_max":682,"o":"m 158 838 l 158 940 l 617 940 l 617 838 l 158 838 m 389 -17 q 159 87 244 -17 q 74 356 74 190 q 160 628 74 529 q 389 726 246 726 q 599 641 517 726 q 682 389 682 556 q 678 308 682 350 l 197 308 q 258 152 204 211 q 392 93 311 93 q 544 157 481 93 l 618 75 q 389 -17 526 -17 m 196 411 l 560 411 q 508 570 558 521 q 389 619 457 619 q 254 567 307 619 q 196 411 201 515 z "},"Ĕ":{"ha":832,"x_min":136,"x_max":744,"o":"m 426 1067 q 238 1131 301 1067 q 174 1293 174 1194 l 282 1293 q 322 1202 282 1236 q 426 1168 363 1168 q 532 1202 492 1168 q 572 1293 572 1236 l 681 1293 q 617 1131 681 1194 q 426 1067 553 1067 m 136 0 l 136 972 l 714 972 l 714 858 l 257 858 l 257 560 l 558 560 l 558 446 l 257 446 l 257 115 l 744 115 l 744 0 l 136 0 z "},"ĕ":{"ha":747,"x_min":74,"x_max":682,"o":"m 388 804 q 199 868 263 804 q 135 1031 135 932 l 243 1031 q 283 940 243 974 q 388 906 324 906 q 493 940 453 906 q 533 1031 533 974 l 642 1031 q 578 868 642 932 q 388 804 514 804 m 389 -17 q 159 87 244 -17 q 74 356 74 190 q 160 628 74 529 q 389 726 246 726 q 599 641 517 726 q 682 389 682 556 q 678 308 682 350 l 197 308 q 258 152 204 211 q 392 93 311 93 q 544 157 481 93 l 618 75 q 389 -17 526 -17 m 196 411 l 560 411 q 508 570 558 521 q 389 619 457 619 q 254 567 307 619 q 196 411 201 515 z "},"Ė":{"ha":832,"x_min":136,"x_max":744,"o":"m 485 1117 q 474 1106 485 1117 q 431 1094 463 1094 q 376 1117 399 1094 q 354 1171 354 1139 q 376 1225 354 1203 q 431 1247 399 1247 q 485 1225 463 1247 q 507 1171 507 1203 q 485 1117 507 1139 m 136 0 l 136 972 l 714 972 l 714 858 l 257 858 l 257 560 l 558 560 l 558 446 l 257 446 l 257 115 l 744 115 l 744 0 l 136 0 z "},"ė":{"ha":747,"x_min":74,"x_max":682,"o":"m 443 854 q 432 843 443 854 q 389 832 421 832 q 335 854 357 832 q 313 908 313 876 q 335 963 313 940 q 389 985 357 985 q 443 963 421 985 q 465 908 465 940 q 443 854 465 876 m 389 -17 q 159 87 244 -17 q 74 356 74 190 q 160 628 74 529 q 389 726 246 726 q 599 641 517 726 q 682 389 682 556 q 678 308 682 350 l 197 308 q 258 152 204 211 q 392 93 311 93 q 544 157 481 93 l 618 75 q 389 -17 526 -17 m 196 411 l 560 411 q 508 570 558 521 q 389 619 457 619 q 254 567 307 619 q 196 411 201 515 z "},"Ę":{"ha":832,"x_min":136,"x_max":744,"o":"m 556 -329 q 441 -292 486 -329 q 396 -189 396 -254 q 436 -78 396 -128 q 549 0 476 -29 l 136 0 l 136 972 l 714 972 l 714 858 l 257 858 l 257 560 l 558 560 l 558 446 l 257 446 l 257 115 l 744 115 l 744 0 l 701 0 q 558 -58 618 0 q 497 -176 497 -115 q 518 -233 497 -214 q 569 -253 539 -253 q 636 -224 610 -253 l 699 -269 q 556 -329 644 -329 z "},"ę":{"ha":747,"x_min":74,"x_max":682,"o":"m 410 -329 q 295 -292 340 -329 q 250 -189 250 -254 q 369 -17 250 -81 q 153 93 233 -10 q 74 356 74 196 q 160 628 74 529 q 389 726 246 726 q 599 641 517 726 q 682 389 682 556 q 678 308 682 350 l 197 308 q 258 152 204 211 q 392 93 311 93 q 544 157 481 93 l 618 75 q 508 -1 594 50 q 450 -36 468 -25 q 403 -70 432 -47 q 363 -119 375 -93 q 351 -176 351 -144 q 372 -233 351 -214 q 424 -253 393 -253 q 490 -224 464 -253 l 553 -269 q 410 -329 499 -329 m 389 619 q 254 567 307 619 q 196 411 201 515 l 560 411 q 508 570 558 521 q 389 619 457 619 z "},"Ě":{"ha":832,"x_min":136,"x_max":744,"o":"m 489 1063 l 374 1063 l 171 1279 l 286 1279 l 432 1154 l 578 1279 l 692 1279 l 489 1063 m 136 0 l 136 972 l 714 972 l 714 858 l 257 858 l 257 560 l 558 560 l 558 446 l 257 446 l 257 115 l 744 115 l 744 0 l 136 0 z "},"ě":{"ha":747,"x_min":74,"x_max":682,"o":"m 446 800 l 331 800 l 128 1017 l 243 1017 l 389 892 l 535 1017 l 649 1017 l 446 800 m 389 -17 q 159 87 244 -17 q 74 356 74 190 q 160 628 74 529 q 389 726 246 726 q 599 641 517 726 q 682 389 682 556 q 678 308 682 350 l 197 308 q 258 152 204 211 q 392 93 311 93 q 544 157 481 93 l 618 75 q 389 -17 526 -17 m 196 411 l 560 411 q 508 570 558 521 q 389 619 457 619 q 254 567 307 619 q 196 411 201 515 z "},"Ĝ":{"ha":956,"x_min":94,"x_max":851,"o":"m 653 1063 l 507 1188 l 361 1063 l 246 1063 l 450 1279 l 564 1279 l 767 1063 l 653 1063 m 507 -17 q 319 26 400 -17 q 190 140 238 68 q 118 300 142 213 q 94 486 94 388 q 119 672 94 583 q 193 831 144 760 q 323 946 242 903 q 507 989 404 989 q 702 943 631 989 q 822 818 774 897 l 714 756 q 628 844 675 813 q 507 875 581 875 q 394 851 444 875 q 313 790 344 828 q 259 700 281 751 q 228 595 238 649 q 219 486 219 542 q 292 210 219 322 q 507 99 364 99 q 665 160 606 99 q 725 322 725 222 l 725 361 l 549 361 l 549 472 l 851 472 l 851 356 q 755 81 851 179 q 507 -17 658 -17 z "},"ĝ":{"ha":782,"x_min":74,"x_max":668,"o":"m 547 800 l 401 925 l 256 800 l 140 800 l 344 1017 l 458 1017 l 661 800 l 547 800 m 333 -287 l 275 -193 q 488 -140 429 -185 q 547 -17 547 -94 l 547 69 q 364 -17 485 -17 q 156 81 239 -17 q 74 356 74 178 q 155 627 74 528 q 368 726 236 726 q 547 651 479 726 l 547 710 l 668 710 l 668 29 q 581 -206 668 -133 q 333 -287 494 -278 m 389 96 q 477 123 433 96 q 547 196 521 150 l 547 521 q 476 589 522 563 q 389 615 431 615 q 245 548 294 615 q 196 356 196 481 q 249 165 196 235 q 389 96 303 96 z "},"Ğ":{"ha":956,"x_min":94,"x_max":851,"o":"m 506 1067 q 317 1131 381 1067 q 253 1293 253 1194 l 361 1293 q 401 1202 361 1236 q 506 1168 442 1168 q 611 1202 571 1168 q 651 1293 651 1236 l 760 1293 q 696 1131 760 1194 q 506 1067 632 1067 m 507 -17 q 319 26 400 -17 q 190 140 238 68 q 118 300 142 213 q 94 486 94 388 q 119 672 94 583 q 193 831 144 760 q 323 946 242 903 q 507 989 404 989 q 702 943 631 989 q 822 818 774 897 l 714 756 q 628 844 675 813 q 507 875 581 875 q 394 851 444 875 q 313 790 344 828 q 259 700 281 751 q 228 595 238 649 q 219 486 219 542 q 292 210 219 322 q 507 99 364 99 q 665 160 606 99 q 725 322 725 222 l 725 361 l 549 361 l 549 472 l 851 472 l 851 356 q 755 81 851 179 q 507 -17 658 -17 z "},"ğ":{"ha":782,"x_min":74,"x_max":668,"o":"m 401 804 q 213 868 276 804 q 149 1031 149 932 l 257 1031 q 297 940 257 974 q 401 906 338 906 q 507 940 467 906 q 547 1031 547 974 l 656 1031 q 592 868 656 932 q 401 804 528 804 m 333 -287 l 275 -193 q 488 -140 429 -185 q 547 -17 547 -94 l 547 69 q 364 -17 485 -17 q 156 81 239 -17 q 74 356 74 178 q 155 627 74 528 q 368 726 236 726 q 547 651 479 726 l 547 710 l 668 710 l 668 29 q 581 -206 668 -133 q 333 -287 494 -278 m 389 96 q 477 123 433 96 q 547 196 521 150 l 547 521 q 476 589 522 563 q 389 615 431 615 q 245 548 294 615 q 196 356 196 481 q 249 165 196 235 q 389 96 303 96 z "},"Ġ":{"ha":956,"x_min":94,"x_max":851,"o":"m 553 1117 q 542 1106 553 1117 q 499 1094 531 1094 q 444 1117 467 1094 q 422 1171 422 1139 q 444 1225 422 1203 q 499 1247 467 1247 q 553 1225 531 1247 q 575 1171 575 1203 q 553 1117 575 1139 m 507 -17 q 319 26 400 -17 q 190 140 238 68 q 118 300 142 213 q 94 486 94 388 q 119 672 94 583 q 193 831 144 760 q 323 946 242 903 q 507 989 404 989 q 702 943 631 989 q 822 818 774 897 l 714 756 q 628 844 675 813 q 507 875 581 875 q 394 851 444 875 q 313 790 344 828 q 259 700 281 751 q 228 595 238 649 q 219 486 219 542 q 292 210 219 322 q 507 99 364 99 q 665 160 606 99 q 725 322 725 222 l 725 361 l 549 361 l 549 472 l 851 472 l 851 356 q 755 81 851 179 q 507 -17 658 -17 z "},"ġ":{"ha":782,"x_min":74,"x_max":668,"o":"m 456 854 q 444 843 456 854 q 401 832 433 832 q 347 854 369 832 q 325 908 325 876 q 347 963 325 940 q 401 985 369 985 q 456 963 433 985 q 478 908 478 940 q 456 854 478 876 m 333 -287 l 275 -193 q 488 -140 429 -185 q 547 -17 547 -94 l 547 69 q 364 -17 485 -17 q 156 81 239 -17 q 74 356 74 178 q 155 627 74 528 q 368 726 236 726 q 547 651 479 726 l 547 710 l 668 710 l 668 29 q 581 -206 668 -133 q 333 -287 494 -278 m 389 96 q 477 123 433 96 q 547 196 521 150 l 547 521 q 476 589 522 563 q 389 615 431 615 q 245 548 294 615 q 196 356 196 481 q 249 165 196 235 q 389 96 303 96 z "},"Ģ":{"ha":956,"x_min":94,"x_max":851,"o":"m 507 -17 q 319 26 400 -17 q 190 140 238 68 q 118 300 142 213 q 94 486 94 388 q 119 672 94 583 q 193 831 144 760 q 323 946 242 903 q 507 989 404 989 q 702 943 631 989 q 822 818 774 897 l 714 756 q 628 844 675 813 q 507 875 581 875 q 394 851 444 875 q 313 790 344 828 q 259 700 281 751 q 228 595 238 649 q 219 486 219 542 q 292 210 219 322 q 507 99 364 99 q 665 160 606 99 q 725 322 725 222 l 725 361 l 549 361 l 549 472 l 851 472 l 851 356 q 755 81 851 179 q 507 -17 658 -17 m 443 -335 q 506 -235 492 -293 q 445 -212 468 -235 q 422 -154 422 -189 q 447 -95 422 -118 q 503 -72 471 -72 q 563 -97 538 -72 q 588 -162 588 -121 q 479 -353 588 -278 l 443 -335 z "},"ģ":{"ha":782,"x_min":74,"x_max":668,"o":"m 401 829 q 342 854 367 829 q 317 921 317 879 q 425 1111 317 1036 l 461 1092 q 399 992 413 1054 q 459 969 436 992 q 482 913 482 946 q 458 853 482 876 q 401 829 433 829 m 333 -287 l 275 -193 q 488 -140 429 -185 q 547 -17 547 -94 l 547 69 q 364 -17 485 -17 q 156 81 239 -17 q 74 356 74 178 q 155 627 74 528 q 368 726 236 726 q 547 651 479 726 l 547 710 l 668 710 l 668 29 q 581 -206 668 -133 q 333 -287 494 -278 m 389 96 q 477 123 433 96 q 547 196 521 150 l 547 521 q 476 589 522 563 q 389 615 431 615 q 245 548 294 615 q 196 356 196 481 q 249 165 196 235 q 389 96 303 96 z "},"Ĥ":{"ha":972,"x_min":136,"x_max":836,"o":"m 632 1063 l 486 1188 l 340 1063 l 225 1063 l 429 1279 l 543 1279 l 746 1063 l 632 1063 m 715 0 l 715 447 l 257 447 l 257 0 l 136 0 l 136 972 l 257 972 l 257 561 l 715 561 l 715 972 l 836 972 l 836 0 l 715 0 z "},"ĥ":{"ha":782,"x_min":115,"x_max":674,"o":"m 546 1063 l 400 1188 l 254 1063 l 139 1063 l 343 1279 l 457 1279 l 660 1063 l 546 1063 m 115 0 l 115 947 l 236 1003 l 236 636 q 419 726 301 726 q 609 651 544 726 q 674 408 674 575 l 674 0 l 553 0 l 553 429 q 512 570 553 525 q 400 615 471 615 q 236 432 236 615 l 236 0 l 115 0 z "},"Ħ":{"ha":972,"x_min":11,"x_max":961,"o":"m 715 0 l 715 447 l 257 447 l 257 0 l 136 0 l 136 726 l 11 726 l 11 840 l 136 840 l 136 972 l 257 972 l 257 840 l 715 840 l 715 972 l 836 972 l 836 840 l 961 840 l 961 726 l 836 726 l 836 0 l 715 0 m 715 561 l 715 726 l 257 726 l 257 561 l 715 561 z "},"ħ":{"ha":782,"x_min":28,"x_max":674,"o":"m 115 0 l 115 761 l 28 761 l 28 865 l 115 865 l 115 947 l 236 1003 l 236 865 l 443 865 l 443 761 l 236 761 l 236 592 q 419 682 301 682 q 609 606 544 682 q 674 364 674 531 l 674 0 l 553 0 l 553 385 q 512 526 553 481 q 400 571 471 571 q 236 388 236 571 l 236 0 l 115 0 z "},"Ĩ":{"ha":399,"x_min":-49,"x_max":446,"o":"m 308 1089 q 183 1123 256 1089 q 79 1157 110 1157 q 33 1141 51 1157 q 14 1094 15 1125 l -49 1094 q 89 1261 -49 1261 q 215 1226 142 1261 q 318 1192 288 1192 q 363 1208 344 1192 q 383 1256 382 1225 l 446 1256 q 308 1089 446 1089 m 139 0 l 139 972 l 260 972 l 260 0 l 139 0 z "},"ĩ":{"ha":353,"x_min":-72,"x_max":422,"o":"m 285 826 q 159 860 232 826 q 56 894 86 894 q 10 878 28 894 q -10 832 -8 863 l -72 832 q 65 999 -72 999 q 191 964 118 999 q 294 929 264 929 q 340 946 321 929 q 360 993 358 963 l 422 993 q 285 826 422 826 m 117 0 l 117 710 l 238 710 l 238 0 l 117 0 z "},"Ī":{"ha":399,"x_min":-31,"x_max":428,"o":"m -31 1100 l -31 1203 l 428 1203 l 428 1100 l -31 1100 m 139 0 l 139 972 l 260 972 l 260 0 l 139 0 z "},"ī":{"ha":353,"x_min":-54,"x_max":404,"o":"m -54 838 l -54 940 l 404 940 l 404 838 l -54 838 m 117 0 l 117 710 l 238 710 l 238 0 l 117 0 z "},"Ĭ":{"ha":399,"x_min":-54,"x_max":453,"o":"m 199 1067 q 10 1131 74 1067 q -54 1293 -54 1194 l 54 1293 q 94 1202 54 1236 q 199 1168 135 1168 q 304 1202 264 1168 q 344 1293 344 1236 l 453 1293 q 389 1131 453 1194 q 199 1067 325 1067 m 139 0 l 139 972 l 260 972 l 260 0 l 139 0 z "},"ĭ":{"ha":353,"x_min":-78,"x_max":429,"o":"m 175 804 q -14 868 50 804 q -78 1031 -78 932 l 31 1031 q 71 940 31 974 q 175 906 111 906 q 281 940 240 906 q 321 1031 321 974 l 429 1031 q 365 868 429 932 q 175 804 301 804 m 117 0 l 117 710 l 238 710 l 238 0 l 117 0 z "},"Į":{"ha":399,"x_min":-18,"x_max":286,"o":"m 142 -329 q 27 -292 72 -329 q -18 -189 -18 -254 q 139 0 -18 -64 l 139 972 l 260 972 l 260 0 q 129 -75 174 -26 q 85 -176 85 -124 q 106 -233 85 -214 q 157 -253 126 -253 q 224 -224 194 -253 l 286 -269 q 142 -329 232 -329 z "},"į":{"ha":353,"x_min":-39,"x_max":265,"o":"m 231 860 q 219 850 231 860 q 176 839 208 839 q 123 861 144 839 q 101 914 101 883 q 124 969 101 946 q 176 992 146 992 q 231 969 208 992 q 253 914 253 946 q 231 860 253 882 m 121 -329 q 6 -292 51 -329 q -39 -189 -39 -254 q 3 -78 -39 -126 q 117 0 44 -29 l 117 710 l 238 710 l 238 0 q 108 -75 153 -26 q 64 -176 64 -124 q 85 -233 64 -214 q 136 -253 106 -253 q 203 -224 174 -253 l 265 -269 q 121 -329 211 -329 z "},"İ":{"ha":399,"x_min":124,"x_max":276,"o":"m 254 1117 q 243 1106 254 1117 q 200 1094 232 1094 q 146 1117 168 1094 q 124 1171 124 1139 q 146 1225 124 1203 q 200 1247 168 1247 q 254 1225 232 1247 q 276 1171 276 1203 q 254 1117 276 1139 m 139 0 l 139 972 l 260 972 l 260 0 l 139 0 z "},"ı":{"ha":353,"x_min":117,"x_max":238,"o":"m 117 0 l 117 710 l 238 710 l 238 0 l 117 0 z "},"Ĳ":{"ha":1157,"x_min":139,"x_max":1025,"o":"m 139 0 l 139 972 l 260 972 l 260 0 l 139 0 m 718 -17 q 438 158 513 -17 l 538 210 q 607 124 567 150 q 719 97 647 97 q 904 315 904 97 l 904 972 l 1025 972 l 1025 319 q 997 155 1025 224 q 922 51 969 86 q 824 -1 875 15 q 718 -17 774 -17 z "},"ĳ":{"ha":726,"x_min":101,"x_max":626,"o":"m 231 860 q 219 850 231 860 q 176 839 208 839 q 123 861 144 839 q 101 914 101 883 q 124 969 101 946 q 176 992 146 992 q 231 969 208 992 q 253 914 253 946 q 231 860 253 882 m 605 860 q 594 850 605 860 q 551 839 583 839 q 497 860 519 839 q 475 914 475 882 q 497 969 475 946 q 551 992 519 992 q 605 969 583 992 q 626 914 626 946 q 605 860 626 882 m 117 0 l 117 710 l 238 710 l 238 0 l 117 0 m 365 -297 l 308 -206 q 451 -153 411 -189 q 490 -50 490 -117 l 490 710 l 611 710 l 611 -6 q 558 -197 611 -135 q 365 -297 492 -279 z "},"Ĵ":{"ha":758,"x_min":39,"x_max":826,"o":"m 713 1063 l 567 1188 l 421 1063 l 306 1063 l 510 1279 l 624 1279 l 826 1063 l 713 1063 m 319 -17 q 39 158 114 -17 l 139 210 q 208 124 168 150 q 321 97 249 97 q 506 315 506 97 l 506 972 l 626 972 l 626 319 q 599 155 626 224 q 524 51 571 86 q 426 -1 476 15 q 319 -17 375 -17 z "},"ĵ":{"ha":353,"x_min":-82,"x_max":439,"o":"m 325 800 l 179 925 l 33 800 l -82 800 l 122 1017 l 236 1017 l 439 800 l 325 800 m -8 -297 l -65 -206 q 77 -153 38 -189 q 117 -50 117 -117 l 117 710 l 238 710 l 238 -6 q 185 -197 238 -135 q -8 -297 118 -279 z "},"Ķ":{"ha":917,"x_min":136,"x_max":851,"o":"m 711 0 l 422 535 l 257 332 l 257 0 l 136 0 l 136 972 l 257 972 l 257 496 l 636 972 l 772 972 l 504 636 l 851 0 l 711 0 m 400 -335 q 463 -235 449 -293 q 402 -212 425 -235 q 379 -154 379 -189 q 403 -95 379 -118 q 460 -72 428 -72 q 519 -97 494 -72 q 544 -162 544 -121 q 436 -353 544 -278 l 400 -335 z "},"ķ":{"ha":738,"x_min":115,"x_max":692,"o":"m 692 0 l 560 0 l 340 429 l 236 321 l 236 0 l 115 0 l 115 946 l 236 1003 l 236 465 l 467 710 l 611 710 l 425 517 l 692 0 m 310 -335 q 372 -235 358 -293 q 312 -212 335 -235 q 289 -154 289 -189 q 313 -95 289 -118 q 369 -72 338 -72 q 429 -97 404 -72 q 454 -162 454 -121 q 346 -353 454 -278 l 310 -335 z "},"ĸ":{"ha":742,"x_min":115,"x_max":700,"o":"m 564 0 l 376 349 l 236 174 l 236 0 l 115 0 l 115 710 l 236 710 l 236 335 l 532 710 l 668 710 l 457 447 l 700 0 l 564 0 z "},"Ĺ":{"ha":776,"x_min":68,"x_max":735,"o":"m 68 1063 l 265 1279 l 438 1279 l 190 1063 l 68 1063 m 136 0 l 136 972 l 257 972 l 257 117 l 735 117 l 735 0 l 136 0 z "},"ĺ":{"ha":364,"x_min":25,"x_max":394,"o":"m 25 1050 l 222 1267 l 394 1267 l 147 1050 l 25 1050 m 122 0 l 122 946 l 243 1003 l 243 0 l 122 0 z "},"Ļ":{"ha":776,"x_min":136,"x_max":735,"o":"m 136 0 l 136 972 l 257 972 l 257 117 l 735 117 l 735 0 l 136 0 m 378 -335 q 440 -235 426 -293 q 380 -212 403 -235 q 357 -154 357 -189 q 381 -95 357 -118 q 438 -72 406 -72 q 497 -97 472 -72 q 522 -162 522 -121 q 414 -353 522 -278 l 378 -335 z "},"ļ":{"ha":364,"x_min":101,"x_max":267,"o":"m 122 0 l 122 946 l 243 1003 l 243 0 l 122 0 m 122 -335 q 185 -235 171 -293 q 124 -212 147 -235 q 101 -154 101 -189 q 126 -95 101 -118 q 182 -72 150 -72 q 242 -97 217 -72 q 267 -162 267 -121 q 158 -353 267 -278 l 122 -335 z "},"Ľ":{"ha":776,"x_min":-64,"x_max":735,"o":"m 254 1063 l 139 1063 l -64 1279 l 51 1279 l 197 1154 l 343 1279 l 457 1279 l 254 1063 m 136 0 l 136 972 l 257 972 l 257 117 l 735 117 l 735 0 l 136 0 z "},"ľ":{"ha":568,"x_min":122,"x_max":532,"o":"m 122 0 l 122 946 l 243 1003 l 243 0 l 122 0 m 532 989 l 532 978 q 408 661 532 783 l 372 688 q 402 815 390 726 q 414 989 414 903 l 532 989 z "},"Ŀ":{"ha":776,"x_min":136,"x_max":735,"o":"m 136 0 l 136 972 l 257 972 l 257 117 l 735 117 l 735 0 l 136 0 m 653 419 q 639 405 653 419 q 585 390 625 390 q 517 419 544 390 q 489 485 489 447 q 517 552 489 524 q 585 581 544 581 q 653 551 625 581 q 682 485 682 522 q 653 419 682 447 z "},"ŀ":{"ha":514,"x_min":122,"x_max":517,"o":"m 122 0 l 122 946 l 243 1003 l 243 0 l 122 0 m 488 372 q 474 357 488 372 q 419 343 460 343 q 351 372 379 343 q 324 438 324 400 q 351 505 324 476 q 419 533 379 533 q 488 504 460 533 q 517 438 517 475 q 488 372 517 400 z "},"Ł":{"ha":776,"x_min":35,"x_max":735,"o":"m 136 0 l 136 354 l 35 279 l 35 413 l 136 488 l 136 972 l 257 972 l 257 585 l 422 711 l 422 578 l 257 450 l 257 117 l 735 117 l 735 0 l 136 0 z "},"ł":{"ha":365,"x_min":35,"x_max":331,"o":"m 122 0 l 122 358 l 35 290 l 35 399 l 122 467 l 122 946 l 243 1003 l 243 557 l 331 624 l 331 515 l 243 449 l 243 0 l 122 0 z "},"Ń":{"ha":983,"x_min":136,"x_max":847,"o":"m 363 1064 l 560 1281 l 732 1281 l 485 1064 l 363 1064 m 847 0 l 731 0 l 293 694 q 254 763 268 735 q 257 694 257 721 l 257 0 l 136 0 l 136 972 l 258 972 l 689 281 q 729 208 711 244 q 726 279 726 258 l 726 972 l 847 972 l 847 0 z "},"ń":{"ha":782,"x_min":115,"x_max":674,"o":"m 243 800 l 440 1017 l 613 1017 l 365 800 l 243 800 m 553 0 l 553 429 q 512 570 553 525 q 400 615 471 615 q 236 432 236 615 l 236 0 l 115 0 l 115 710 l 236 710 l 236 638 q 419 726 301 726 q 609 651 544 726 q 674 408 674 575 l 674 0 l 553 0 z "},"Ņ":{"ha":983,"x_min":136,"x_max":847,"o":"m 847 0 l 731 0 l 293 694 q 254 763 268 735 q 257 694 257 721 l 257 0 l 136 0 l 136 972 l 258 972 l 689 281 q 729 208 711 244 q 726 279 726 258 l 726 972 l 847 972 l 847 0 m 432 -335 q 494 -235 481 -293 q 434 -212 457 -235 q 411 -154 411 -189 q 435 -95 411 -118 q 492 -72 460 -72 q 551 -97 526 -72 q 576 -162 576 -121 q 468 -353 576 -278 l 432 -335 z "},"ņ":{"ha":782,"x_min":115,"x_max":674,"o":"m 553 0 l 553 429 q 512 570 553 525 q 400 615 471 615 q 236 432 236 615 l 236 0 l 115 0 l 115 710 l 236 710 l 236 638 q 419 726 301 726 q 609 651 544 726 q 674 408 674 575 l 674 0 l 553 0 m 332 -335 q 394 -235 381 -293 q 334 -212 357 -235 q 311 -154 311 -189 q 335 -95 311 -118 q 392 -72 360 -72 q 451 -97 426 -72 q 476 -162 476 -121 q 368 -353 476 -278 l 332 -335 z "},"Ň":{"ha":983,"x_min":136,"x_max":847,"o":"m 556 1063 l 440 1063 l 238 1279 l 353 1279 l 499 1154 l 644 1279 l 758 1279 l 556 1063 m 847 0 l 731 0 l 293 694 q 254 763 268 735 q 257 694 257 721 l 257 0 l 136 0 l 136 972 l 258 972 l 689 281 q 729 208 711 244 q 726 279 726 258 l 726 972 l 847 972 l 847 0 z "},"ň":{"ha":782,"x_min":115,"x_max":674,"o":"m 457 800 l 342 800 l 139 1017 l 254 1017 l 400 892 l 546 1017 l 660 1017 l 457 800 m 553 0 l 553 429 q 512 570 553 525 q 400 615 471 615 q 236 432 236 615 l 236 0 l 115 0 l 115 710 l 236 710 l 236 638 q 419 726 301 726 q 609 651 544 726 q 674 408 674 575 l 674 0 l 553 0 z "},"ŉ":{"ha":1049,"x_min":60,"x_max":940,"o":"m 79 646 q 129 710 104 668 q 157 799 154 751 q 88 826 115 801 q 60 890 60 851 q 87 962 60 935 q 153 989 114 989 q 228 958 197 989 q 258 868 258 926 q 219 727 258 792 q 119 625 181 663 l 79 646 m 819 0 l 819 429 q 778 570 819 525 q 667 615 738 615 q 503 432 503 615 l 503 0 l 382 0 l 382 710 l 503 710 l 503 638 q 686 726 568 726 q 876 651 811 726 q 940 408 940 575 l 940 0 l 819 0 z "},"Ŋ":{"ha":983,"x_min":136,"x_max":847,"o":"m 597 -339 l 540 -247 q 681 -187 640 -232 q 722 -71 722 -143 l 722 13 l 293 696 q 254 763 275 722 q 257 694 257 721 l 257 0 l 136 0 l 136 972 l 258 972 l 689 281 q 729 208 711 244 q 726 279 726 258 l 726 972 l 847 972 l 847 -36 q 772 -257 847 -183 q 597 -339 708 -319 z "},"ŋ":{"ha":782,"x_min":115,"x_max":674,"o":"m 429 -318 l 372 -226 q 513 -174 474 -210 q 553 -71 553 -137 l 553 429 q 512 570 553 525 q 400 615 471 615 q 236 432 236 615 l 236 0 l 115 0 l 115 710 l 236 710 l 236 638 q 419 726 301 726 q 609 651 544 726 q 674 408 674 575 l 674 -26 q 619 -221 674 -158 q 429 -318 553 -300 z "},"Ō":{"ha":1014,"x_min":94,"x_max":921,"o":"m 276 1100 l 276 1203 l 735 1203 l 735 1100 l 276 1100 m 507 -17 q 315 27 397 -17 q 185 145 232 71 q 117 305 139 219 q 94 486 94 390 q 117 667 94 582 q 185 827 139 753 q 315 945 232 901 q 507 989 397 989 q 667 960 596 989 q 785 882 739 931 q 863 767 832 833 q 908 631 894 700 q 921 486 921 561 q 908 342 921 411 q 863 206 894 272 q 785 90 832 139 q 667 13 739 42 q 507 -17 596 -17 m 373 131 q 402 114 373 131 q 507 97 431 97 q 642 133 583 97 q 732 226 700 168 q 779 351 764 285 q 794 486 794 417 q 769 673 794 589 q 676 817 743 757 q 507 876 608 876 q 373 841 431 876 q 283 747 315 806 q 235 622 251 688 q 219 486 219 557 q 235 344 219 411 q 283 221 250 278 q 373 131 315 164 z "},"ō":{"ha":775,"x_min":74,"x_max":701,"o":"m 157 838 l 157 940 l 615 940 l 615 838 l 157 838 m 617 83 q 574 33 617 83 q 388 -17 532 -17 q 158 82 243 -17 q 74 354 74 181 q 158 627 74 528 q 388 726 243 726 q 617 628 532 726 q 701 356 701 529 q 617 83 701 182 m 247 165 q 272 130 247 165 q 388 96 297 96 q 528 165 478 96 q 579 356 579 233 q 528 546 579 476 q 388 615 478 615 q 247 547 297 615 q 196 354 196 478 q 247 165 196 233 z "},"Ŏ":{"ha":1014,"x_min":94,"x_max":921,"o":"m 506 1067 q 317 1131 381 1067 q 253 1293 253 1194 l 361 1293 q 401 1202 361 1236 q 506 1168 442 1168 q 611 1202 571 1168 q 651 1293 651 1236 l 760 1293 q 696 1131 760 1194 q 506 1067 632 1067 m 507 -17 q 315 27 397 -17 q 185 145 232 71 q 117 305 139 219 q 94 486 94 390 q 117 667 94 582 q 185 827 139 753 q 315 945 232 901 q 507 989 397 989 q 667 960 596 989 q 785 882 739 931 q 863 767 832 833 q 908 631 894 700 q 921 486 921 561 q 908 342 921 411 q 863 206 894 272 q 785 90 832 139 q 667 13 739 42 q 507 -17 596 -17 m 373 131 q 402 114 373 131 q 507 97 431 97 q 642 133 583 97 q 732 226 700 168 q 779 351 764 285 q 794 486 794 417 q 769 673 794 589 q 676 817 743 757 q 507 876 608 876 q 373 841 431 876 q 283 747 315 806 q 235 622 251 688 q 219 486 219 557 q 235 344 219 411 q 283 221 250 278 q 373 131 315 164 z "},"ŏ":{"ha":775,"x_min":74,"x_max":701,"o":"m 386 804 q 197 868 261 804 q 133 1031 133 932 l 242 1031 q 282 940 242 974 q 386 906 322 906 q 492 940 451 906 q 532 1031 532 974 l 640 1031 q 576 868 640 932 q 386 804 513 804 m 617 83 q 574 33 617 83 q 388 -17 532 -17 q 158 82 243 -17 q 74 354 74 181 q 158 627 74 528 q 388 726 243 726 q 617 628 532 726 q 701 356 701 529 q 617 83 701 182 m 247 165 q 272 130 247 165 q 388 96 297 96 q 528 165 478 96 q 579 356 579 233 q 528 546 579 476 q 388 615 478 615 q 247 547 297 615 q 196 354 196 478 q 247 165 196 233 z "},"Ő":{"ha":1014,"x_min":94,"x_max":921,"o":"m 379 1063 l 257 1063 l 454 1279 l 626 1279 l 379 1063 m 663 1063 l 540 1063 l 738 1279 l 910 1279 l 663 1063 m 507 -17 q 315 27 397 -17 q 185 145 232 71 q 117 305 139 219 q 94 486 94 390 q 117 667 94 582 q 185 827 139 753 q 315 945 232 901 q 507 989 397 989 q 667 960 596 989 q 785 882 739 931 q 863 767 832 833 q 908 631 894 700 q 921 486 921 561 q 908 342 921 411 q 863 206 894 272 q 785 90 832 139 q 667 13 739 42 q 507 -17 596 -17 m 373 131 q 402 114 373 131 q 507 97 431 97 q 642 133 583 97 q 732 226 700 168 q 779 351 764 285 q 794 486 794 417 q 769 673 794 589 q 676 817 743 757 q 507 876 608 876 q 373 841 431 876 q 283 747 315 806 q 235 622 251 688 q 219 486 219 557 q 235 344 219 411 q 283 221 250 278 q 373 131 315 164 z "},"ő":{"ha":775,"x_min":74,"x_max":789,"o":"m 258 800 l 136 800 l 333 1017 l 506 1017 l 258 800 m 542 800 l 419 800 l 617 1017 l 789 1017 l 542 800 m 617 83 q 574 33 617 83 q 388 -17 532 -17 q 158 82 243 -17 q 74 354 74 181 q 158 627 74 528 q 388 726 243 726 q 617 628 532 726 q 701 356 701 529 q 617 83 701 182 m 247 165 q 272 130 247 165 q 388 96 297 96 q 528 165 478 96 q 579 356 579 233 q 528 546 579 476 q 388 615 478 615 q 247 547 297 615 q 196 354 196 478 q 247 165 196 233 z "},"Œ":{"ha":1253,"x_min":94,"x_max":1194,"o":"m 660 0 l 660 11 q 507 -17 593 -17 q 315 27 397 -17 q 185 145 232 71 q 117 305 139 219 q 94 486 94 390 q 107 628 94 560 q 151 764 119 697 q 228 880 182 831 q 346 959 274 929 q 507 989 418 989 q 660 961 593 989 l 660 972 l 1164 972 l 1164 858 l 781 858 l 781 560 l 1008 560 l 1008 446 l 781 446 l 781 115 l 1194 115 l 1194 0 l 660 0 m 507 97 q 660 143 592 97 l 660 831 q 507 876 596 876 q 396 852 446 876 q 313 790 346 828 q 259 699 281 751 q 228 594 238 647 q 219 486 219 542 q 235 343 219 410 q 283 220 250 276 q 373 131 315 164 q 507 97 431 97 z "},"œ":{"ha":1251,"x_min":74,"x_max":1186,"o":"m 388 -17 q 158 81 243 -17 q 74 354 74 179 q 158 627 74 528 q 388 726 243 726 q 640 594 553 726 q 892 726 724 726 q 1103 641 1021 726 q 1186 389 1186 556 q 1182 308 1186 350 l 701 308 q 762 152 708 211 q 894 93 815 93 q 1049 157 985 93 l 1122 75 q 892 -17 1031 -17 q 642 119 731 -17 q 388 -17 557 -17 m 700 411 l 1064 411 q 1011 570 1063 521 q 892 619 960 619 q 758 567 811 619 q 700 411 706 515 m 247 165 q 272 130 247 165 q 388 96 297 96 q 528 165 478 96 q 579 356 579 233 q 528 546 579 476 q 388 615 478 615 q 247 547 297 615 q 196 354 196 478 q 247 165 196 233 z "},"Ŕ":{"ha":924,"x_min":136,"x_max":826,"o":"m 293 1063 l 490 1279 l 663 1279 l 415 1063 l 293 1063 m 136 0 l 136 972 l 519 972 q 753 893 681 972 q 826 696 826 814 q 770 524 826 600 q 600 425 714 449 l 808 0 l 672 0 l 472 417 l 257 417 l 257 0 l 136 0 m 257 529 l 522 529 q 660 576 617 529 q 704 693 704 624 q 662 810 704 760 q 522 860 619 860 l 257 860 l 257 529 z "},"ŕ":{"ha":540,"x_min":115,"x_max":539,"o":"m 169 800 l 367 1017 l 539 1017 l 292 800 l 169 800 m 115 0 l 115 710 l 236 710 l 236 617 q 404 726 286 726 q 514 690 471 726 l 496 576 q 394 607 451 607 q 284 558 332 607 q 236 400 236 510 l 236 0 l 115 0 z "},"Ŗ":{"ha":924,"x_min":136,"x_max":826,"o":"m 136 0 l 136 972 l 519 972 q 753 893 681 972 q 826 696 826 814 q 770 524 826 600 q 600 425 714 449 l 808 0 l 672 0 l 472 417 l 257 417 l 257 0 l 136 0 m 257 529 l 522 529 q 660 576 617 529 q 704 693 704 624 q 662 810 704 760 q 522 860 619 860 l 257 860 l 257 529 m 404 -335 q 467 -235 453 -293 q 406 -212 429 -235 q 383 -154 383 -189 q 408 -95 383 -118 q 464 -72 432 -72 q 524 -97 499 -72 q 549 -162 549 -121 q 440 -353 549 -278 l 404 -335 z "},"ŗ":{"ha":540,"x_min":96,"x_max":514,"o":"m 115 0 l 115 710 l 236 710 l 236 617 q 404 726 286 726 q 514 690 471 726 l 496 576 q 394 607 451 607 q 284 558 332 607 q 236 400 236 510 l 236 0 l 115 0 m 117 -362 q 179 -262 165 -321 q 119 -240 142 -262 q 96 -182 96 -217 q 120 -123 96 -146 q 176 -100 144 -100 q 236 -124 211 -100 q 261 -190 261 -149 q 153 -381 261 -306 l 117 -362 z "},"Ř":{"ha":924,"x_min":136,"x_max":826,"o":"m 507 1063 l 392 1063 l 189 1279 l 304 1279 l 450 1154 l 596 1279 l 710 1279 l 507 1063 m 136 0 l 136 972 l 519 972 q 753 893 681 972 q 826 696 826 814 q 770 524 826 600 q 600 425 714 449 l 808 0 l 672 0 l 472 417 l 257 417 l 257 0 l 136 0 m 257 529 l 522 529 q 660 576 617 529 q 704 693 704 624 q 662 810 704 760 q 522 860 619 860 l 257 860 l 257 529 z "},"ř":{"ha":540,"x_min":65,"x_max":586,"o":"m 383 800 l 268 800 l 65 1017 l 181 1017 l 326 892 l 472 1017 l 586 1017 l 383 800 m 115 0 l 115 710 l 236 710 l 236 617 q 404 726 286 726 q 514 690 471 726 l 496 576 q 394 607 451 607 q 284 558 332 607 q 236 400 236 510 l 236 0 l 115 0 z "},"Ś":{"ha":832,"x_min":81,"x_max":739,"o":"m 279 1063 l 476 1279 l 649 1279 l 401 1063 l 279 1063 m 419 -17 q 205 44 296 -17 q 81 200 114 104 l 194 242 q 285 136 225 175 q 422 97 344 97 q 563 140 511 97 q 614 261 614 182 q 556 383 614 338 q 394 467 499 429 q 312 499 344 485 q 237 538 279 513 q 169 591 194 564 q 127 659 144 618 q 110 749 110 700 q 190 919 110 850 q 408 989 271 989 q 596 941 521 989 q 693 815 671 893 l 582 778 q 515 849 563 821 q 400 876 468 876 q 279 842 324 876 q 235 749 235 808 q 251 690 235 717 q 301 643 267 664 q 364 610 335 622 q 444 578 393 597 q 550 533 508 554 q 640 475 592 511 q 714 385 689 439 q 739 264 739 332 q 650 58 739 133 q 419 -17 561 -17 z "},"ś":{"ha":651,"x_min":68,"x_max":578,"o":"m 183 800 l 381 1017 l 553 1017 l 306 800 l 183 800 m 325 -17 q 180 16 249 -17 q 68 103 111 49 l 154 176 q 328 92 233 92 q 424 115 388 92 q 460 182 460 138 q 433 242 460 215 q 379 283 407 269 q 297 317 351 296 q 133 407 189 357 q 78 539 78 457 q 145 676 78 625 q 317 726 213 726 q 556 619 465 726 l 472 550 q 315 618 407 618 q 229 597 261 618 q 197 539 197 576 q 208 501 197 518 q 245 468 218 483 q 288 445 272 453 q 347 421 304 438 q 519 329 460 381 q 578 185 578 278 q 510 37 578 90 q 325 -17 442 -17 z "},"Ŝ":{"ha":832,"x_min":81,"x_max":739,"o":"m 556 1063 l 410 1188 l 264 1063 l 149 1063 l 353 1279 l 467 1279 l 669 1063 l 556 1063 m 419 -17 q 205 44 296 -17 q 81 200 114 104 l 194 242 q 285 136 225 175 q 422 97 344 97 q 563 140 511 97 q 614 261 614 182 q 556 383 614 338 q 394 467 499 429 q 312 499 344 485 q 237 538 279 513 q 169 591 194 564 q 127 659 144 618 q 110 749 110 700 q 190 919 110 850 q 408 989 271 989 q 596 941 521 989 q 693 815 671 893 l 582 778 q 515 849 563 821 q 400 876 468 876 q 279 842 324 876 q 235 749 235 808 q 251 690 235 717 q 301 643 267 664 q 364 610 335 622 q 444 578 393 597 q 550 533 508 554 q 640 475 592 511 q 714 385 689 439 q 739 264 739 332 q 650 58 739 133 q 419 -17 561 -17 z "},"ŝ":{"ha":651,"x_min":56,"x_max":578,"o":"m 463 800 l 317 925 l 171 800 l 56 800 l 260 1017 l 374 1017 l 576 800 l 463 800 m 325 -17 q 180 16 249 -17 q 68 103 111 49 l 154 176 q 328 92 233 92 q 424 115 388 92 q 460 182 460 138 q 433 242 460 215 q 379 283 407 269 q 297 317 351 296 q 133 407 189 357 q 78 539 78 457 q 145 676 78 625 q 317 726 213 726 q 556 619 465 726 l 472 550 q 315 618 407 618 q 229 597 261 618 q 197 539 197 576 q 208 501 197 518 q 245 468 218 483 q 288 445 272 453 q 347 421 304 438 q 519 329 460 381 q 578 185 578 278 q 510 37 578 90 q 325 -17 442 -17 z "},"Ş":{"ha":832,"x_min":81,"x_max":739,"o":"m 413 -329 q 282 -283 331 -329 l 349 -236 q 401 -254 363 -254 q 452 -235 432 -254 q 472 -187 472 -217 q 449 -143 472 -161 q 393 -125 425 -125 q 340 -135 360 -125 l 318 -107 l 390 -15 q 194 51 276 -8 q 81 200 111 110 l 194 242 q 283 137 224 175 q 422 99 343 99 q 562 140 511 99 q 613 261 613 182 q 555 383 613 336 q 394 467 497 429 q 290 509 329 490 q 203 561 251 528 q 133 641 156 594 q 110 749 110 688 q 190 919 110 850 q 408 989 271 989 q 596 941 521 989 q 693 815 671 893 l 582 778 q 515 848 563 821 q 400 875 468 875 q 280 842 324 875 q 236 749 236 808 q 289 652 236 689 q 444 578 342 615 q 550 533 508 554 q 640 476 592 513 q 714 385 689 439 q 739 264 739 332 q 663 69 739 143 q 464 -15 588 -4 l 429 -74 q 542 -107 506 -74 q 578 -189 578 -140 q 531 -290 578 -250 q 413 -329 485 -329 z "},"ş":{"ha":651,"x_min":68,"x_max":578,"o":"m 301 -329 q 171 -283 219 -329 l 238 -236 q 290 -254 251 -254 q 341 -235 321 -254 q 361 -187 361 -217 q 338 -143 361 -161 q 282 -125 314 -125 q 229 -135 249 -125 l 207 -107 l 281 -14 q 68 103 143 6 l 154 176 q 328 92 233 92 q 424 115 388 92 q 460 182 460 138 q 457 206 460 194 q 447 227 454 217 q 432 245 439 238 q 411 262 425 253 q 389 276 397 271 q 361 290 381 281 q 333 302 342 299 q 303 315 325 306 q 272 326 281 324 q 199 361 226 346 q 139 402 171 376 q 92 461 107 428 q 78 539 78 494 q 145 676 78 625 q 317 726 213 726 q 556 619 465 726 l 472 550 q 315 618 407 618 q 229 597 261 618 q 197 539 197 576 q 222 488 197 511 q 270 453 247 464 q 350 421 293 443 q 367 414 361 417 q 428 388 404 399 q 484 356 453 376 q 533 315 515 336 q 565 259 551 293 q 578 185 578 225 q 517 43 578 96 q 353 -15 457 -10 l 318 -74 q 431 -107 394 -74 q 467 -189 467 -140 q 420 -290 467 -250 q 301 -329 374 -329 z "},"Š":{"ha":832,"x_min":81,"x_max":739,"o":"m 467 1063 l 351 1063 l 149 1279 l 264 1279 l 410 1154 l 556 1279 l 669 1279 l 467 1063 m 419 -17 q 205 44 296 -17 q 81 200 114 104 l 194 242 q 285 136 225 175 q 422 97 344 97 q 563 140 511 97 q 614 261 614 182 q 556 383 614 338 q 394 467 499 429 q 312 499 344 485 q 237 538 279 513 q 169 591 194 564 q 127 659 144 618 q 110 749 110 700 q 190 919 110 850 q 408 989 271 989 q 596 941 521 989 q 693 815 671 893 l 582 778 q 515 849 563 821 q 400 876 468 876 q 279 842 324 876 q 235 749 235 808 q 251 690 235 717 q 301 643 267 664 q 364 610 335 622 q 444 578 393 597 q 550 533 508 554 q 640 475 592 511 q 714 385 689 439 q 739 264 739 332 q 650 58 739 133 q 419 -17 561 -17 z "},"š":{"ha":651,"x_min":56,"x_max":578,"o":"m 374 800 l 258 800 l 56 1017 l 171 1017 l 317 892 l 463 1017 l 576 1017 l 374 800 m 325 -17 q 180 16 249 -17 q 68 103 111 49 l 154 176 q 328 92 233 92 q 424 115 388 92 q 460 182 460 138 q 433 242 460 215 q 379 283 407 269 q 297 317 351 296 q 133 407 189 357 q 78 539 78 457 q 145 676 78 625 q 317 726 213 726 q 556 619 465 726 l 472 550 q 315 618 407 618 q 229 597 261 618 q 197 539 197 576 q 208 501 197 518 q 245 468 218 483 q 288 445 272 453 q 347 421 304 438 q 519 329 460 381 q 578 185 578 278 q 510 37 578 90 q 325 -17 442 -17 z "},"Ţ":{"ha":810,"x_min":74,"x_max":736,"o":"m 378 -329 q 247 -283 296 -329 l 315 -236 q 367 -254 329 -254 q 418 -235 397 -254 q 439 -187 439 -217 q 415 -143 439 -161 q 358 -125 390 -125 q 306 -135 325 -125 l 283 -107 l 369 0 l 344 0 l 344 858 l 74 858 l 74 972 l 736 972 l 736 858 l 465 858 l 465 0 l 440 0 l 394 -74 q 508 -107 471 -74 q 544 -189 544 -140 q 498 -290 544 -250 q 378 -329 451 -329 z "},"ţ":{"ha":519,"x_min":42,"x_max":457,"o":"m 256 -329 q 125 -283 174 -329 l 193 -236 q 244 -254 207 -254 q 296 -235 275 -254 q 317 -187 317 -217 q 292 -143 317 -161 q 236 -125 268 -125 q 183 -135 203 -125 l 161 -107 l 242 -6 q 157 153 157 28 l 157 604 l 42 604 l 42 710 l 157 710 l 157 944 l 278 1003 l 278 710 l 453 710 l 453 604 l 278 604 l 278 193 q 293 121 278 146 q 351 96 308 96 q 457 133 399 96 l 443 15 q 324 -17 389 -12 l 307 -17 l 272 -74 q 385 -107 349 -74 q 422 -189 422 -140 q 376 -290 422 -250 q 256 -329 329 -329 z "},"Ť":{"ha":810,"x_min":74,"x_max":736,"o":"m 463 1063 l 347 1063 l 144 1279 l 260 1279 l 406 1154 l 551 1279 l 665 1279 l 463 1063 m 465 857 l 465 0 l 344 0 l 344 857 l 74 857 l 74 972 l 736 972 l 736 857 l 465 857 z "},"ť":{"ha":579,"x_min":42,"x_max":553,"o":"m 553 1167 l 553 1156 q 429 839 553 961 l 393 865 q 423 992 411 904 q 435 1167 435 1081 l 553 1167 m 307 -17 q 157 153 157 -17 l 157 604 l 42 604 l 42 710 l 157 710 l 157 944 l 278 1003 l 278 710 l 453 710 l 453 604 l 278 604 l 278 193 q 293 121 278 146 q 351 96 308 96 q 457 133 399 96 l 443 15 q 307 -17 382 -17 z "},"Ŧ":{"ha":803,"x_min":74,"x_max":729,"o":"m 729 857 l 461 857 l 461 499 l 633 499 l 633 383 l 461 383 l 461 0 l 340 0 l 340 383 l 167 383 l 167 499 l 340 499 l 340 857 l 74 857 l 74 972 l 729 972 l 729 857 z "},"ŧ":{"ha":547,"x_min":60,"x_max":475,"o":"m 324 -17 q 175 153 175 -17 l 175 315 l 60 315 l 60 421 l 175 421 l 175 604 l 60 604 l 60 710 l 175 710 l 175 944 l 296 1003 l 296 710 l 469 710 l 469 604 l 296 604 l 296 421 l 469 421 l 469 315 l 296 315 l 296 193 q 311 121 296 146 q 368 96 326 96 q 475 133 414 96 l 460 15 q 324 -17 399 -17 z "},"Ũ":{"ha":957,"x_min":129,"x_max":828,"o":"m 588 1089 q 462 1123 535 1089 q 358 1157 389 1157 q 313 1141 331 1157 q 293 1094 294 1125 l 231 1094 q 368 1261 231 1261 q 494 1226 421 1261 q 597 1192 567 1192 q 642 1208 624 1192 q 663 1256 661 1225 l 725 1256 q 588 1089 725 1089 m 478 -17 q 129 365 129 -17 l 129 972 l 250 972 l 250 365 q 311 157 250 217 q 478 97 372 97 q 645 157 583 97 q 707 365 707 217 l 707 972 l 828 972 l 828 365 q 478 -17 828 -17 z "},"ũ":{"ha":782,"x_min":108,"x_max":667,"o":"m 496 826 q 370 860 443 826 q 267 894 297 894 q 221 878 239 894 q 201 832 203 863 l 139 832 q 276 999 139 999 q 402 964 329 999 q 506 929 475 929 q 551 946 532 929 q 571 993 569 963 l 633 993 q 496 826 633 826 m 546 0 l 546 68 q 367 -17 481 -17 q 173 58 238 -17 q 108 300 108 133 l 108 710 l 229 710 l 229 282 q 270 141 229 186 q 382 96 311 96 q 546 279 546 96 l 546 710 l 667 710 l 667 0 l 546 0 z "},"Ū":{"ha":957,"x_min":129,"x_max":828,"o":"m 249 1100 l 249 1203 l 707 1203 l 707 1100 l 249 1100 m 478 -17 q 129 365 129 -17 l 129 972 l 250 972 l 250 365 q 311 157 250 217 q 478 97 372 97 q 645 157 583 97 q 707 365 707 217 l 707 972 l 828 972 l 828 365 q 478 -17 828 -17 z "},"ū":{"ha":782,"x_min":108,"x_max":667,"o":"m 157 838 l 157 940 l 615 940 l 615 838 l 157 838 m 546 0 l 546 68 q 367 -17 481 -17 q 173 58 238 -17 q 108 300 108 133 l 108 710 l 229 710 l 229 282 q 270 141 229 186 q 382 96 311 96 q 546 279 546 96 l 546 710 l 667 710 l 667 0 l 546 0 z "},"Ŭ":{"ha":957,"x_min":129,"x_max":828,"o":"m 478 1067 q 289 1131 353 1067 q 225 1293 225 1194 l 333 1293 q 374 1202 333 1236 q 478 1168 414 1168 q 583 1202 543 1168 q 624 1293 624 1236 l 732 1293 q 668 1131 732 1194 q 478 1067 604 1067 m 478 -17 q 129 365 129 -17 l 129 972 l 250 972 l 250 365 q 311 157 250 217 q 478 97 372 97 q 645 157 583 97 q 707 365 707 217 l 707 972 l 828 972 l 828 365 q 478 -17 828 -17 z "},"ŭ":{"ha":782,"x_min":108,"x_max":667,"o":"m 386 804 q 197 868 261 804 q 133 1031 133 932 l 242 1031 q 282 940 242 974 q 386 906 322 906 q 492 940 451 906 q 532 1031 532 974 l 640 1031 q 576 868 640 932 q 386 804 513 804 m 546 0 l 546 68 q 367 -17 481 -17 q 173 58 238 -17 q 108 300 108 133 l 108 710 l 229 710 l 229 282 q 270 141 229 186 q 382 96 311 96 q 546 279 546 96 l 546 710 l 667 710 l 667 0 l 546 0 z "},"Ů":{"ha":957,"x_min":129,"x_max":828,"o":"m 479 1007 q 363 1056 411 1007 q 314 1171 314 1104 q 363 1285 314 1238 q 479 1332 411 1332 q 595 1285 546 1332 q 644 1171 644 1238 q 595 1056 644 1104 q 479 1007 546 1007 m 429 1117 q 440 1107 429 1117 q 479 1096 450 1096 q 528 1117 508 1096 q 549 1171 549 1139 q 528 1224 549 1204 q 479 1244 508 1244 q 429 1224 450 1244 q 408 1171 408 1203 q 429 1117 408 1139 m 478 -17 q 129 365 129 -17 l 129 972 l 250 972 l 250 365 q 311 157 250 217 q 478 97 372 97 q 645 157 583 97 q 707 365 707 217 l 707 972 l 828 972 l 828 365 q 478 -17 828 -17 z "},"ů":{"ha":782,"x_min":108,"x_max":667,"o":"m 386 744 q 269 793 318 744 q 221 908 221 842 q 269 1022 221 975 q 386 1069 318 1069 q 502 1022 453 1069 q 551 908 551 975 q 502 793 551 842 q 386 744 453 744 m 336 855 q 347 844 336 855 q 386 833 357 833 q 435 855 415 833 q 456 908 456 876 q 435 962 456 942 q 386 982 415 982 q 335 962 356 982 q 315 908 315 942 q 336 855 315 876 m 546 0 l 546 68 q 367 -17 481 -17 q 173 58 238 -17 q 108 300 108 133 l 108 710 l 229 710 l 229 282 q 270 141 229 186 q 382 96 311 96 q 546 279 546 96 l 546 710 l 667 710 l 667 0 l 546 0 z "},"Ű":{"ha":957,"x_min":129,"x_max":888,"o":"m 357 1063 l 235 1063 l 432 1279 l 604 1279 l 357 1063 m 640 1063 l 518 1063 l 715 1279 l 888 1279 l 640 1063 m 478 -17 q 129 365 129 -17 l 129 972 l 250 972 l 250 365 q 311 157 250 217 q 478 97 372 97 q 645 157 583 97 q 707 365 707 217 l 707 972 l 828 972 l 828 365 q 478 -17 828 -17 z "},"ű":{"ha":782,"x_min":108,"x_max":790,"o":"m 260 800 l 138 800 l 335 1017 l 507 1017 l 260 800 m 543 800 l 421 800 l 618 1017 l 790 1017 l 543 800 m 546 0 l 546 68 q 367 -17 481 -17 q 173 58 238 -17 q 108 300 108 133 l 108 710 l 229 710 l 229 282 q 270 141 229 186 q 382 96 311 96 q 546 279 546 96 l 546 710 l 667 710 l 667 0 l 546 0 z "},"Ų":{"ha":957,"x_min":129,"x_max":828,"o":"m 515 -329 q 401 -292 446 -329 q 356 -189 356 -254 q 475 -17 356 -82 l 464 -17 q 129 365 129 -7 l 129 972 l 250 972 l 250 365 q 311 157 250 217 q 481 97 372 97 q 707 365 707 97 l 707 972 l 828 972 l 828 365 q 777 130 828 213 q 633 7 726 47 q 457 -176 457 -71 q 478 -233 457 -214 q 529 -253 499 -253 q 596 -224 569 -253 l 658 -269 q 515 -329 604 -329 z "},"ų":{"ha":782,"x_min":108,"x_max":692,"o":"m 549 -329 q 434 -292 479 -329 q 389 -189 389 -254 q 546 0 389 -65 l 546 68 q 367 -17 481 -17 q 173 58 238 -17 q 108 300 108 133 l 108 710 l 229 710 l 229 282 q 270 141 229 186 q 382 96 311 96 q 546 279 546 96 l 546 710 l 667 710 l 667 0 q 534 -74 578 -26 q 490 -176 490 -122 q 511 -233 490 -214 q 563 -253 532 -253 q 629 -224 603 -253 l 692 -269 q 549 -329 638 -329 z "},"Ŵ":{"ha":1167,"x_min":69,"x_max":1097,"o":"m 729 1063 l 583 1188 l 438 1063 l 322 1063 l 526 1279 l 640 1279 l 843 1063 l 729 1063 m 268 0 l 69 972 l 196 972 l 315 339 q 333 235 328 276 q 360 338 333 236 l 532 972 l 628 972 l 801 339 q 824 244 818 276 q 842 340 829 281 l 974 972 l 1097 972 l 886 0 l 790 0 l 603 664 q 578 760 582 740 q 554 664 571 722 l 367 0 l 268 0 z "},"ŵ":{"ha":993,"x_min":53,"x_max":942,"o":"m 643 800 l 497 925 l 351 800 l 236 800 l 440 1017 l 554 1017 l 757 800 l 643 800 m 235 0 l 53 710 l 172 710 l 281 233 q 288 199 282 225 q 296 158 293 172 q 314 233 299 178 l 447 710 l 547 710 l 681 233 l 700 156 q 708 194 703 168 q 715 233 713 221 l 822 710 l 942 710 l 760 0 l 651 0 l 522 421 q 496 514 503 483 q 471 421 482 456 l 343 0 l 235 0 z "},"Ŷ":{"ha":890,"x_min":56,"x_max":835,"o":"m 592 1063 l 446 1188 l 300 1063 l 185 1063 l 389 1279 l 503 1279 l 706 1063 l 592 1063 m 386 0 l 386 382 l 56 972 l 192 972 l 446 500 l 703 972 l 835 972 l 507 385 l 507 0 l 386 0 z "},"ŷ":{"ha":736,"x_min":46,"x_max":690,"o":"m 511 800 l 365 925 l 219 800 l 104 800 l 308 1017 l 422 1017 l 625 800 l 511 800 m 200 -269 l 308 18 l 46 710 l 167 710 l 343 226 q 365 158 353 203 q 388 226 378 203 l 567 710 l 690 710 l 322 -269 l 200 -269 z "},"Ÿ":{"ha":890,"x_min":56,"x_max":835,"o":"m 379 1117 q 368 1106 379 1117 q 325 1094 357 1094 q 271 1117 293 1094 q 249 1171 249 1139 q 271 1225 249 1203 q 325 1247 293 1247 q 379 1225 357 1247 q 401 1171 401 1203 q 379 1117 401 1139 m 619 1117 q 608 1106 619 1117 q 565 1094 597 1094 q 511 1117 533 1094 q 489 1171 489 1139 q 511 1225 489 1203 q 565 1247 533 1247 q 619 1225 597 1247 q 642 1171 642 1203 q 619 1117 642 1139 m 386 0 l 386 382 l 56 972 l 192 972 l 446 500 l 703 972 l 835 972 l 507 385 l 507 0 l 386 0 z "},"Ź":{"ha":903,"x_min":88,"x_max":808,"o":"m 332 1063 l 529 1279 l 701 1279 l 454 1063 l 332 1063 m 88 0 l 88 93 l 651 857 l 119 857 l 119 972 l 808 972 l 808 879 l 247 115 l 808 115 l 808 0 l 88 0 z "},"ź":{"ha":701,"x_min":88,"x_max":608,"o":"m 224 800 l 421 1017 l 593 1017 l 346 800 l 224 800 m 88 0 l 88 89 l 457 603 l 115 603 l 115 710 l 608 710 l 608 624 l 238 108 l 607 108 l 607 0 l 88 0 z "},"Ż":{"ha":903,"x_min":88,"x_max":808,"o":"m 518 1117 q 507 1106 518 1117 q 464 1094 496 1094 q 410 1117 432 1094 q 388 1171 388 1139 q 410 1225 388 1203 q 464 1247 432 1247 q 518 1225 496 1247 q 540 1171 540 1203 q 518 1117 540 1139 m 88 0 l 88 93 l 651 857 l 119 857 l 119 972 l 808 972 l 808 879 l 247 115 l 808 115 l 808 0 l 88 0 z "},"ż":{"ha":701,"x_min":88,"x_max":608,"o":"m 413 854 q 401 843 413 854 q 358 832 390 832 q 304 854 326 832 q 282 908 282 876 q 304 963 282 940 q 358 985 326 985 q 413 963 390 985 q 435 908 435 940 q 413 854 435 876 m 88 0 l 88 89 l 457 603 l 115 603 l 115 710 l 608 710 l 608 624 l 238 108 l 607 108 l 607 0 l 88 0 z "},"Ž":{"ha":903,"x_min":88,"x_max":808,"o":"m 539 1063 l 424 1063 l 221 1279 l 336 1279 l 482 1154 l 628 1279 l 742 1279 l 539 1063 m 88 0 l 88 93 l 651 857 l 119 857 l 119 972 l 808 972 l 808 879 l 247 115 l 808 115 l 808 0 l 88 0 z "},"ž":{"ha":701,"x_min":88,"x_max":618,"o":"m 415 800 l 300 800 l 97 1017 l 213 1017 l 358 892 l 504 1017 l 618 1017 l 415 800 m 88 0 l 88 89 l 457 603 l 115 603 l 115 710 l 608 710 l 608 624 l 238 108 l 607 108 l 607 0 l 88 0 z "},"ſ":{"ha":425,"x_min":122,"x_max":408,"o":"m 122 0 l 122 828 q 166 951 122 914 q 276 989 210 989 q 408 956 346 989 l 408 854 q 307 881 353 881 q 256 862 268 881 q 243 807 243 843 l 243 0 l 122 0 z "},"ƒ":{"ha":510,"x_min":1,"x_max":471,"o":"m 61 -318 l 1 -222 q 144 -167 103 -206 q 185 -60 185 -128 l 185 604 l 75 604 l 75 710 l 185 710 l 185 828 q 229 951 185 914 q 340 989 274 989 q 471 956 411 989 l 471 856 q 369 881 408 881 q 319 861 332 881 q 306 807 306 842 l 306 710 l 471 710 l 471 604 l 306 604 l 306 -33 q 242 -231 306 -164 q 61 -318 179 -299 z "},"Ǎ":{"ha":943,"x_min":71,"x_max":872,"o":"m 529 1063 l 414 1063 l 211 1279 l 326 1279 l 472 1154 l 618 1279 l 732 1279 l 529 1063 m 749 0 l 665 238 l 279 238 l 197 0 l 71 0 l 415 972 l 528 972 l 872 0 l 749 0 m 628 344 l 503 704 q 472 803 479 772 q 442 704 457 749 l 315 344 l 628 344 z "},"ǎ":{"ha":731,"x_min":74,"x_max":643,"o":"m 440 800 l 325 800 l 122 1017 l 238 1017 l 383 892 l 529 1017 l 643 1017 l 440 800 m 522 0 l 522 65 q 321 -17 435 -17 q 141 45 208 -17 q 74 222 74 107 q 150 397 74 338 q 339 457 226 457 q 522 411 442 457 l 522 461 q 483 585 522 550 q 368 621 443 621 q 161 550 261 621 l 126 651 q 383 726 240 726 q 636 471 636 726 l 636 0 l 522 0 m 339 90 q 522 183 443 90 l 522 306 q 356 353 446 353 q 235 319 282 353 q 188 222 188 286 q 227 126 188 163 q 339 90 267 90 z "},"Ǐ":{"ha":399,"x_min":-61,"x_max":460,"o":"m 257 1063 l 142 1063 l -61 1279 l 54 1279 l 200 1154 l 346 1279 l 460 1279 l 257 1063 m 139 0 l 139 972 l 260 972 l 260 0 l 139 0 z "},"ǐ":{"ha":353,"x_min":-85,"x_max":436,"o":"m 233 800 l 118 800 l -85 1017 l 31 1017 l 176 892 l 322 1017 l 436 1017 l 233 800 m 117 0 l 117 710 l 238 710 l 238 0 l 117 0 z "},"Ǒ":{"ha":1014,"x_min":94,"x_max":921,"o":"m 564 1063 l 449 1063 l 246 1279 l 361 1279 l 507 1154 l 653 1279 l 767 1279 l 564 1063 m 507 -17 q 315 27 397 -17 q 185 145 232 71 q 117 305 139 219 q 94 486 94 390 q 117 667 94 582 q 185 827 139 753 q 315 945 232 901 q 507 989 397 989 q 667 960 596 989 q 785 882 739 931 q 863 767 832 833 q 908 631 894 700 q 921 486 921 561 q 908 342 921 411 q 863 206 894 272 q 785 90 832 139 q 667 13 739 42 q 507 -17 596 -17 m 373 131 q 402 114 373 131 q 507 97 431 97 q 642 133 583 97 q 732 226 700 168 q 779 351 764 285 q 794 486 794 417 q 769 673 794 589 q 676 817 743 757 q 507 876 608 876 q 373 841 431 876 q 283 747 315 806 q 235 622 251 688 q 219 486 219 557 q 235 344 219 411 q 283 221 250 278 q 373 131 315 164 z "},"ǒ":{"ha":775,"x_min":74,"x_max":701,"o":"m 444 800 l 329 800 l 126 1017 l 242 1017 l 388 892 l 533 1017 l 647 1017 l 444 800 m 617 83 q 574 33 617 83 q 388 -17 532 -17 q 158 82 243 -17 q 74 354 74 181 q 158 627 74 528 q 388 726 243 726 q 617 628 532 726 q 701 356 701 529 q 617 83 701 182 m 247 165 q 272 130 247 165 q 388 96 297 96 q 528 165 478 96 q 579 356 579 233 q 528 546 579 476 q 388 615 478 615 q 247 547 297 615 q 196 354 196 478 q 247 165 196 233 z "},"Ǔ":{"ha":957,"x_min":129,"x_max":828,"o":"m 536 1063 l 421 1063 l 218 1279 l 333 1279 l 479 1154 l 625 1279 l 739 1279 l 536 1063 m 478 -17 q 129 365 129 -17 l 129 972 l 250 972 l 250 365 q 311 157 250 217 q 478 97 372 97 q 645 157 583 97 q 707 365 707 217 l 707 972 l 828 972 l 828 365 q 478 -17 828 -17 z "},"ǔ":{"ha":782,"x_min":108,"x_max":667,"o":"m 440 800 l 325 800 l 122 1017 l 238 1017 l 383 892 l 529 1017 l 643 1017 l 440 800 m 546 0 l 546 68 q 367 -17 481 -17 q 173 58 238 -17 q 108 300 108 133 l 108 710 l 229 710 l 229 282 q 270 141 229 186 q 382 96 311 96 q 546 279 546 96 l 546 710 l 667 710 l 667 0 l 546 0 z "},"Ǽ":{"ha":1186,"x_min":-19,"x_max":1108,"o":"m 540 1063 l 738 1279 l 910 1279 l 663 1063 l 540 1063 m -19 0 l 546 972 l 1078 972 l 1078 858 l 699 858 l 699 560 l 936 560 l 936 446 l 699 446 l 699 115 l 1108 115 l 1108 0 l 578 0 l 578 238 l 249 238 l 114 0 l -19 0 m 310 346 l 578 346 l 578 825 q 528 731 563 792 l 310 346 z "},"ǽ":{"ha":1190,"x_min":74,"x_max":1125,"o":"m 471 800 l 668 1017 l 840 1017 l 593 800 l 471 800 m 321 -17 q 141 45 208 -17 q 74 222 74 107 q 150 397 74 338 q 339 457 226 457 q 522 411 442 457 l 522 461 q 484 583 522 546 q 368 621 446 621 q 161 550 261 621 l 126 651 q 383 726 240 726 q 597 621 539 726 q 831 726 682 726 q 1044 639 963 726 q 1125 389 1125 551 q 1121 308 1125 350 l 640 308 q 702 151 649 208 q 833 93 756 93 q 988 157 924 93 l 1061 75 q 831 -17 969 -17 q 581 115 669 -17 q 457 15 528 47 q 321 -17 386 -17 m 639 414 l 1003 414 q 950 571 1001 522 q 832 619 899 619 q 697 568 750 619 q 639 414 644 517 m 339 90 q 448 122 397 90 q 532 199 499 153 q 522 306 525 246 q 356 353 442 353 q 235 319 282 353 q 188 222 188 286 q 227 126 188 163 q 339 90 267 90 z "},"Ǿ":{"ha":1007,"x_min":90,"x_max":917,"o":"m 347 1063 l 544 1279 l 717 1279 l 469 1063 l 347 1063 m 103 -17 l 197 124 q 90 486 90 260 q 103 631 90 561 q 148 767 117 700 q 226 882 179 833 q 344 960 272 931 q 504 989 415 989 q 735 921 638 989 l 781 989 l 906 989 l 810 849 q 917 486 917 713 q 894 305 917 390 q 826 145 872 219 q 697 27 779 71 q 504 -17 614 -17 q 272 53 368 -17 l 225 -17 l 103 -17 m 272 235 l 668 821 q 504 876 599 876 q 369 841 428 876 q 279 747 311 806 q 232 622 247 688 q 217 486 217 557 q 272 235 217 332 m 504 97 q 638 133 581 97 q 728 226 696 168 q 776 351 760 285 q 792 486 792 417 q 735 738 792 638 l 339 151 q 504 97 407 97 z "},"ǿ":{"ha":775,"x_min":74,"x_max":701,"o":"m 600 1017 l 353 800 l 231 800 l 428 1017 l 600 1017 m 701 726 l 625 617 q 701 356 701 518 q 617 83 701 182 q 388 -17 532 -17 q 217 31 290 -17 l 183 -17 l 74 -17 l 150 93 q 74 354 74 192 q 158 627 74 528 q 388 726 243 726 q 557 681 486 726 l 589 726 l 701 726 m 196 354 q 225 201 196 261 l 490 585 q 388 615 447 615 q 247 547 297 615 q 196 354 196 478 m 579 356 q 550 510 579 447 l 283 128 q 388 96 328 96 q 528 165 478 96 q 579 356 579 233 z "},"Ș":{"ha":832,"x_min":81,"x_max":739,"o":"m 419 -17 q 205 44 296 -17 q 81 200 114 104 l 194 242 q 285 136 225 175 q 422 97 344 97 q 563 140 511 97 q 614 261 614 182 q 556 383 614 338 q 394 467 499 429 q 312 499 344 485 q 237 538 279 513 q 169 591 194 564 q 127 659 144 618 q 110 749 110 700 q 190 919 110 850 q 408 989 271 989 q 596 941 521 989 q 693 815 671 893 l 582 778 q 515 849 563 821 q 400 876 468 876 q 279 842 324 876 q 235 749 235 808 q 251 690 235 717 q 301 643 267 664 q 364 610 335 622 q 444 578 393 597 q 550 533 508 554 q 640 475 592 511 q 714 385 689 439 q 739 264 739 332 q 650 58 739 133 q 419 -17 561 -17 m 357 -335 q 419 -235 406 -293 q 359 -212 382 -235 q 336 -154 336 -189 q 360 -95 336 -118 q 417 -72 385 -72 q 476 -97 451 -72 q 501 -162 501 -121 q 393 -353 501 -278 l 357 -335 z "},"ș":{"ha":651,"x_min":68,"x_max":578,"o":"m 325 -17 q 180 16 249 -17 q 68 103 111 49 l 154 176 q 328 92 233 92 q 424 115 388 92 q 460 182 460 138 q 433 242 460 215 q 379 283 407 269 q 297 317 351 296 q 133 407 189 357 q 78 539 78 457 q 145 676 78 625 q 317 726 213 726 q 556 619 465 726 l 472 550 q 315 618 407 618 q 229 597 261 618 q 197 539 197 576 q 208 501 197 518 q 245 468 218 483 q 288 445 272 453 q 347 421 304 438 q 519 329 460 381 q 578 185 578 278 q 510 37 578 90 q 325 -17 442 -17 m 267 -335 q 329 -235 315 -293 q 269 -212 292 -235 q 246 -154 246 -189 q 270 -95 246 -118 q 326 -72 294 -72 q 386 -97 361 -72 q 411 -162 411 -121 q 303 -353 411 -278 l 267 -335 z "},"Ț":{"ha":810,"x_min":74,"x_max":736,"o":"m 465 857 l 465 0 l 344 0 l 344 857 l 74 857 l 74 972 l 736 972 l 736 857 l 465 857 m 346 -335 q 408 -235 394 -293 q 348 -212 371 -235 q 325 -154 325 -189 q 349 -95 325 -118 q 406 -72 374 -72 q 465 -97 440 -72 q 490 -162 490 -121 q 382 -353 490 -278 l 346 -335 z "},"ț":{"ha":519,"x_min":42,"x_max":457,"o":"m 307 -17 q 157 153 157 -17 l 157 604 l 42 604 l 42 710 l 157 710 l 157 944 l 278 1003 l 278 710 l 453 710 l 453 604 l 278 604 l 278 193 q 293 121 278 146 q 351 96 308 96 q 457 133 399 96 l 443 15 q 307 -17 382 -17 m 240 -335 q 303 -235 289 -293 q 242 -212 265 -235 q 219 -154 219 -189 q 244 -95 219 -118 q 300 -72 268 -72 q 360 -97 335 -72 q 385 -162 385 -121 q 276 -353 385 -278 l 240 -335 z "},"ȷ":{"ha":353,"x_min":-65,"x_max":238,"o":"m -8 -297 l -65 -206 q 77 -153 38 -189 q 117 -50 117 -117 l 117 710 l 238 710 l 238 -6 q 185 -197 238 -135 q -8 -297 118 -279 z "},"ˆ":{"ha":511,"x_min":-4,"x_max":517,"o":"m 403 800 l 257 925 l 111 800 l -4 800 l 200 1017 l 314 1017 l 517 800 l 403 800 z "},"ˇ":{"ha":511,"x_min":-4,"x_max":517,"o":"m 314 800 l 199 800 l -4 1017 l 111 1017 l 257 892 l 403 1017 l 517 1017 l 314 800 z "},"ˉ":{"ha":511,"x_min":26,"x_max":485,"o":"m 26 838 l 26 940 l 485 940 l 485 838 l 26 838 z "},"˘":{"ha":511,"x_min":3,"x_max":510,"o":"m 256 804 q 67 868 131 804 q 3 1031 3 932 l 111 1031 q 151 940 111 974 q 256 906 192 906 q 361 940 321 906 q 401 1031 401 974 l 510 1031 q 446 868 510 932 q 256 804 382 804 z "},"˙":{"ha":511,"x_min":179,"x_max":332,"o":"m 310 854 q 299 843 310 854 q 256 832 288 832 q 201 854 224 832 q 179 908 179 876 q 201 963 179 940 q 256 985 224 985 q 310 963 288 985 q 332 908 332 940 q 310 854 332 876 z "},"˚":{"ha":511,"x_min":92,"x_max":422,"o":"m 257 744 q 140 793 189 744 q 92 908 92 842 q 140 1022 92 975 q 257 1069 189 1069 q 373 1022 324 1069 q 422 908 422 975 q 373 793 422 842 q 257 744 324 744 m 207 855 q 217 844 207 855 q 257 833 228 833 q 306 855 286 833 q 326 908 326 876 q 306 962 326 942 q 257 982 286 982 q 207 962 228 982 q 186 908 186 942 q 207 855 186 876 z "},"˛":{"ha":511,"x_min":104,"x_max":407,"o":"m 264 -329 q 149 -292 194 -329 q 104 -189 104 -254 q 154 -68 104 -121 q 294 14 204 -15 l 385 14 q 250 -74 294 -24 q 206 -176 206 -124 q 226 -233 206 -214 q 278 -253 247 -253 q 344 -224 318 -253 l 407 -269 q 264 -329 353 -329 z "},"˜":{"ha":511,"x_min":8,"x_max":503,"o":"m 365 826 q 240 860 313 826 q 136 894 167 894 q 90 878 108 894 q 71 832 72 863 l 8 832 q 146 999 8 999 q 272 964 199 999 q 375 929 344 929 q 420 946 401 929 q 440 993 439 963 l 503 993 q 365 826 503 826 z "},"˝":{"ha":511,"x_min":54,"x_max":707,"o":"m 176 800 l 54 800 l 251 1017 l 424 1017 l 176 800 m 460 800 l 338 800 l 535 1017 l 707 1017 l 460 800 z "},"̒":{"ha":0,"x_min":-339,"x_max":-174,"o":"m -254 829 q -314 854 -289 829 q -339 921 -339 879 q -231 1111 -339 1036 l -194 1092 q -257 992 -243 1054 q -197 969 -219 992 q -174 913 -174 946 q -198 853 -174 876 q -254 829 -222 829 z "},"̦":{"ha":0,"x_min":-335,"x_max":-169,"o":"m -314 -335 q -251 -235 -265 -293 q -312 -212 -289 -235 q -335 -154 -335 -189 q -310 -95 -335 -118 q -254 -72 -286 -72 q -194 -97 -219 -72 q -169 -162 -169 -121 q -278 -353 -169 -278 l -314 -335 z "},"Ω":{"ha":1033,"x_min":115,"x_max":919,"o":"m 601 0 l 601 113 q 741 312 699 219 q 783 540 783 404 q 760 700 783 628 q 674 824 736 772 q 517 876 611 876 q 315 778 381 876 q 250 539 250 679 q 292 312 250 404 q 432 113 335 219 l 432 0 l 115 0 l 115 114 l 331 114 q 124 542 124 256 q 136 669 124 607 q 178 789 149 731 q 253 892 208 847 q 365 963 297 936 q 517 989 433 989 q 669 963 601 989 q 781 892 738 936 q 854 789 825 849 q 896 668 883 729 q 908 542 908 607 q 701 114 908 257 l 919 114 l 919 0 l 601 0 z "},"μ":{"ha":785,"x_min":111,"x_max":671,"o":"m 550 0 l 550 69 q 368 -17 474 -17 q 232 54 279 -17 l 232 -221 l 111 -278 l 111 710 l 232 710 l 232 282 q 270 135 232 175 q 386 96 308 96 q 550 279 550 96 l 550 710 l 671 710 l 671 0 l 550 0 z "},"π":{"ha":929,"x_min":61,"x_max":861,"o":"m 710 -17 q 597 28 633 -17 q 560 153 560 74 l 560 583 l 347 583 l 347 513 q 310 163 347 294 q 164 -29 274 32 l 61 51 q 126 99 100 75 q 178 168 151 124 q 219 284 206 213 q 232 456 232 356 l 232 583 l 99 583 l 99 710 l 854 710 l 854 583 l 682 583 l 682 193 q 697 120 682 146 q 754 94 711 94 q 861 132 806 94 l 844 15 q 710 -17 783 -17 z "},"Ẁ":{"ha":1167,"x_min":69,"x_max":1097,"o":"m 618 1063 l 371 1279 l 543 1279 l 740 1063 l 618 1063 m 268 0 l 69 972 l 196 972 l 315 339 q 333 235 328 276 q 360 338 333 236 l 532 972 l 628 972 l 801 339 q 824 244 818 276 q 842 340 829 281 l 974 972 l 1097 972 l 886 0 l 790 0 l 603 664 q 578 760 582 740 q 554 664 571 722 l 367 0 l 268 0 z "},"ẁ":{"ha":993,"x_min":53,"x_max":942,"o":"m 532 800 l 285 1017 l 457 1017 l 654 800 l 532 800 m 235 0 l 53 710 l 172 710 l 281 233 q 288 199 282 225 q 296 158 293 172 q 314 233 299 178 l 447 710 l 547 710 l 681 233 l 700 156 q 708 194 703 168 q 715 233 713 221 l 822 710 l 942 710 l 760 0 l 651 0 l 522 421 q 496 514 503 483 q 471 421 482 456 l 343 0 l 235 0 z "},"Ẃ":{"ha":1167,"x_min":69,"x_max":1097,"o":"m 426 1063 l 624 1279 l 796 1279 l 549 1063 l 426 1063 m 268 0 l 69 972 l 196 972 l 315 339 q 333 235 328 276 q 360 338 333 236 l 532 972 l 628 972 l 801 339 q 824 244 818 276 q 842 340 829 281 l 974 972 l 1097 972 l 886 0 l 790 0 l 603 664 q 578 760 582 740 q 554 664 571 722 l 367 0 l 268 0 z "},"ẃ":{"ha":993,"x_min":53,"x_max":942,"o":"m 340 800 l 538 1017 l 710 1017 l 463 800 l 340 800 m 235 0 l 53 710 l 172 710 l 281 233 q 288 199 282 225 q 296 158 293 172 q 314 233 299 178 l 447 710 l 547 710 l 681 233 l 700 156 q 708 194 703 168 q 715 233 713 221 l 822 710 l 942 710 l 760 0 l 651 0 l 522 421 q 496 514 503 483 q 471 421 482 456 l 343 0 l 235 0 z "},"Ẅ":{"ha":1167,"x_min":69,"x_max":1097,"o":"m 517 1117 q 506 1106 517 1117 q 463 1094 494 1094 q 408 1117 431 1094 q 386 1171 386 1139 q 408 1225 386 1203 q 463 1247 431 1247 q 517 1225 494 1247 q 539 1171 539 1203 q 517 1117 539 1139 m 757 1117 q 746 1106 757 1117 q 703 1094 735 1094 q 649 1117 671 1094 q 626 1171 626 1139 q 649 1225 626 1203 q 703 1247 671 1247 q 757 1225 735 1247 q 779 1171 779 1203 q 757 1117 779 1139 m 268 0 l 69 972 l 196 972 l 315 339 q 333 235 328 276 q 360 338 333 236 l 532 972 l 628 972 l 801 339 q 824 244 818 276 q 842 340 829 281 l 974 972 l 1097 972 l 886 0 l 790 0 l 603 664 q 578 760 582 740 q 554 664 571 722 l 367 0 l 268 0 z "},"ẅ":{"ha":993,"x_min":53,"x_max":942,"o":"m 431 854 q 419 843 431 854 q 376 832 408 832 q 322 854 344 832 q 300 908 300 876 q 322 963 300 940 q 376 985 344 985 q 431 963 408 985 q 453 908 453 940 q 431 854 453 876 m 671 854 q 660 843 671 854 q 617 832 649 832 q 563 854 585 832 q 540 908 540 876 q 563 963 540 940 q 617 985 585 985 q 671 963 649 985 q 693 908 693 940 q 671 854 693 876 m 235 0 l 53 710 l 172 710 l 281 233 q 288 199 282 225 q 296 158 293 172 q 314 233 299 178 l 447 710 l 547 710 l 681 233 l 700 156 q 708 194 703 168 q 715 233 713 221 l 822 710 l 942 710 l 760 0 l 651 0 l 522 421 q 496 514 503 483 q 471 421 482 456 l 343 0 l 235 0 z "},"Ỳ":{"ha":890,"x_min":56,"x_max":835,"o":"m 438 1063 l 190 1279 l 363 1279 l 560 1063 l 438 1063 m 386 0 l 386 382 l 56 972 l 192 972 l 446 500 l 703 972 l 835 972 l 507 385 l 507 0 l 386 0 z "},"ỳ":{"ha":736,"x_min":46,"x_max":690,"o":"m 400 800 l 153 1017 l 325 1017 l 522 800 l 400 800 m 200 -269 l 308 18 l 46 710 l 167 710 l 343 226 q 365 158 353 203 q 388 226 378 203 l 567 710 l 690 710 l 322 -269 l 200 -269 z "},"–":{"ha":708,"x_min":81,"x_max":629,"o":"m 81 347 l 81 451 l 629 451 l 629 347 l 81 347 z "},"—":{"ha":819,"x_min":4,"x_max":817,"o":"m 4 347 l 4 451 l 817 451 l 817 347 l 4 347 z "},"―":{"ha":819,"x_min":4,"x_max":817,"o":"m 4 347 l 4 451 l 817 451 l 817 347 l 4 347 z "},"‘":{"ha":313,"x_min":54,"x_max":253,"o":"m 160 625 q 85 656 115 625 q 54 746 54 688 q 93 887 54 822 q 193 989 132 951 l 233 968 q 183 904 208 946 q 156 815 158 863 q 225 788 197 813 q 253 724 253 763 q 226 652 253 679 q 160 625 199 625 z "},"’":{"ha":313,"x_min":60,"x_max":258,"o":"m 79 646 q 129 710 104 668 q 157 799 154 751 q 88 826 115 801 q 60 890 60 851 q 87 962 60 935 q 153 989 114 989 q 228 958 197 989 q 258 868 258 926 q 219 727 258 792 q 119 625 181 663 l 79 646 z "},"‚":{"ha":313,"x_min":60,"x_max":258,"o":"m 79 -175 q 129 -111 104 -153 q 157 -22 154 -69 q 88 6 115 -19 q 60 71 60 32 q 87 142 60 114 q 153 169 114 169 q 228 138 197 169 q 258 47 258 107 q 219 -94 258 -29 q 119 -196 181 -158 l 79 -175 z "},"‛":{"ha":313,"x_min":54,"x_max":253,"o":"m 193 625 q 93 727 132 663 q 54 868 54 792 q 85 958 54 926 q 160 989 115 989 q 226 962 199 989 q 253 890 253 935 q 225 826 253 851 q 156 799 197 801 q 183 710 158 751 q 233 646 208 668 l 193 625 z "},"“":{"ha":603,"x_min":54,"x_max":544,"o":"m 160 625 q 85 656 115 625 q 54 746 54 688 q 93 887 54 822 q 193 989 132 951 l 233 968 q 183 904 208 946 q 156 815 158 863 q 225 788 197 813 q 253 724 253 763 q 226 652 253 679 q 160 625 199 625 m 450 625 q 376 656 407 625 q 346 746 346 688 q 384 887 346 822 q 483 989 422 951 l 524 968 q 447 815 453 904 q 516 788 488 813 q 544 724 544 763 q 517 652 544 679 q 450 625 489 625 z "},"”":{"ha":603,"x_min":60,"x_max":549,"o":"m 79 646 q 129 710 104 668 q 157 799 154 751 q 88 826 115 801 q 60 890 60 851 q 87 962 60 935 q 153 989 114 989 q 228 958 197 989 q 258 868 258 926 q 219 727 258 792 q 119 625 181 663 l 79 646 m 371 646 q 447 799 442 710 q 378 826 407 801 q 350 890 350 851 q 378 962 350 935 q 444 989 406 989 q 518 958 488 989 q 549 868 549 926 q 510 727 549 792 q 411 625 472 663 l 371 646 z "},"„":{"ha":603,"x_min":60,"x_max":549,"o":"m 79 -175 q 129 -111 104 -153 q 157 -22 154 -69 q 88 6 115 -19 q 60 71 60 32 q 87 142 60 114 q 153 169 114 169 q 228 138 197 169 q 258 47 258 107 q 219 -94 258 -29 q 119 -196 181 -158 l 79 -175 m 371 -175 q 447 -22 442 -111 q 378 6 407 -19 q 350 71 350 32 q 378 142 350 114 q 444 169 406 169 q 518 138 488 169 q 549 47 549 106 q 510 -94 549 -29 q 411 -196 472 -158 l 371 -175 z "},"†":{"ha":778,"x_min":101,"x_max":678,"o":"m 433 622 l 450 468 l 407 -196 l 375 -196 l 328 468 l 342 622 l 164 599 l 101 599 l 101 715 l 164 715 l 339 689 l 328 815 l 328 989 l 450 989 l 450 815 l 436 689 l 614 715 l 678 715 l 678 599 l 614 599 l 433 622 z "},"‡":{"ha":778,"x_min":101,"x_max":678,"o":"m 678 78 l 614 78 l 436 104 l 450 -22 l 450 -196 l 328 -196 l 328 -22 l 339 104 l 164 78 l 101 78 l 101 196 l 164 196 l 342 169 l 328 325 l 328 468 l 342 622 l 164 599 l 101 599 l 101 715 l 164 715 l 339 689 l 328 815 l 328 989 l 450 989 l 450 815 l 436 689 l 614 715 l 678 715 l 678 599 l 614 599 l 433 622 l 450 468 l 450 325 l 433 169 l 614 196 l 678 196 l 678 78 z "},"•":{"ha":571,"x_min":94,"x_max":478,"o":"m 285 303 q 149 356 203 303 q 94 486 94 410 q 149 618 94 564 q 285 672 203 672 q 422 618 365 672 q 478 486 478 564 q 422 356 478 410 q 285 303 365 303 z "},"…":{"ha":1307,"x_min":136,"x_max":1172,"o":"m 288 8 q 275 -5 288 8 q 225 -18 263 -18 q 162 8 188 -18 q 136 69 136 35 q 162 132 136 106 q 225 158 188 158 q 288 132 263 158 q 314 69 314 106 q 288 8 314 35 m 717 8 q 703 -5 717 8 q 653 -18 690 -18 q 590 8 615 -18 q 564 69 564 35 q 590 132 564 106 q 653 158 615 158 q 717 132 690 158 q 743 69 743 106 q 717 8 743 35 m 1146 8 q 1133 -5 1146 8 q 1082 -18 1119 -18 q 1019 8 1044 -18 q 993 69 993 35 q 1019 132 993 106 q 1082 158 1044 158 q 1146 132 1119 158 q 1172 69 1172 106 q 1146 8 1172 35 z "},"‰":{"ha":1744,"x_min":72,"x_max":1672,"o":"m 296 494 q 127 568 182 494 q 72 742 72 642 q 128 913 72 838 q 296 989 183 989 q 463 916 408 989 q 518 742 518 843 q 499 629 518 682 q 426 535 479 576 q 296 494 374 494 m 331 -17 l 214 -17 l 878 989 l 994 989 l 331 -17 m 296 590 q 384 634 353 590 q 415 742 415 678 q 385 852 415 811 q 296 893 354 893 q 206 851 236 893 q 176 742 176 808 q 206 632 176 674 q 296 590 236 590 m 913 -17 q 745 57 800 -17 q 690 231 690 131 q 745 401 690 325 q 913 478 800 478 q 1081 405 1026 478 q 1136 231 1136 332 q 1117 118 1136 171 q 1044 24 1097 65 q 913 -17 992 -17 m 1449 -17 q 1281 57 1336 -17 q 1226 231 1226 131 q 1281 401 1226 325 q 1449 478 1336 478 q 1617 405 1563 478 q 1672 231 1672 332 q 1653 118 1672 171 q 1581 24 1633 65 q 1449 -17 1528 -17 m 824 121 q 839 100 824 121 q 913 79 854 79 q 1001 122 971 79 q 1032 231 1032 165 q 1001 341 1032 300 q 913 382 971 382 q 824 340 854 382 q 793 231 793 297 q 824 121 793 163 m 1360 121 q 1375 100 1360 121 q 1449 79 1390 79 q 1538 122 1507 79 q 1568 231 1568 165 q 1538 341 1568 300 q 1449 382 1507 382 q 1360 340 1390 382 q 1329 231 1329 297 q 1360 121 1329 163 z "},"′":{"ha":303,"x_min":60,"x_max":243,"o":"m 60 581 l 88 1014 l 243 1014 l 158 581 l 60 581 z "},"″":{"ha":581,"x_min":60,"x_max":521,"o":"m 60 581 l 88 1014 l 243 1014 l 158 581 l 60 581 m 338 581 l 365 1014 l 521 1014 l 436 581 l 338 581 z "},"‹":{"ha":428,"x_min":53,"x_max":396,"o":"m 264 0 l 53 356 l 264 710 l 396 710 l 185 356 l 396 0 l 264 0 z "},"›":{"ha":428,"x_min":32,"x_max":375,"o":"m 32 0 l 243 356 l 32 710 l 164 710 l 375 356 l 164 0 l 32 0 z "},"⁄":{"ha":457,"x_min":-161,"x_max":618,"o":"m -161 -17 l 504 989 l 618 989 l -47 -17 l -161 -17 z "},"ⁿ":{"ha":638,"x_min":94,"x_max":551,"o":"m 439 393 l 439 733 q 328 885 439 885 q 208 738 208 885 l 208 393 l 94 393 l 94 975 l 208 975 l 208 910 q 364 989 264 989 q 504 927 457 989 q 551 728 551 865 l 551 393 l 439 393 z "},"₤":{"ha":818,"x_min":115,"x_max":776,"o":"m 119 0 l 119 111 q 238 311 222 179 l 115 311 l 115 411 l 244 411 q 221 503 243 451 l 115 503 l 115 604 l 179 604 q 158 715 158 660 q 240 909 158 829 q 475 989 322 989 q 761 896 638 989 l 714 783 q 660 825 679 811 q 588 856 640 839 q 475 874 536 874 q 334 826 382 874 q 286 715 286 779 q 314 604 286 667 l 582 604 l 582 503 l 356 503 q 372 411 371 457 l 582 411 l 582 311 l 361 311 q 240 115 338 201 l 776 115 l 776 0 l 119 0 z "},"€":{"ha":860,"x_min":58,"x_max":804,"o":"m 521 -17 q 172 313 232 -17 l 58 313 l 103 414 l 160 414 q 158 485 158 438 q 160 540 158 521 l 60 540 l 104 642 l 172 642 q 291 891 201 793 q 536 989 381 989 q 776 915 669 989 l 729 801 q 535 875 646 875 q 301 642 349 875 l 663 642 l 621 540 l 288 540 q 285 474 285 517 q 288 414 285 433 l 569 414 l 528 313 l 303 313 q 519 99 354 99 q 706 199 635 99 l 804 136 q 690 26 763 68 q 521 -17 618 -17 z "},"℅":{"ha":1432,"x_min":81,"x_max":1351,"o":"m 328 378 q 145 459 210 378 q 81 683 81 540 q 147 908 81 826 q 329 989 214 989 q 543 847 494 989 l 435 808 q 328 885 411 885 q 226 832 261 885 q 192 683 192 779 q 226 535 192 588 q 325 483 261 483 q 442 567 413 483 l 542 533 q 328 378 496 378 m 300 -17 l 964 989 l 1082 989 l 418 -17 l 300 -17 m 1280 65 q 1244 24 1280 65 q 1086 -17 1208 -17 q 893 65 964 -17 q 822 289 822 146 q 893 513 822 432 q 1086 594 964 594 q 1280 513 1208 594 q 1351 289 1351 432 q 1280 65 1351 146 m 1086 88 q 1201 140 1161 88 q 1240 289 1240 193 q 1201 438 1240 385 q 1086 490 1161 490 q 974 438 1015 490 q 933 289 933 385 q 974 140 933 193 q 1086 88 1015 88 z "},"ℓ":{"ha":638,"x_min":88,"x_max":565,"o":"m 343 -17 q 238 22 278 -17 q 197 149 197 61 l 197 328 q 126 289 194 326 l 88 386 q 197 446 149 411 l 197 713 q 245 925 197 861 q 382 989 293 989 q 513 935 461 989 q 565 781 565 881 q 547 668 565 722 q 507 578 529 614 q 444 501 485 542 q 383 442 404 460 q 319 393 361 424 l 319 204 q 339 117 319 139 q 397 96 358 96 q 492 146 449 96 l 524 69 q 446 8 494 32 q 343 -17 397 -17 m 382 883 q 334 847 349 883 q 319 707 319 811 l 319 517 q 443 758 443 626 q 382 883 443 883 z "},"№":{"ha":1661,"x_min":136,"x_max":1546,"o":"m 1281 379 q 1088 460 1158 379 q 1017 683 1017 540 q 1088 908 1017 826 q 1281 989 1158 989 q 1474 908 1403 989 q 1546 683 1546 826 q 1475 460 1546 540 q 1281 379 1404 379 m 847 0 l 731 0 l 293 694 q 254 763 268 735 q 257 694 257 721 l 257 0 l 136 0 l 136 972 l 258 972 l 689 281 q 729 208 711 244 q 726 279 726 258 l 726 972 l 847 972 l 847 0 m 1281 483 q 1395 535 1356 483 q 1435 683 1435 588 q 1395 833 1435 781 q 1281 885 1356 885 q 1169 832 1210 885 q 1128 683 1128 779 q 1169 536 1128 589 q 1281 483 1210 483 m 1026 172 l 1026 265 l 1536 265 l 1536 172 l 1026 172 z "},"™":{"ha":1103,"x_min":39,"x_max":994,"o":"m 196 386 l 196 886 l 39 886 l 39 972 l 443 972 l 443 886 l 288 886 l 288 386 l 196 386 m 994 386 l 904 386 l 904 731 l 886 686 l 747 376 l 607 686 l 588 733 l 588 386 l 497 386 l 497 972 l 579 972 l 733 626 l 746 592 l 760 626 l 914 972 l 994 972 l 994 386 z "},"Ω":{"ha":1033,"x_min":115,"x_max":919,"o":"m 601 0 l 601 113 q 741 312 699 219 q 783 540 783 404 q 760 700 783 628 q 674 824 736 772 q 517 876 611 876 q 315 778 381 876 q 250 539 250 679 q 292 312 250 404 q 432 113 335 219 l 432 0 l 115 0 l 115 114 l 331 114 q 124 542 124 256 q 136 669 124 607 q 178 789 149 731 q 253 892 208 847 q 365 963 297 936 q 517 989 433 989 q 669 963 601 989 q 781 892 738 936 q 854 789 825 849 q 896 668 883 729 q 908 542 908 607 q 701 114 908 257 l 919 114 l 919 0 l 601 0 z "},"℮":{"ha":1125,"x_min":90,"x_max":1035,"o":"m 569 -17 q 229 122 368 -17 q 90 486 90 261 q 131 708 90 610 q 239 868 171 807 q 393 961 307 929 q 574 993 479 993 q 893 860 761 993 q 1035 482 1025 726 l 318 482 l 318 181 q 419 104 353 135 q 571 74 486 74 q 901 263 779 74 l 976 217 q 806 42 901 101 q 569 -17 710 -17 m 318 571 l 814 572 l 814 800 q 710 875 776 846 q 569 904 643 904 q 318 811 415 904 l 318 571 z "},"⅓":{"ha":1003,"x_min":17,"x_max":953,"o":"m 17 -17 l 681 989 l 794 989 l 131 -17 l 17 -17 m 106 393 l 106 850 l 35 850 l 35 922 q 131 979 107 922 l 206 979 l 206 393 l 106 393 m 750 -14 q 618 28 672 -14 q 539 143 564 69 l 633 175 q 753 75 667 75 q 823 99 797 75 q 849 164 849 124 q 824 228 849 201 q 756 256 800 256 l 711 256 l 711 344 l 747 344 q 807 368 788 344 q 826 426 826 392 q 806 484 826 461 q 746 507 785 507 q 647 429 679 507 l 554 461 q 631 559 579 522 q 750 596 683 596 q 881 551 832 596 q 931 433 931 506 q 910 361 931 396 q 857 308 890 326 q 927 255 901 292 q 953 169 953 218 q 897 35 953 85 q 750 -14 840 -14 z "},"⅔":{"ha":1222,"x_min":46,"x_max":1174,"o":"m 46 393 q 98 572 46 503 q 250 700 150 640 q 317 752 294 726 q 339 818 339 778 q 315 875 339 850 q 244 900 290 900 q 138 806 157 900 l 46 833 q 115 946 61 903 q 250 989 169 989 q 389 941 336 989 q 442 814 442 893 q 403 700 442 743 q 282 610 365 657 q 158 486 188 556 l 440 486 l 440 393 l 46 393 m 238 -17 l 901 989 l 1015 989 l 351 -17 l 238 -17 m 971 -14 q 838 28 893 -14 q 758 143 783 69 l 854 175 q 972 75 886 75 q 1043 99 1017 75 q 1069 164 1069 124 q 1044 228 1069 201 q 976 256 1019 256 l 931 256 l 931 344 l 967 344 q 1027 368 1007 344 q 1047 426 1047 392 q 1026 484 1047 461 q 967 507 1004 507 q 867 429 899 507 l 775 461 q 851 559 800 522 q 971 596 903 596 q 1101 550 1051 596 q 1151 433 1151 504 q 1131 362 1151 397 q 1078 308 1111 326 q 1147 255 1121 292 q 1174 169 1174 218 q 1117 35 1174 85 q 971 -14 1061 -14 z "},"⅛":{"ha":997,"x_min":17,"x_max":940,"o":"m 17 -17 l 681 989 l 794 989 l 131 -17 l 17 -17 m 106 393 l 106 850 l 35 850 l 35 922 q 131 979 107 922 l 206 979 l 206 393 l 106 393 m 885 38 q 857 12 885 38 q 739 -14 829 -14 q 592 38 649 -14 q 536 171 536 89 q 628 322 536 274 q 563 436 563 361 q 612 551 563 507 q 739 596 661 596 q 865 551 817 596 q 914 436 914 507 q 897 370 914 401 q 850 322 879 339 q 940 171 940 274 q 885 38 940 89 m 739 360 q 797 381 775 360 q 819 433 819 401 q 797 490 819 468 q 739 511 775 511 q 681 490 704 511 q 658 433 658 468 q 681 381 658 401 q 739 360 704 360 m 665 101 q 680 88 665 101 q 739 74 694 74 q 812 101 783 74 q 840 175 840 129 q 812 246 840 217 q 739 275 783 275 q 665 246 694 275 q 636 175 636 217 q 665 101 636 129 z "},"⅜":{"ha":1181,"x_min":32,"x_max":1124,"o":"m 244 379 q 112 421 167 379 q 32 536 57 463 l 128 568 q 246 468 160 468 q 317 492 290 468 q 343 557 343 517 q 318 622 343 594 q 250 649 293 649 l 204 649 l 204 738 l 240 738 q 301 761 281 738 q 321 819 321 785 q 299 877 321 854 q 240 900 278 900 q 140 822 172 900 l 49 854 q 125 952 74 915 q 244 989 176 989 q 375 943 325 989 q 425 826 425 897 q 405 755 425 790 q 351 701 385 719 q 421 648 394 685 q 447 563 447 611 q 391 428 447 478 q 244 379 335 379 m 200 -17 l 864 989 l 978 989 l 314 -17 l 200 -17 m 1068 38 q 1040 12 1068 38 q 922 -14 1013 -14 q 776 38 832 -14 q 719 171 719 89 q 811 322 719 274 q 746 436 746 361 q 795 551 746 507 q 922 596 844 596 q 1049 551 1000 596 q 1097 436 1097 507 q 1080 370 1097 401 q 1033 322 1063 339 q 1124 171 1124 274 q 1068 38 1124 89 m 922 360 q 981 381 958 360 q 1003 433 1003 401 q 981 490 1003 468 q 922 511 958 511 q 865 490 888 511 q 842 433 842 468 q 865 381 842 401 q 922 360 888 360 m 849 101 q 863 88 849 101 q 922 74 878 74 q 995 101 967 74 q 1024 175 1024 129 q 995 246 1024 217 q 922 275 967 275 q 849 246 878 275 q 819 175 819 217 q 849 101 819 129 z "},"⅝":{"ha":1169,"x_min":36,"x_max":1113,"o":"m 189 -17 l 853 989 l 967 989 l 303 -17 l 189 -17 m 226 381 q 36 449 104 381 l 92 524 q 224 469 149 469 q 312 501 279 469 q 344 583 344 533 q 318 660 344 631 q 243 689 292 689 q 133 629 174 689 l 54 664 l 86 976 l 404 976 l 404 883 l 169 883 l 154 750 q 254 778 197 778 q 394 722 342 778 q 446 585 446 667 q 385 438 446 494 q 226 381 324 381 m 910 -14 q 764 38 819 -14 q 708 171 708 89 q 800 322 708 274 q 735 436 735 360 q 783 551 735 507 q 910 596 832 596 q 1037 551 988 596 q 1086 436 1086 507 q 1021 322 1086 361 q 1113 171 1113 274 q 1057 38 1113 89 q 910 -14 1001 -14 m 910 360 q 968 381 946 360 q 990 433 990 401 q 969 490 990 468 q 910 511 947 511 q 852 490 875 511 q 829 433 829 468 q 852 381 829 401 q 910 360 875 360 m 910 74 q 984 101 956 74 q 1013 175 1013 129 q 984 246 1013 217 q 910 275 956 275 q 837 246 865 275 q 808 175 808 217 q 837 101 808 129 q 910 74 865 74 z "},"⅞":{"ha":1043,"x_min":18,"x_max":988,"o":"m 63 -17 l 726 989 l 840 989 l 176 -17 l 63 -17 m 132 393 q 290 883 133 657 l 18 883 l 18 976 l 404 976 l 404 885 q 275 650 314 782 q 235 393 236 518 l 132 393 m 785 -14 q 639 38 694 -14 q 583 171 583 89 q 675 322 583 274 q 610 436 610 360 q 658 551 610 507 q 785 596 707 596 q 912 551 863 596 q 961 436 961 507 q 896 322 961 361 q 988 171 988 274 q 932 38 988 89 q 785 -14 876 -14 m 785 360 q 843 381 821 360 q 865 433 865 401 q 844 490 865 468 q 785 511 822 511 q 727 490 750 511 q 704 433 704 468 q 727 381 704 401 q 785 360 750 360 m 785 74 q 859 101 831 74 q 888 175 888 129 q 859 246 888 217 q 785 275 831 275 q 712 246 740 275 q 683 175 683 217 q 712 101 683 129 q 785 74 740 74 z "},"←":{"ha":1097,"x_min":56,"x_max":1028,"o":"m 408 251 q 385 263 403 251 l 72 475 q 56 500 56 486 q 72 525 56 514 l 385 739 q 408 750 403 750 q 425 735 425 750 q 417 706 425 728 l 363 549 l 1028 564 l 1028 438 l 363 453 l 417 296 q 425 267 425 274 q 408 251 425 251 z "},"↑":{"ha":613,"x_min":58,"x_max":556,"o":"m 243 0 l 260 663 l 96 607 q 76 601 82 601 q 64 608 69 601 q 58 621 58 614 q 65 639 58 628 l 283 958 q 307 972 293 972 q 331 958 322 972 l 547 639 q 556 621 556 628 q 550 608 556 614 q 536 601 544 601 q 518 607 532 601 l 354 663 l 371 0 l 243 0 z "},"→":{"ha":1097,"x_min":69,"x_max":1042,"o":"m 689 251 q 672 267 672 251 q 681 296 672 274 l 735 453 l 69 438 l 69 564 l 735 549 l 681 706 q 672 735 672 728 q 689 750 672 750 q 713 739 694 750 l 1026 525 q 1042 500 1042 515 q 1026 475 1042 485 l 713 263 q 689 251 694 251 z "},"↓":{"ha":633,"x_min":63,"x_max":571,"o":"m 317 0 q 293 14 303 0 l 69 342 q 63 360 63 356 q 81 379 63 379 q 100 375 89 379 l 269 317 l 253 972 l 381 972 l 364 317 l 533 375 q 551 379 544 379 q 571 360 571 379 q 563 342 571 354 l 340 14 q 317 0 332 0 z "},"↔":{"ha":1275,"x_min":56,"x_max":1219,"o":"m 867 251 q 850 267 850 251 q 858 296 850 274 l 911 449 l 364 449 l 417 296 q 425 267 425 274 q 408 251 425 251 q 385 263 403 251 l 72 475 q 56 500 56 486 q 72 525 56 514 l 385 739 q 408 750 403 750 q 425 735 425 750 q 417 706 425 728 l 364 553 l 911 553 l 858 706 q 850 735 850 728 q 867 750 850 750 q 890 739 872 750 l 1204 525 q 1219 500 1219 515 q 1204 475 1219 485 l 890 263 q 867 251 872 251 z "},"↕":{"ha":633,"x_min":67,"x_max":565,"o":"m 340 -221 q 315 -236 331 -236 q 290 -221 300 -236 l 78 93 q 67 117 67 111 q 82 133 67 133 q 111 125 89 133 l 264 72 l 264 756 l 111 703 q 82 694 89 694 q 67 711 67 694 q 78 735 67 717 l 290 1049 q 315 1064 300 1064 q 340 1049 331 1064 l 554 735 q 565 711 565 717 q 550 694 565 694 q 521 703 543 694 l 368 756 l 368 72 l 521 125 q 550 133 543 133 q 565 117 565 133 q 554 93 565 111 l 340 -221 z "},"↖":{"ha":856,"x_min":76,"x_max":817,"o":"m 728 97 l 268 579 l 196 429 q 169 399 182 399 q 149 432 153 399 l 81 786 q 78 801 81 792 q 76 813 76 810 q 101 838 76 838 q 108 837 104 838 q 117 835 111 836 q 125 833 122 833 l 486 765 q 517 746 517 760 q 486 719 517 735 l 335 646 l 817 188 l 728 97 z "},"↗":{"ha":856,"x_min":39,"x_max":779,"o":"m 128 97 l 39 188 l 521 646 l 369 719 q 339 746 339 735 q 369 765 339 760 l 731 833 q 739 835 733 833 q 748 837 744 836 q 754 838 751 838 q 779 813 779 838 q 777 801 779 810 q 775 786 775 792 l 707 432 q 686 399 703 399 q 660 429 674 399 l 588 579 l 128 97 z "},"↘":{"ha":856,"x_min":39,"x_max":779,"o":"m 754 97 q 748 98 751 97 q 739 100 744 99 q 731 101 733 101 l 369 169 q 339 189 339 175 q 369 215 339 200 l 521 289 l 39 747 l 128 838 l 588 356 l 660 506 q 686 536 674 536 q 707 503 703 536 l 775 149 q 777 134 775 143 q 779 122 779 125 q 754 97 779 97 z "},"↙":{"ha":856,"x_min":76,"x_max":817,"o":"m 101 97 q 76 122 76 97 q 78 134 76 125 q 81 149 81 143 l 149 503 q 169 536 153 536 q 196 506 182 536 l 268 356 l 728 838 l 817 747 l 335 289 l 486 215 q 517 189 517 200 q 486 169 517 175 l 125 101 q 117 100 122 101 q 108 98 111 99 q 101 97 104 97 z "},"↳":{"ha":989,"x_min":117,"x_max":933,"o":"m 918 322 q 933 297 933 313 q 918 272 933 282 l 604 60 q 581 49 586 49 q 564 64 564 49 q 572 93 564 71 l 625 246 l 117 246 l 117 972 l 224 972 l 224 350 l 625 350 l 572 503 q 564 532 564 525 q 581 547 564 547 q 604 536 586 547 l 918 322 z "},"↴":{"ha":989,"x_min":117,"x_max":933,"o":"m 918 450 q 933 433 933 450 q 922 410 933 428 l 710 97 q 685 81 700 81 q 660 97 672 81 l 446 410 q 435 433 435 428 q 450 450 435 450 q 479 442 457 450 l 631 390 l 631 872 l 117 872 l 117 972 l 739 972 l 739 390 l 889 442 q 918 450 914 450 z "},"↵":{"ha":989,"x_min":56,"x_max":874,"o":"m 767 972 l 874 972 l 874 246 l 364 246 l 417 93 q 425 64 425 71 q 408 49 425 49 q 385 60 403 49 l 72 272 q 56 297 56 283 q 72 322 56 311 l 385 536 q 408 547 403 547 q 425 532 425 547 q 417 503 425 525 l 364 350 l 767 350 l 767 972 z "},"↶":{"ha":1101,"x_min":56,"x_max":974,"o":"m 352 885 q 402 937 352 885 q 613 989 453 989 q 873 885 772 989 q 974 606 974 781 l 974 0 l 864 0 l 864 606 q 794 813 864 738 q 613 888 725 888 q 429 813 499 888 q 360 606 360 739 l 360 551 l 510 603 q 539 611 535 611 q 554 594 554 611 q 543 571 554 589 l 331 258 q 306 242 319 242 q 281 258 293 242 l 67 571 q 56 594 56 589 q 71 611 56 611 q 100 603 78 611 l 251 551 l 251 606 q 352 885 251 781 z "},"↷":{"ha":1101,"x_min":129,"x_max":1046,"o":"m 1031 611 q 1046 594 1046 611 q 1035 571 1046 589 l 821 258 q 796 242 811 242 q 771 258 781 242 l 558 571 q 547 594 547 589 q 563 611 547 611 q 592 603 569 611 l 742 551 l 742 606 q 672 813 742 739 q 490 888 603 888 q 308 813 378 888 q 238 606 238 738 l 238 0 l 129 0 l 129 606 q 230 885 129 781 q 490 989 331 989 q 751 885 650 989 q 851 606 851 781 l 851 551 l 1001 603 q 1031 611 1024 611 z "},"↸":{"ha":856,"x_min":76,"x_max":817,"o":"m 76 872 l 76 972 l 817 972 l 817 872 l 76 872 m 728 -7 l 268 475 l 196 325 q 169 294 182 294 q 149 328 153 294 l 81 682 q 78 697 81 688 q 76 708 76 706 q 84 726 76 719 q 101 733 92 733 q 108 733 104 733 q 117 731 111 732 q 125 729 122 729 l 486 661 q 517 642 517 656 q 486 615 517 631 l 335 542 l 817 83 l 728 -7 z "},"↹":{"ha":1211,"x_min":117,"x_max":1094,"o":"m 674 494 q 650 506 668 494 l 338 718 q 321 743 321 728 q 338 768 321 758 l 650 982 q 674 993 668 993 q 690 978 690 993 q 682 949 690 971 l 628 792 l 1094 807 l 1094 681 l 628 696 l 682 539 q 690 510 690 517 q 674 494 690 494 m 117 508 l 117 979 l 238 979 l 238 508 l 117 508 m 538 -299 q 521 -283 521 -299 q 529 -254 521 -279 l 583 -97 l 117 -114 l 117 14 l 583 -3 l 529 156 q 521 185 521 178 q 538 200 521 200 q 561 189 543 200 l 874 -25 q 890 -50 890 -37 q 874 -75 890 -64 l 561 -287 q 538 -299 543 -299 m 974 -285 l 974 193 l 1094 193 l 1094 -285 l 974 -285 z "},"↺":{"ha":1175,"x_min":139,"x_max":1093,"o":"m 1064 907 q 1093 888 1093 900 q 1063 861 1093 875 l 918 790 q 1036 486 1036 661 q 904 169 1036 300 q 588 38 772 38 q 271 169 403 38 q 139 486 139 300 q 271 803 139 671 l 347 726 q 247 486 247 625 q 347 245 247 346 q 588 144 447 144 q 828 245 728 144 q 929 486 929 346 q 842 713 929 617 l 774 571 q 747 540 757 540 q 725 574 732 540 l 658 928 q 654 954 654 944 q 679 979 654 979 q 701 975 681 979 l 1064 907 z "},"⇚":{"ha":1097,"x_min":56,"x_max":1028,"o":"m 1028 592 l 378 592 l 357 532 l 1028 532 l 1028 469 l 357 469 l 376 411 l 1028 411 l 1028 349 l 399 349 l 417 296 q 425 267 425 274 q 408 251 425 251 q 385 263 403 251 l 72 475 q 56 500 56 486 q 72 525 56 514 l 385 739 q 408 750 403 750 q 425 735 425 750 q 417 706 425 728 l 399 654 l 1028 654 l 1028 592 z "},"⇛":{"ha":1097,"x_min":69,"x_max":1042,"o":"m 1026 525 q 1042 500 1042 515 q 1026 475 1042 485 l 713 263 q 689 251 694 251 q 672 267 672 251 q 681 296 672 274 l 699 349 l 69 349 l 69 411 l 721 411 l 740 469 l 69 469 l 69 532 l 740 532 l 719 592 l 69 592 l 69 654 l 699 654 l 681 706 q 672 735 672 728 q 689 750 672 750 q 713 739 694 750 l 1026 525 z "},"⇜":{"ha":1097,"x_min":56,"x_max":1028,"o":"m 917 553 l 1028 553 l 1028 449 l 869 449 l 843 529 l 785 349 l 704 349 l 646 529 l 588 349 l 507 349 l 475 449 l 364 449 l 417 296 q 425 267 425 274 q 408 251 425 251 q 385 263 403 251 l 72 475 q 56 500 56 486 q 72 525 56 514 l 385 739 q 408 750 403 750 q 425 735 425 750 q 417 706 425 728 l 364 553 l 522 553 l 547 472 l 606 654 l 686 654 l 744 472 l 803 654 l 883 654 l 917 553 z "},"⇝":{"ha":1097,"x_min":69,"x_max":1042,"o":"m 1026 525 q 1042 500 1042 515 q 1026 475 1042 485 l 713 263 q 689 251 694 251 q 672 267 672 251 q 681 296 672 274 l 733 449 l 624 449 l 590 349 l 510 349 l 451 529 l 393 349 l 313 349 l 254 528 l 229 449 l 69 449 l 69 553 l 182 553 l 214 654 l 294 654 l 353 472 l 411 654 l 492 654 l 550 472 l 576 553 l 733 553 l 681 706 q 672 735 672 728 q 689 750 672 750 q 713 739 694 750 l 1026 525 z "},"⇞":{"ha":613,"x_min":58,"x_max":556,"o":"m 518 607 l 360 661 l 360 490 l 542 490 l 542 390 l 360 390 l 360 271 l 542 271 l 542 171 l 360 171 l 360 0 l 254 0 l 254 171 l 72 171 l 72 271 l 254 271 l 254 390 l 72 390 l 72 490 l 254 490 l 254 661 l 96 607 q 76 601 82 601 q 64 608 69 601 q 58 621 58 614 q 65 639 58 628 l 283 958 q 307 972 293 972 q 331 958 322 972 l 547 639 q 556 621 556 628 q 550 608 556 614 q 536 601 544 601 q 518 607 532 601 z "},"⇟":{"ha":613,"x_min":58,"x_max":556,"o":"m 536 371 q 556 351 556 371 q 547 333 556 346 l 331 14 q 307 0 322 0 q 283 14 293 0 l 65 333 q 58 351 58 347 q 76 371 58 371 q 96 367 86 371 l 254 311 l 254 482 l 72 482 l 72 582 l 254 582 l 254 701 l 72 701 l 72 801 l 254 801 l 254 972 l 360 972 l 360 801 l 542 801 l 542 701 l 360 701 l 360 582 l 542 582 l 542 482 l 360 482 l 360 311 l 518 367 q 536 371 528 371 z "},"⇠":{"ha":1097,"x_min":56,"x_max":1028,"o":"m 417 706 l 364 553 l 489 553 l 489 449 l 364 449 l 417 296 q 425 267 425 274 q 408 251 425 251 q 385 263 403 251 l 72 475 q 56 500 56 486 q 72 525 56 514 l 385 739 q 408 750 403 750 q 425 735 425 750 q 417 706 425 728 m 604 449 l 604 553 l 758 553 l 758 449 l 604 449 m 874 553 l 1028 553 l 1028 449 l 874 449 l 874 553 z "},"⇡":{"ha":610,"x_min":58,"x_max":556,"o":"m 547 639 q 556 621 556 628 q 550 608 556 614 q 536 601 544 601 q 518 607 532 601 l 360 661 l 360 528 l 253 528 l 253 661 l 96 607 q 76 601 82 601 q 64 608 69 601 q 58 621 58 614 q 65 639 58 628 l 283 958 q 307 972 293 972 q 331 958 322 972 l 547 639 m 253 264 l 253 421 l 360 421 l 360 264 l 253 264 m 253 0 l 253 157 l 360 157 l 360 0 l 253 0 z "},"⇢":{"ha":1097,"x_min":63,"x_max":1035,"o":"m 1019 525 q 1035 500 1035 515 q 1019 475 1035 485 l 706 263 q 682 251 688 251 q 665 267 665 251 q 674 296 665 274 l 726 449 l 601 449 l 601 553 l 726 553 l 674 706 q 665 735 665 728 q 682 750 665 750 q 706 739 688 750 l 1019 525 m 63 449 l 63 553 l 218 553 l 218 449 l 63 449 m 332 449 l 332 553 l 488 553 l 488 449 l 332 449 z "},"⇣":{"ha":613,"x_min":58,"x_max":556,"o":"m 360 972 l 360 813 l 253 813 l 253 972 l 360 972 m 360 706 l 360 546 l 253 546 l 253 706 l 360 706 m 536 371 q 556 351 556 371 q 547 333 556 346 l 331 14 q 307 0 322 0 q 283 14 293 0 l 65 333 q 58 351 58 347 q 76 371 58 371 q 96 367 86 371 l 253 313 l 253 439 l 360 439 l 360 311 l 518 367 q 536 371 528 371 z "},"⇤":{"ha":1136,"x_min":117,"x_max":1067,"o":"m 117 144 l 117 854 l 238 854 l 238 144 l 117 144 m 674 251 q 650 263 668 251 l 338 475 q 321 500 321 486 q 338 525 321 514 l 650 739 q 674 750 668 750 q 690 735 690 750 q 682 706 690 728 l 628 549 l 1067 564 l 1067 438 l 628 453 l 682 296 q 690 267 690 274 q 674 251 690 251 z "},"⇥":{"ha":1136,"x_min":69,"x_max":1019,"o":"m 899 144 l 899 854 l 1019 854 l 1019 144 l 899 144 m 463 251 q 446 267 446 251 q 454 296 446 274 l 508 453 l 69 438 l 69 564 l 508 549 l 454 706 q 446 735 446 728 q 463 750 446 750 q 486 739 468 750 l 799 525 q 815 500 815 514 q 799 475 815 486 l 486 263 q 463 251 468 251 z "},"∂":{"ha":819,"x_min":53,"x_max":732,"o":"m 350 -17 q 134 62 215 -17 q 53 265 53 140 q 151 513 53 418 q 383 608 250 608 q 522 576 468 608 q 614 485 575 544 q 614 554 615 521 q 515 792 606 714 q 293 876 425 869 l 322 989 q 635 835 538 965 q 732 463 732 704 q 710 282 732 365 q 645 131 689 199 q 526 23 601 63 q 350 -17 450 -17 m 350 100 q 518 159 456 100 q 581 314 581 218 q 392 490 581 490 q 234 435 293 490 q 175 286 175 379 q 224 150 175 200 q 350 100 272 100 z "},"∆":{"ha":943,"x_min":71,"x_max":872,"o":"m 71 0 l 415 972 l 528 972 l 872 0 l 71 0 m 236 115 l 708 115 l 504 697 q 472 800 479 772 q 439 697 451 731 l 236 115 z "},"∏":{"ha":1000,"x_min":136,"x_max":864,"o":"m 742 -194 l 742 854 l 257 854 l 257 -194 l 136 -194 l 136 972 l 864 972 l 864 -194 l 742 -194 z "},"∑":{"ha":863,"x_min":74,"x_max":804,"o":"m 74 -196 l 74 -90 l 432 401 l 93 865 l 93 971 l 776 971 l 776 854 l 250 854 l 583 403 l 231 -79 l 804 -79 l 804 -196 l 74 -196 z "},"−":{"ha":896,"x_min":122,"x_max":775,"o":"m 122 418 l 122 535 l 775 535 l 775 418 l 122 418 z "},"∕":{"ha":457,"x_min":-161,"x_max":618,"o":"m -161 -17 l 504 989 l 618 989 l -47 -17 l -161 -17 z "},"∙":{"ha":313,"x_min":60,"x_max":253,"o":"m 224 419 q 210 405 224 419 q 156 390 196 390 q 88 419 115 390 q 60 485 60 447 q 88 552 60 524 q 156 581 115 581 q 224 551 196 581 q 253 485 253 522 q 224 419 253 447 z "},"√":{"ha":774,"x_min":74,"x_max":722,"o":"m 722 972 l 426 0 l 317 0 l 74 465 l 199 465 l 360 153 l 596 972 l 722 972 z "},"∞":{"ha":1400,"x_min":60,"x_max":1340,"o":"m 1019 171 q 700 390 810 171 q 381 171 582 171 q 151 256 242 171 q 60 492 60 342 q 151 728 60 642 q 381 814 242 814 q 700 592 581 814 q 828 756 753 697 q 1017 814 903 814 q 1249 728 1157 814 q 1340 492 1340 642 q 1249 256 1340 342 q 1019 171 1158 171 m 390 283 q 650 492 538 283 q 390 701 536 701 q 240 645 299 701 q 181 492 181 589 q 240 339 181 394 q 390 283 299 283 m 1010 283 q 1160 339 1101 283 q 1218 492 1218 394 q 1160 645 1218 589 q 1010 701 1101 701 q 749 492 860 701 q 1010 283 858 283 z "},"∫":{"ha":596,"x_min":67,"x_max":529,"o":"m 204 -194 q 67 -162 128 -194 l 67 -69 q 168 -90 122 -90 q 238 -18 238 -90 l 238 828 q 392 989 238 989 q 529 956 467 989 l 529 863 q 428 885 468 885 q 358 811 358 885 l 358 -33 q 204 -194 358 -194 z "},"≈":{"ha":896,"x_min":124,"x_max":774,"o":"m 594 510 q 435 552 532 510 q 299 594 339 594 q 231 571 257 594 q 203 510 206 547 l 124 510 q 167 653 124 597 q 303 708 211 708 q 463 667 367 708 q 597 625 560 625 q 665 648 639 625 q 693 708 690 671 l 774 708 q 729 566 774 622 q 594 510 685 510 m 594 244 q 435 287 532 244 q 299 329 339 329 q 231 306 257 329 q 203 244 206 282 l 124 244 q 167 388 124 332 q 303 444 211 444 q 463 403 367 444 q 597 361 560 361 q 665 384 639 361 q 693 444 690 407 l 774 444 q 729 301 774 358 q 594 244 685 244 z "},"≠":{"ha":896,"x_min":132,"x_max":782,"o":"m 428 293 l 365 161 l 239 161 l 301 293 l 132 293 l 132 414 l 363 414 l 424 539 l 132 539 l 132 660 l 482 660 l 542 781 l 668 781 l 607 660 l 782 660 l 782 539 l 549 539 l 488 414 l 782 414 l 782 293 l 428 293 z "},"≤":{"ha":896,"x_min":122,"x_max":775,"o":"m 774 253 l 122 489 l 122 599 l 774 836 l 774 708 l 283 544 l 774 381 l 774 253 m 122 0 l 122 117 l 775 117 l 775 0 l 122 0 z "},"≥":{"ha":896,"x_min":122,"x_max":775,"o":"m 122 253 l 122 381 l 613 544 l 122 708 l 122 836 l 774 599 l 774 489 l 122 253 m 122 0 l 122 117 l 775 117 l 775 0 l 122 0 z "},"◊":{"ha":847,"x_min":88,"x_max":761,"o":"m 368 -17 l 88 486 l 368 989 l 482 989 l 761 486 l 482 -17 l 368 -17 m 425 865 l 208 486 l 425 108 l 642 486 l 425 865 z "},"◌":{"ha":915,"x_min":88,"x_max":829,"o":"m 428 794 q 422 800 428 794 q 417 825 417 806 q 428 857 417 844 q 458 869 440 869 q 488 857 476 869 q 500 825 500 844 q 489 794 500 806 q 458 783 478 783 q 428 794 439 783 m 290 800 q 302 832 290 819 q 333 844 314 844 q 363 832 351 844 q 375 800 375 819 q 363 770 375 782 q 333 758 351 758 q 303 770 315 758 q 290 800 290 782 m 552 770 q 546 776 552 770 q 540 800 540 782 q 553 831 540 818 q 582 843 565 843 q 614 831 601 843 q 626 800 626 819 q 614 770 626 782 q 582 758 601 758 q 552 770 564 758 m 185 731 q 197 760 185 749 q 228 772 208 772 q 258 761 247 772 q 269 731 269 750 q 258 699 269 711 q 228 688 247 688 q 197 699 208 688 q 185 731 185 711 m 658 699 q 653 705 658 699 q 647 731 647 711 q 658 761 647 750 q 689 772 669 772 q 720 760 708 772 q 732 731 732 749 q 720 699 732 711 q 689 688 708 688 q 658 699 669 688 m 730 594 q 724 600 730 594 q 718 624 718 606 q 730 655 718 642 q 760 668 742 668 q 790 655 778 668 q 803 624 803 642 q 790 594 803 606 q 760 582 778 582 q 730 594 742 582 m 126 593 q 120 599 126 593 q 114 624 114 606 q 126 654 114 642 q 157 667 139 667 q 188 654 175 667 q 200 624 200 642 q 187 593 200 606 q 157 581 174 581 q 126 593 139 581 m 88 499 q 100 530 88 518 q 132 542 113 542 q 163 530 151 542 q 174 499 174 518 q 162 469 174 481 q 132 457 150 457 q 100 469 113 457 q 88 499 88 481 m 743 499 q 754 530 743 518 q 785 542 765 542 q 816 530 803 542 q 829 499 829 518 q 816 469 829 481 q 785 457 803 457 q 755 469 767 457 q 743 499 743 481 m 126 343 q 120 349 126 343 q 114 374 114 356 q 126 404 114 392 q 157 417 139 417 q 187 404 175 417 q 199 374 199 392 q 187 343 199 356 q 157 331 175 331 q 126 343 139 331 m 717 375 q 729 405 717 393 q 760 417 742 417 q 790 405 778 417 q 803 375 803 393 q 790 344 803 356 q 760 332 778 332 q 729 344 742 332 q 717 375 717 356 m 197 238 q 191 244 197 238 q 185 268 185 250 q 197 299 185 286 q 228 311 208 311 q 258 299 246 311 q 269 268 269 288 q 258 238 269 250 q 228 226 247 226 q 197 238 208 226 m 647 268 q 659 299 647 288 q 689 311 671 311 q 720 299 708 311 q 732 268 732 286 q 720 238 732 250 q 689 226 708 226 q 658 238 669 226 q 647 268 647 250 m 290 199 q 303 228 290 217 q 335 240 315 240 q 365 228 353 240 q 376 199 376 217 q 364 167 376 181 q 335 154 351 154 q 303 167 315 154 q 290 199 290 179 m 553 167 q 548 173 553 167 q 542 197 542 179 q 553 228 542 215 q 583 240 565 240 q 615 228 603 240 q 626 197 626 217 q 615 166 626 178 q 583 154 603 154 q 553 167 565 154 m 428 141 q 423 147 428 141 q 417 172 417 153 q 428 203 417 192 q 458 215 440 215 q 488 203 476 215 q 500 172 500 192 q 488 141 500 153 q 458 129 476 129 q 428 141 440 129 z "},"":{"ha":0,"x_min":-336,"x_max":-176,"o":"m -176 1014 l -176 1003 q -300 686 -176 808 l -336 713 q -306 840 -318 751 q -294 1014 -294 928 l -176 1014 z "},"ﬁ":{"ha":815,"x_min":46,"x_max":715,"o":"m 639 839 q 586 861 608 839 q 564 914 564 883 q 586 969 564 946 q 639 992 608 992 q 693 969 671 992 q 715 914 715 946 q 693 860 715 882 q 639 839 671 839 m 276 604 l 276 0 l 156 0 l 156 604 l 46 604 l 46 710 l 156 710 l 156 828 q 200 951 156 914 q 310 989 244 989 q 442 956 379 989 l 442 854 q 340 881 385 881 q 289 861 301 881 q 276 807 276 842 l 276 710 l 442 710 l 442 604 l 276 604 m 579 0 l 579 710 l 700 710 l 700 0 l 579 0 z "},"ﬂ":{"ha":826,"x_min":46,"x_max":706,"o":"m 585 0 l 585 946 l 706 1003 l 706 0 l 585 0 m 276 604 l 276 0 l 156 0 l 156 604 l 46 604 l 46 710 l 156 710 l 156 828 q 200 951 156 914 q 310 989 244 989 q 442 956 379 989 l 442 854 q 340 881 385 881 q 289 861 301 881 q 276 807 276 842 l 276 710 l 442 710 l 442 604 l 276 604 z "}}}
